<?xml version="1.0" encoding="UTF-8"?><svg id="Layer_2" xmlns="http://www.w3.org/2000/svg" viewBox="0 0 255.74 383.25"><defs><style>.cls-1{fill:#2a2a2a;stroke-width:0px;}</style></defs><g id="Layer_1-2"><path class="cls-1" d="M20.11,383.25c-2.95-1.26-6.13-2.16-8.81-3.85-7.3-4.58-10.82-11.47-11.18-20.02-2.79-65.55,44.51-123.62,109.32-134.21,64.17-10.49,128.19,32.78,142.7,96.35,2.82,12.36,3.84,24.86,3.54,37.49-.28,11.88-7.14,20.41-18.68,23.59-.46.13-.88.42-1.31.64h-8.23c-.3-.2-.57-.5-.91-.6-12.6-3.79-18.54-11.87-18.79-24.98-.13-6.71-.33-13.49-1.33-20.11-5.26-34.67-36.52-63.13-71.24-65.87-34.71-2.74-66.36,18.05-79.82,47.79-5.61,12.4-7.52,25.44-7.43,38.95.09,12.33-6.49,20.68-18.32,24.15-.45.13-.85.45-1.27.68h-8.23Z"/><path class="cls-1" d="M128.12,0c52.95.11,95.78,43.21,95.6,96.19-.19,52.77-43.21,95.55-95.99,95.43-52.88-.12-95.81-43.32-95.62-96.22C32.29,42.64,75.32-.11,128.12,0ZM128.07,47.91c-26.42-.06-47.98,21.31-48.07,47.63-.09,26.41,21.26,48.04,47.55,48.17,26.58.13,48.23-21.33,48.25-47.84.03-26.39-21.38-47.91-47.73-47.97Z"/></g></svg>