<?xml version="1.0" encoding="UTF-8"?><svg id="Layer_2" xmlns="http://www.w3.org/2000/svg" viewBox="0 0 384 383.24"><defs><style>.cls-1{fill:#2a2a2a;stroke-width:0px;}</style></defs><g id="Layer_1-2"><path class="cls-1" d="M384,143.72c-4.25,15.45-8.48,30.91-12.74,46.36-3.21,11.64-6.27,23.33-9.72,34.9-11.01,36.82-44.83,62.28-83.34,62.41-53.72.18-107.45.06-161.18.05-29.39,0-51.41-20.14-54.8-49.25-3.58-30.69-7.77-61.31-11.68-91.96-3.61-28.3-7.2-56.61-10.8-84.91-.33-2.6-.58-5.21-1-7.79-.67-4.13-2.36-5.55-6.54-5.61-2.87-.04-5.75.04-8.62-.03-10.3-.24-18.97-6.65-22.33-16.42C.89,30.43.42,29.45,0,28.44c0-2.99,0-5.99,0-8.98,2.01-5.8,4.52-11.36,9.93-14.78C12.91,2.8,16.3,1.54,19.5,0c6.75,0,13.5,0,20.25,0,.57.22,1.11.54,1.7.64,23.08,3.9,40.07,20.3,44.25,43.35,1.86,10.29,3.12,20.71,4.06,31.12.39,4.25,1.98,4.87,5.76,4.87,76.34-.11,152.67-.08,229.01-.07,2.25,0,4.51-.08,6.74.15,23.21,2.34,40.03,13.62,49.04,35.46,1.65,3.99,2.48,8.31,3.69,12.48v15.72ZM96.85,127.81c0,1.07-.07,1.68,0,2.27,4.38,34.11,8.75,68.22,13.18,102.33.81,6.23,1.93,7.11,8.14,7.11,52.61,0,105.21.02,157.82,0,19.83,0,35.05-11.49,40.34-30.49,6.35-22.79,12.61-45.6,18.89-68.41,2.46-8.95-.46-12.81-9.71-12.81-74.85,0-149.7,0-224.54,0h-4.13Z"/><path class="cls-1" d="M80.09,351.27c.02-17.69,14.15-31.79,31.87-31.8,17.84-.01,32.13,14.3,32.03,32.09-.1,17.51-14.53,31.74-32.13,31.69-17.6-.05-31.79-14.34-31.77-31.97Z"/><path class="cls-1" d="M272.18,319.47c17.72.09,31.78,14.24,31.73,31.95-.05,17.79-14.47,32-32.29,31.83-17.53-.17-31.72-14.64-31.61-32.2.12-17.56,14.48-31.65,32.17-31.57Z"/></g></svg>