<?xml version="1.0" encoding="UTF-8"?><svg id="Layer_2" xmlns="http://www.w3.org/2000/svg" viewBox="0 0 50 50"><defs><style>.cls-1{fill:#ededed;stroke-width:0px;}</style></defs><g id="Layer_1-2"><path class="cls-1" d="M25.78,0c.66.22,1.36.36,1.97.67,2.23,1.14,3.48,3,3.48,5.51.03,12.55.02,25.1.01,37.64,0,2.98-2.21,5.55-5.15,6.08-.11.02-.21.06-.32.1h-1.56c-1.06-.25-2.09-.57-2.97-1.27-1.61-1.27-2.49-2.91-2.49-4.96-.01-12.52-.01-25.03,0-37.55,0-3.04,2.2-5.61,5.19-6.14.09-.02.18-.06.27-.09.52,0,1.04,0,1.56,0ZM22.93,25c0,6.09,0,12.17,0,18.26,0,.2,0,.39,0,.59.05.99.79,1.82,1.73,1.96,1.04.15,1.99-.41,2.29-1.39.1-.33.11-.7.11-1.06,0-12.24,0-24.47,0-36.71,0-.16,0-.33,0-.49-.05-1.01-.81-1.85-1.78-1.96-1.07-.12-2.01.48-2.28,1.49-.08.29-.08.61-.08.92,0,6.13,0,12.27,0,18.4Z"/><path class="cls-1" d="M42.97,50c-.96-.23-1.91-.5-2.73-1.09-1.77-1.28-2.73-2.99-2.73-5.18-.01-8.32-.01-16.63,0-24.95,0-3.27,2.5-5.98,5.73-6.26,3.2-.27,6.1,1.99,6.67,5.18.02.09.06.18.09.27v26.56c-.03.09-.07.18-.09.27-.44,2.22-1.7,3.8-3.76,4.71-.51.23-1.08.33-1.62.49h-1.56ZM45.83,31.3c0-.59,0-1.17,0-1.76,0-3.6,0-7.19,0-10.79,0-1.06-.75-1.92-1.73-2.06-1.07-.15-2.05.45-2.33,1.48-.08.29-.08.61-.08.92,0,8.1,0,16.21,0,24.31,0,.2,0,.39.02.59.08.96.9,1.76,1.86,1.83,1.32.1,2.27-.82,2.27-2.21,0-4.1,0-8.2,0-12.3Z"/><path class="cls-1" d="M5.47,50c-.79-.29-1.64-.47-2.35-.88C1.07,47.92.02,46.07.01,43.68,0,39.55,0,35.42,0,31.29c0-3.26,2.42-5.92,5.66-6.27,3.06-.33,5.96,1.78,6.67,4.87.12.5.16,1.03.16,1.55.01,4.03,0,8.07,0,12.1,0,3.29-2.06,5.77-5.3,6.39-.06.01-.11.05-.17.08h-1.56ZM8.33,37.5h0c0-2.11.02-4.23,0-6.34-.01-1.13-.94-1.98-2.06-1.97-1.12,0-2.02.85-2.06,1.98-.02.41,0,.81,0,1.22,0,3.74,0,7.48,0,11.22,0,.94.38,1.64,1.23,2.04,1.35.63,2.89-.34,2.91-1.85.03-2.1,0-4.2,0-6.3Z"/></g></svg>