<?xml version="1.0" encoding="UTF-8"?><svg id="Layer_2" xmlns="http://www.w3.org/2000/svg" viewBox="0 0 50 41.74"><defs><style>.cls-1{fill:#ededed;stroke-width:0px;}</style></defs><g id="Layer_1-2"><path class="cls-1" d="M0,30.65c.11-.62.18-1.26.35-1.87.82-3.11,2.65-5.4,5.53-6.84.29-.15.39-.3.39-.63-.02-2.12-.04-4.23.37-6.34C8.09,7.58,14.25,1.54,21.68.28c9.38-1.59,18.14,3.64,21.16,12.65.65,1.95.94,3.96.93,6.01,0,.8,0,1.6,0,2.4,0,.27.06.43.33.56,3.65,1.88,5.62,4.89,5.89,8.98.33,5.14-3.69,10.02-8.77,10.72-.53.07-1.07.12-1.6.12-3.44.01-6.87.01-10.31,0-1.48,0-2.44-1.16-2.15-2.54.21-.96,1.01-1.61,2.05-1.61,1.87-.01,3.75,0,5.62,0,.18,0,.35,0,.62,0v-.6c0-3.77.08-7.54-.03-11.31-.07-2.65,1.47-4.62,4.14-4.85.42-5.83-1.39-10.74-6.31-14.07-5.04-3.42-10.43-3.61-15.66-.51-5.46,3.23-7.54,8.33-7.13,14.59.32.05.64.09.95.16,1.77.41,3.14,2,3.15,3.83.04,4.32.04,8.65,0,12.97-.02,2.15-1.81,3.87-3.96,3.95-4.97.19-9.61-3.64-10.41-8.6-.06-.4-.13-.8-.19-1.2,0-.42,0-.85,0-1.27ZM10.4,25.11c-1.67-.3-4.06.98-5.23,2.77-1.36,2.1-1.36,4.85.06,6.91,1.23,1.79,2.96,2.7,5.16,2.77v-12.45ZM39.63,37.51c1.78.25,4.17-1.05,5.27-2.91,1.36-2.29,1.32-4.61-.15-6.82-1.19-1.8-2.93-2.69-5.13-2.73v12.46Z"/></g></svg>