<?xml version="1.0" encoding="UTF-8"?><svg id="Layer_2" xmlns="http://www.w3.org/2000/svg" viewBox="0 0 239.02 201.65"><defs><style>.cls-1{fill:#000;stroke-width:0px;}</style></defs><g id="Layer_1-2"><path class="cls-1" d="M238.79,43.08v-.06c-.13-.65-.24-1.08-.32-1.42-.15-.6-.22-.87-.22-1.85-.13-2.61-1.11-4.93-2.81-6.55-.45-.39-.95-.76-1.5-1.11.37-.66.74-1.33,1.09-2.04,1.09-2.37,1.14-4.85,1.18-7.25v-.7c.04-.9.07-1.8.1-2.69.08-2.26.16-4.59.07-6.87,0-2.93-1.02-5.76-2.93-8.13C231.56,1.61,228.98.01,226.41.01h-.06c-5.5-.3-8.45,4.58-10.84,8.51l-.38.62c-2.45,3.93-4.67,8.07-6.83,12.06l-.63,1.17c-.49.05-.98.1-1.46.14l-.12.02c-2.43.47-4.9,1.59-7.16,3.23l-.12.1c-2.33,2.32-3.75,5.32-5.12,8.46-.62,1.46-1.26,2.93-1.9,4.39-1.04,2.39-2.11,4.86-3.13,7.32-1.68.07-3.03.14-4.32.24-1.83.13-3.72.48-5.63,1.04-1.93.36-3.67.72-5.28,1.36-.28.08-.57.16-.85.23-1.04.27-2.12.56-3.14,1.14-.54.32-1.09.63-1.63.93-1.51.85-3.06,1.73-4.57,2.84-2.84,2.47-5.6,4.91-8.01,7.64-4.44,4.87-8.98,9.89-13.49,14.92l1.41,1.41c5.16-4.59,9.92-8.86,14.54-13.07,2.06-1.9,4.29-3.64,7.64-5.95,1.23-.68,2.55-1.28,3.83-1.87.54-.25,1.08-.49,1.65-.76.75-.38,1.62-.52,2.55-.67l.73-.13c1.21-.33,2.66-.67,4.26-.77.42-.06.83-.13,1.25-.2,1.67-.27,3.23-.53,4.84-.48,1.34.05,2.86.06,4.4.07,3.4.02,6.92.05,8.72.44,2.21.58,6.58,2.19,10.15,3.92.51.2,1.03.39,1.54.58,2.15.81,4.36,1.65,6.5,2.75,9.1,3.75,12.66,7.92,16.04,14.3l.09.17.03.02c.15.53.18,2.35.2,3.96.01.9.02,1.89.04,2.87-.17.91-.37,1.56-.59,2.31-.16.52-.33,1.09-.49,1.74-.33,1.02-.59,1.93-.83,2.81-.27.97-.52,1.88-.83,2.81-.23.51-.47,1.1-.73,1.73-.64,1.53-1.36,3.27-2.19,4.76-2.41,5.43-4.59,9.23-8.67,12.62-.77.73-1.58,1.34-2.44,1.99-.49.37-.99.75-1.57,1.22-1.17,1.09-2.36,2.07-3.61,3.1-1.44-1.81-3.1-3.44-4.71-5.03-.6-.59-1.2-1.18-1.81-1.8-.68-.65-1.36-1.32-2.04-1.98-2.86-2.81-5.81-5.72-9.46-7.53-4.7-2.85-9.95-4.54-15.02-6.17-3.31-1.06-6.73-2.16-9.92-3.57-3.19-1.4-6.07-3.18-8.61-5.34-.51-.38-.99-.82-1.49-1.29-.94-.89-1.92-1.8-3.19-2.31-4.09-2.07-8.57-3.08-12.9-4.05l-.32-.07c-8.02-1.84-16.21-2.85-23.26-3.59l-.97-.78c-.19.21-.37.42-.56.63l-.41-.04-.11.65c-2.59,3.05-4.79,6.45-6.92,9.73l-.44.68c-3.01,4.49-4.62,10.05-4.63,16.05-.06,1.68-.1,3.37-.15,5.06-.31.91-.52,1.84-.66,2.71l-.31-.46c-1.62.94-3.26,1.86-4.89,2.78-6.07,3.43-12.35,6.97-17.92,11.35-1.48,1.09-2.54,2.19-3.73,3.58-.35.37-.72.72-1.09,1.07-.62.58-1.25,1.19-1.8,1.9-.75.65-1.31,1.19-1.81,1.75-.92.67-1.58,1.52-2.21,2.34-.16.21-.32.42-.44.56-2.21,2.34-3.59,4.47-4.38,6.79-.18.77-.33,1.58-.44,2.46-3.62.44-7.56,1.05-12.32,1.9-.81.18-1.64.34-2.46.5-2.39.46-4.85.93-7.15,1.99l-.1.05c-.29.18-.58.35-.88.52-1.13.67-2.31,1.35-3.29,2.34l-.24.29c-.44.55-.9,1.11-1.32,1.7l-1.78-.17c-6.4-.6-13.01-1.23-19.52-.93-4.21-.08-7.36.63-9.91,2.27l-.12.09c-1.31,1.15-2.48,2.5-3.38,3.91l-.05.09c-.83,1.63-1,3.45-1.06,5.18-.05,2.11,0,4.24.03,6.31l.03,2.02c.04.94.1,2.22.72,3.3.42.78,1.05,1.31,1.61,1.77.21.17.42.35.57.5,1.4,1.51,3.39,1.42,4.99,1.35h.14c.46,0,.96.1,1.49.22.27.06.54.12.81.17,1.02.43,2.07.62,3.09.81.54.1,1.08.2,1.64.34,1.73.38,3.3.7,4.93.88,3.37.88,6.76,1.08,10.05.57.46-.05.96,0,1.48.05.26.03.52.05.77.07l.27.02c.02,1.49.17,3,.86,4.44.39,1.59,1.03,2.88,1.89,3.86.73,1.03,1.77,1.63,2.69,2.16.36.21.71.41,1.05.65l.09.06c.65.35,1.33.51,1.93.64.49.11.95.22,1.34.41l1.22.29c2.21.47,4.49.95,6.85.88,4.74.52,9.79.81,14.66-.46,4.57-.77,8.45-1.96,11.85-3.62.06.07.13.13.2.2l-.04.02.42.35c.27.25.56.5.87.73.08.07.15.13.23.2.43.38.92.81,1.49,1.03,1.98.97,4.21,2.07,6.82,1.95.48.06.97.16,1.48.27.98.21,1.99.44,3.1.34.72-.05,1.47.05,2.26.17.39.06.79.11,1.18.15.9.09,1.81.12,2.7.12,1.17,0,2.31-.06,3.37-.12,1.01-.1,2.06-.15,3.07-.2,2.43-.12,4.94-.24,7.35-1.06l-.51-1.93c-1.93.37-3.89.19-5.97-.01-.9-.09-1.84-.18-2.77-.21-3.43-.19-6.45-.68-9.52-1.56l-.21-.04c-1.4-.1-2.83-.44-4.49-1.08l-.1-.03c-.48-.13-.94-.2-1.4-.27-.57-.09-1.1-.17-1.53-.33-.86-.38-1.71-.89-2.53-1.38l-.49-.29c-.63-.3-1.16-.84-1.72-1.42-.25-.25-.49-.51-.75-.75-.43-.6-1.06-1.45-1.59-2.09-2.02-2.76-3.4-4.81-4.88-7.77l-.03-.06c-.09-.58-.33-1.17-.56-1.73-.17-.42-.35-.86-.4-1.17l-.05-.19c-.33-.85-.47-1.56-.63-2.38-.13-.63-.27-1.35-.52-2.19-.04-2-.15-4.13-.69-6.29-.19-.56-.21-1.01-.25-1.7-.04-.68-.08-1.54-.3-2.8-.17-.96-.38-1.72-.57-2.4-.16-.57-.3-1.07-.37-1.54l-.02-.11c-.5-1.97-.5-2.88-.49-4.88,0-.6,0-1.3,0-2.06.05-.72.03-1.12.02-1.39q-.01-.29.09-.56l-.72-.28v-.04s.73.29.73.29c.1-.25.25-.59.48-1.11l.04-.09c.18-.55.89-1.44,1.57-2.29.63-.79,1.28-1.6,1.79-2.46.22-.38.28-.44.57-.72l.24-.23c2.3-2.37,4.26-4.8,6.35-7.37l.66-.81c4.89-4.87,10.32-8.95,16.07-13.26,2.02-1.52,4.1-3.09,6.17-4.7-.09.3-.18.61-.27.97-.41,1.9-.66,3.19-.96,4.71-.15.75-.31,1.56-.51,2.6-.38,3.11-.41,6.28-.45,9.34,0,.77-.02,1.54-.03,2.35.04,1.63,0,3.31-.04,4.93-.1,3.75-.2,7.63.72,11.42,1.18,4.54,4.54,13.94,6.31,17.98,1.84,3.53,2.89,6.15,4.22,9.48.61,1.54,1.28,3.19,2.09,5.11,1.25,2.98,2.77,6.4,5.1,9.47,3.03,3.36,6.85,5.85,10.6,8.28,1.63,1,3.27,1.97,4.99,2.98l1.13-1.64-2.29-1.84c-.74-.63-1.49-1.25-2.25-1.89-3.81-3.16-7.75-6.43-10.32-10.55-1.84-3.42-2.89-6.57-4.1-10.23-.42-1.27-.86-2.6-1.35-3.98-.86-2.9-1.92-5.47-2.86-7.74-.63-1.52-1.22-2.95-1.67-4.3-1.09-2.89-2.42-7.33-3.39-10.57-.44-1.47-.82-2.74-1.08-3.53-.43-1.65-.41-2.99-.39-4.84,0-.79.02-1.65,0-2.63,0-1.88-.02-3.76-.04-5.64-.03-2.66-.06-5.4-.03-8.06.04-.75.04-1.16.05-1.45q.01-.51.21-1.66l.14-.83c.23-1,.35-1.91.46-2.8.13-1.03.26-2.01.55-3.06l.03-.16c.12-1.15.17-1.76.2-2.16q.05-.68.43-2.28l.09-.42c.18-1.98.1-4.43.02-6.58-.07-1.89-.13-3.68.02-4.66.32-3.36,2.04-8.03,4.62-12.5,1.48-2.8,2.95-5.54,4.63-8.13,8.03,1.97,15.36,3.84,23.06,6.47l.79.27c3.87,1.31,7.88,2.66,11.39,4.81l.09.05c.96.46,1.7,1.25,2.48,2.09.52.56,1.06,1.14,1.63,1.6,3.11,2.99,6.47,5.34,9.96,6.98,3.42,1.7,7.03,3.06,10.53,4.37,4.99,1.87,10.14,3.81,14.74,6.79,2.33,1.26,4.65,3.56,7.1,6,.86.85,1.74,1.73,2.64,2.58.51.52,1.02,1.02,1.54,1.53,1.68,1.66,3.42,3.37,4.77,5.27.86,1.26,2,4.2,2.17,4.9,0,0,0,0,0,.01h0,0c0,.06.01.11.02.16.08.51.13,1.02.17,1.48.02.51.04,1.02.06,1.53.1,2.43.19,4.72-.11,5.98-.18.53-.37,1.13-.58,1.76-.67,2.09-1.5,4.69-2.58,6.64l-.04.09c-1.97,4.6-3.1,6.34-6.42,9.83-.69.75-1.35,1.52-2.01,2.29-1.53,1.77-2.98,3.45-4.73,4.96-1.79,1.72-3.83,3.41-6.21,5.13-1.03.66-2.14,1.27-3.21,1.85-1.37.75-2.79,1.52-4.08,2.43-3.61,2.26-7.28,4.19-10.33,5.74-.59.24-1.18.47-1.78.71-1.77.69-3.61,1.41-5.27,2.39-2.03,1.05-4.01,2.23-5.93,3.38-2.39,1.43-4.85,2.9-7.4,4.09l.73,1.86c2.85-.92,5.61-2.16,8.27-3.35,3.02-1.35,6.14-2.75,9.32-3.66,5.51-1.35,10.69-3.9,15.5-6.39.74-.36,1.5-.69,2.26-1.03,1.41-.62,2.88-1.27,4.28-2.11,3.31-2.15,6.41-4.65,8.01-6.08,1.23-.96,2.27-2.1,3.28-3.2.57-.62,1.15-1.26,1.74-1.83,3.17-2.96,5.32-5.69,6.75-8.57,2.61-5.09,5.23-10.55,6.01-16.55.19-5.73.41-12.23-2.38-17.83-.4-.96-.91-1.92-1.54-2.9,1.43-.94,2.83-1.87,4.16-2.79,3.18-1.84,5.54-3.54,7.45-5.38,2.81-2.85,4.8-6.37,6.42-9.4,2.44-4.04,3.72-6.87,4.9-10.75.04-.11.11-.3.2-.54.49-1.32,1.63-4.4,2.04-6.51l.02-.17c.02-.9.07-1.82.12-2.75.22-4.02.44-8.18-1.56-11.84-.62-1.28-1.28-2.5-2.01-3.66h0s.72-.94.72-.94c1.97-1.98,2.67-4.51,3.34-6.97l.09-.33c.54-1.75,1.07-3.62,1.33-5.49l.06-1.42c.11-2.62.23-5.33-.11-8.01ZM234.59,57.77c-.24,1.61-.5,3.43-1.42,4.87-.33.52-.69,1.12-1.06,1.75-1.64-2.31-3.54-4.38-5.74-6.27-3.37-2.51-6.84-4.12-10.51-5.82l-.88-.41c-1.18-.49-2.39-.92-3.56-1.33-1.39-.49-2.83-1-4.18-1.6-3.08-1.38-4.9-1.85-7.41-2.5-.53-.14-1.09-.28-1.67-.44-.66-.2-1.31-.26-1.96-.26-.39,0-.77.02-1.15.04-.4.02-.79.05-1.24.04l-1.29.04c-.37.01-.73.02-1.1.03.49-.87.99-1.74,1.48-2.61,1.22-2.14,2.47-4.34,3.66-6.53l.17-.3c1.21-2.15,2.46-4.38,4.36-5.79,1.02-.5,1.98-.87,2.95-1.12l.22-.09c.9-.48,1.97-.53,3.23-.54.51.02,1.03.02,1.56.02.95,0,1.84,0,2.69.15.41.14.82.33,1.25.53.5.23,1.01.47,1.55.65,2.64.92,5.13,2.38,7.33,3.72,1.03.5,2.1.92,3.13,1.33.71.28,1.42.56,2.17.88.46.17.94.34,1.41.5.53.19,1.06.37,1.59.57l.08-.22.08.03-.08.21c1.31.5,2.23.98,3,1.54l.22.13s.07.11.11.18c.08.15.17.31.36.56.19.22.23.35.27.51.08,1.55.38,3,.91,4.44.28,1.67.32,2.9.38,4.59.02.74.05,1.54.1,2.39-.09,1.9-.52,3.86-.94,5.76l-.07.33ZM233.14,83.16h0s0,0,0,0h0ZM222.17,7.42l.11-.1c.76-.81,1.74-1.22,2.87-1.18h.08s.08,0,.08,0c2.53-.34,4.84,1.41,6.9,5.21.4,1.52.42,2.7.44,4.32.01.76.02,1.61.08,2.51-.05,1.22.04,2.45.12,3.65.14,1.95.27,3.78-.16,5.6-.13.92-.53,1.8-.95,2.73-.09.21-.19.42-.28.63-.76-.35-1.55-.67-2.43-1.03-.64-.27-1.27-.56-1.89-.86-.92-.43-1.88-.87-2.86-1.25-.73-.34-1.43-.77-2.16-1.23-.79-.49-1.6-1-2.48-1.4-1.32-.62-2.69-1.11-4.02-1.59-.75-.27-1.49-.53-2.29-.85-.8-.26-1.62-.37-2.42-.39.73-1.03,1.46-2.06,2.18-3.09,1.83-2.61,3.73-5.3,5.69-7.94,1.07-1.58,2.18-2.8,3.38-3.73ZM73.05,189.95c-4.94.75-12.32,1.57-19.31.01-1.25-.4-2.51-.57-3.73-.73-.64-.09-1.29-.17-1.94-.3-.36-.06-.74-.2-1.18-.35-.62-.22-1.39-.49-2.38-.65-.29-.05-.61-.21-.94-.37-.17-.08-.34-.17-.61-.28l-.43-.13c-.48-.15-1.37-.42-1.59-.6-.37-.31-.75-.56-1.11-.8-.6-.4-1.12-.75-1.44-1.25l-.08-.12s-.04-.08-.06-.13c-.05-.11-.11-.23-.16-.32v-.05c-.12-.57-.3-1.09-.48-1.54,0-.4,0-.91,0-1.23.08-2.68.02-5.77-.03-8.75-.07-4.38-.14-8.52.2-10.78.08-.27.18-.6.28-.93.18-.58.36-1.19.45-1.55.17-.26.34-.55.51-.84.33-.56.68-1.14,1.01-1.56,1.81-1.96,5.06-3.79,8.52-4.79,4.93-1.73,9.9-3.37,14.79-4.87-.07,1.75-.03,3.51,0,5.22l.03,1.23.02.16c.25,1.34.34,1.81.43,2.22.09.42.16.77.38,2.02.25,1.07.38,1.45.46,1.7.08.25.11.34.28,1.49.03.17.03.32.04.54.02.51.04,1.29.3,2.79.16.75.26,1.14.34,1.43.13.48.17.62.3,1.97v.35c.08,1.64.15,3.33.81,4.97l.04.19c.03.13.06.27.16.88.1.58.27,1.18.53,1.83,0,0,0,.02,0,.02.99,2.95,1.92,5.73,4.18,8.76.08.11.18.27.31.46.47.72,1.25,1.92,2.08,2.79.35.4.7.82,1.04,1.23.04.05.08.1.12.15-.7.21-1.44.39-2.16.5ZM32.8,164.54c-.16,4.93-.16,9.89-.15,14.72.01.32.01.65.01.97-1.36-.61-2.77-.86-4.14-1.11-.75-.14-1.47-.26-2.18-.45-1.42-.35-2.76-.96-4.18-1.61-.35-.16-.71-.32-1.12-.5-1.93-.71-3.87-1.51-5.82-2.31-.85-.28-1.66-.66-2.53-1.06-1.58-.73-3.21-1.48-5.04-1.64-.38-.05-.65-.08-.85-.1-.43-.05-.47-.05-.83-.21-.16-.14-.32-.33-.49-.51-.08-.08-.15-.16-.22-.24.02-1.31.05-2.62.06-3.92v-.7c.02-.6.02-1.19.04-1.79.2-.25.4-.5.59-.76.32-.41.63-.81.97-1.2.64-.52,3.21-1.69,3.97-1.93l.22-.04c4.23-.79,8.55-1.48,12.73-2.14,3.45-.55,7.01-1.12,10.53-1.74-.06.19-.12.37-.16.56-.91,2.01-1.39,5.39-1.4,7.71Z"/></g></svg>