<?xml version="1.0" encoding="UTF-8"?><svg id="Layer_2" xmlns="http://www.w3.org/2000/svg" viewBox="0 0 115.5 127.45"><defs><style>.cls-1{fill:#4d4d4d;stroke-width:0px;}</style></defs><g id="Layer_1-2"><path class="cls-1" d="M0,125.24h.92c0,.81.83,1.47,1.85,1.47v.74c-1.53,0-2.77-.99-2.77-2.21Z"/><path class="cls-1" d="M0,121.51v-3.73h.92v3.73h-.92ZM0,114.06v-3.73h.92v3.73h-.92ZM0,106.6v-3.73h.92v3.73h-.92ZM0,99.14v-3.73h.92v3.73h-.92ZM0,91.69v-3.73h.92v3.73h-.92ZM0,84.23v-3.73h.92v3.73h-.92ZM0,76.77v-3.73h.92v3.73h-.92ZM0,69.32v-3.73h.92v3.73h-.92ZM0,61.86v-3.73h.92v3.73h-.92ZM0,54.41v-3.73h.92v3.73h-.92ZM0,46.95v-3.73h.92v3.73h-.92ZM0,39.49v-3.73h.92v3.73h-.92ZM0,32.04v-3.73h.92v3.73h-.92ZM0,24.58v-3.73h.92v3.73h-.92ZM0,17.12v-3.73h.92v3.73h-.92ZM0,9.67v-3.73h.92v3.73h-.92Z"/><path class="cls-1" d="M0,2.21C0,.99,1.24,0,2.77,0v.74c-1.02,0-1.85.66-1.85,1.47h-.92Z"/><path class="cls-1" d="M7.55.74v-.74h4.78v.74h-4.78ZM17.11.74v-.74h4.78v.74h-4.78ZM26.68.74v-.74h4.78v.74h-4.78ZM36.24.74v-.74h4.78v.74h-4.78ZM45.8.74v-.74h4.78v.74h-4.78ZM55.36.74v-.74h4.78v.74h-4.78ZM64.92.74v-.74h4.78v.74h-4.78ZM74.48.74v-.74h4.78v.74h-4.78ZM84.04.74v-.74h4.78v.74h-4.78ZM93.61.74v-.74h4.78v.74h-4.78ZM103.17.74v-.74h4.78v.74h-4.78Z"/><path class="cls-1" d="M112.73.74v-.74c1.53,0,2.77.99,2.77,2.21h-.92c0-.81-.83-1.47-1.85-1.47Z"/><path class="cls-1" d="M114.58,121.51v-3.73h.92v3.73h-.92ZM114.58,114.06v-3.73h.92v3.73h-.92ZM114.58,106.6v-3.73h.92v3.73h-.92ZM114.58,99.14v-3.73h.92v3.73h-.92ZM114.58,91.69v-3.73h.92v3.73h-.92ZM114.58,84.23v-3.73h.92v3.73h-.92ZM114.58,76.77v-3.73h.92v3.73h-.92ZM114.58,69.32v-3.73h.92v3.73h-.92ZM114.58,61.86v-3.73h.92v3.73h-.92ZM114.58,54.41v-3.73h.92v3.73h-.92ZM114.58,46.95v-3.73h.92v3.73h-.92ZM114.58,39.49v-3.73h.92v3.73h-.92ZM114.58,32.04v-3.73h.92v3.73h-.92ZM114.58,24.58v-3.73h.92v3.73h-.92ZM114.58,17.12v-3.73h.92v3.73h-.92ZM114.58,9.67v-3.73h.92v3.73h-.92Z"/><path class="cls-1" d="M112.73,127.45v-.74c1.02,0,1.85-.66,1.85-1.47h.92c0,1.22-1.24,2.21-2.77,2.21Z"/><path class="cls-1" d="M7.55,127.45v-.74h4.78v.74h-4.78ZM17.11,127.45v-.74h4.78v.74h-4.78ZM26.68,127.45v-.74h4.78v.74h-4.78ZM36.24,127.45v-.74h4.78v.74h-4.78ZM45.8,127.45v-.74h4.78v.74h-4.78ZM55.36,127.45v-.74h4.78v.74h-4.78ZM64.92,127.45v-.74h4.78v.74h-4.78ZM74.48,127.45v-.74h4.78v.74h-4.78ZM84.04,127.45v-.74h4.78v.74h-4.78ZM93.61,127.45v-.74h4.78v.74h-4.78ZM103.17,127.45v-.74h4.78v.74h-4.78Z"/><path class="cls-1" d="M81.17,76.26c-1.77.52-3.31,1-4.86,1.41-.68.18-1.09.51-1.36,1.19-.58,1.49-1.26,2.94-1.99,4.65-1.63-4.61-3.19-9.02-4.83-13.66,4.39,2.16,8.6,4.23,13.04,6.41Z"/><path class="cls-1" d="M77.74,70.75c0-.84-.02-1.54.01-2.24,0-.16.2-.32.3-.48.09.17.26.33.27.5.03.7.01,1.4.01,2.21.74,0,1.4-.02,2.06.01.17,0,.33.19.49.29-.17.1-.33.27-.51.27-.64.03-1.27.01-2.04.01,0,.83.02,1.59-.01,2.34,0,.18-.16.35-.25.52-.11-.18-.28-.35-.33-.54-.06-.24-.01-.5-.02-.76-.02-1.79.17-1.53-1.5-1.55-.25,0-.51.03-.75-.02-.15-.03-.27-.19-.4-.29.14-.09.27-.26.42-.27.69-.03,1.39-.01,2.24-.01Z"/><path class="cls-1" d="M74.6,102.29c8.11-4.01,14.29-9.99,18.32-18.12,4.01-8.11,5.05-16.64,3.21-25.48-1.61-7.78-5.34-14.43-11.02-19.98-4.21-4.11-9.09-7.12-14.74-8.88.21.12.42.24.63.35,5.95,3.16,10.35,7.79,13.13,13.93.31.68.65,1.05,1.42.92.29-.05.59,0,.94,0v4.3h-4.23v-4.26h1.43c-1.61-7.96-15.72-18.13-23.9-17.25-.03.47-.06.94-.09,1.47h-4.23c-.03-.49-.05-.96-.09-1.56-4.31.25-8.25,1.53-11.94,3.62-5.67,3.21-10.03,8.51-12.03,13.63.4.03.78.06,1.2.1v4.23h-4.25v-4.28c.54,0,1.13.04,1.7-.02.24-.02.59-.19.67-.38,2.78-6.34,7.24-11.12,13.31-14.42.02-.01.03-.04.16-.21-.37.13-.6.19-.83.29-13.54,5.8-21.93,15.85-24.35,30.42-2.83,17.1,5.8,33.46,21.36,41.33.37.19.9.33.35.89-12.63-5.77-23.24-19.54-22.91-36.8.18-9.3,3.22-17.57,9.15-24.74,5.92-7.15,13.48-11.67,22.54-13.78-.2-.02-.4-.06-.6-.06-7.13,0-14.27.01-21.4,0-.52,0-.73.17-.91.66-.46,1.25-1.74,1.91-3.01,1.65-1.22-.25-2.14-1.39-2.13-2.63,0-1.26.9-2.32,2.17-2.6,1.22-.26,2.49.38,2.96,1.6.19.49.41.65.93.65,9-.02,18.01-.02,27.01-.02.24,0,.48,0,.82,0,.03-.6.06-1.16.09-1.78h4.24c.03.56.05,1.11.08,1.75h28.81c.78-1.78,1.81-2.48,3.2-2.19,1.3.27,2.22,1.38,2.19,2.66-.03,1.23-.92,2.31-2.11,2.57-1.44.31-2.5-.41-3.31-2.25h-22.58s-.02.08-.03.12c.47.12.93.24,1.4.36,15.64,3.94,27.27,16.63,29.79,32.51,2.73,17.2-6.1,34.34-21.65,42-.36.18-.8.56-.91-.29Z"/></g></svg>