<?xml version="1.0" encoding="UTF-8"?><svg id="Layer_2" xmlns="http://www.w3.org/2000/svg" viewBox="0 0 821.4 512.06"><defs><style>.cls-1{fill:#2a292b;}.cls-1,.cls-2,.cls-3,.cls-4{stroke-width:0px;}.cls-2{fill:#edf263;}.cls-3{fill:#0061c2;}.cls-4{fill:#66b2ff;}</style></defs><g id="Layer_1-2"><path class="cls-3" d="M581.94,483.6c-1.23.45-2.51.82-3.7,1.38-3.35,1.55-6.87,1.84-9-1.39-2.21-3.34-.86-6.72,2.18-9.22.75-.62,1.81-.86,2.16-2.05-16.14,5.99-32.62,8.71-49.29,9.29-16.64.58-33.75,1.92-49.15-9.13-4.39,3.46-9.17,7.22-13.14,10.35,12.81,3.02,25.91,6.17,39.06,9.11,1.85.41,3.94-.19,5.91-.38,6.22-.6,12.14.16,18.32,3.58-4.91,5.52-9.65-1.07-14.18,1,4.14,1.89,8.15,3.71,12.52,5.7-3.01,4.08-5.76,1.21-8.22.57-2.62-.68-5.08-1.95-7.61-2.97-.16.39-.31.78-.47,1.17,4.55,1.96,9.1,3.93,13.65,5.89-.03.52-.07,1.03-.1,1.55-1.32.31-2.88,1.22-3.93.81-5.55-2.13-11.38-3.88-14.92-9.4-.72-1.13-2.54-1.91-3.97-2.16-10.82-1.91-21.7-3.47-32.48-5.56-3.18-.62-6.1-2.61-9.56-4.16-5.87,3.99-12.47,8.49-19.08,12.96-1.52,1.03-3.02,2.09-4.64,2.94-7.85,4.11-9.93,3.53-15.1-3.58-1.18-1.63-3.75-4.33-4.24-4.05-3.28,1.89-7.86.17-10.36,4.53-4.26,7.42-12.14,9.28-19.72,10.02-21.74,2.13-43.57,2.66-65.19-1.23-5.25-.94-10.52-3.32-15.07-6.18-6.9-4.33-6.37-10,.67-14.35,1.26-.78,2.61-1.43,4.23-2.3-.32-1.33-.65-2.7-.97-4.04.48-.2.8-.46,1.03-.4,6.11,1.44,14.54-2.8,16.84-8.71,4.73-12.11,5.18-12.47,14.98-5.37,9.48,6.86,18.71,3.15,28.11,2.63,7.93-.44,7.92-.86,10.43,6.47,1.47,4.31,5.55,4.98,8.52,3.91,7.32-2.65,15.24-3.03,22.05-8.13,6.92-5.18,15.64-7.87,23.23-12.25,5.79-3.34,11.04-7.62,16.53-11.48-.15-.44-.31-.88-.46-1.33-2.4,0-4.81-.04-7.21,0-19.98.39-39.95.79-59.93,1.19-.83.02-1.68-.06-2.5.04-3.4.41-6.71,2.9-9.11-2.83-1.23-2.95-6.66-3.14-9.92-.56-4.59,3.63-8.94,7.69-5.88,15.34,1.81-3.26,3.46-6.23,5.11-9.2.56.18,1.12.36,1.68.53-.21,2.76-.41,5.52-.62,8.28.31.1.61.19.92.29l3.41-8.04c.38-.02.76-.03,1.14-.05.61,2.21,1.23,4.42,2.14,7.69.7-2.06,1.22-3.27,1.52-4.53.29-1.23.37-2.51.57-3.93,3.02,2.03,3.43,6.27.48,10.2-1.05,1.4-3.81,1.51-5.81,2.21-4.5.33-8.51.63-12.53.93-.58-5.02-1.15-10.05-1.82-15.82-46.11.99-93.29,2-140.48,3,7.35,4.32,16.01,5.68,21.61,12.12-8.92,8.15-17.54,16.03-26.97,24.64,5.67,1.61,9.67,2.74,13.68,3.88-.11.49-.23.97-.34,1.46-1.33-.19-2.82-.05-3.95-.63-6.33-3.24-13.16-2.72-19.86-2.7-12.87.03-25.17-2.6-36.85-7.78-11.02-4.89-20.84-14.63-17.02-29.23h-32.7c-.56,4.45-1.05,8.3-1.62,12.75q-4.49-4.63.79-36.33c-5.27,1.14-10.49,2.75-15.82,3.29-4.73.48-9.65.18-14.35-.57-2.05-.33-4.68-2.31-5.44-4.19-1.15-2.84-2.61-3.23-5.23-3.18-3.82.08-7.66-.14-11.46-.56-6.76-.74-10.85-4.46-11.72-10.29-1.04-6.93,1.64-12.08,7.94-15,1.91-.89,3.93-1.54,6.28-3.48-2.75-.95-5.64-1.63-8.2-2.96-1.82-.95-3.18-2.79-4.74-4.23,1.4-1.4,2.57-3.28,4.25-4.1,2.2-1.07,2.84.76,4.18,2.56,2.83,3.84,6.82,6.83,10.41,10.08.32.29,1.24-.07,2.37-.17-1.42-4.63-2.6-9.27,1.59-12.83,4.5-3.82,8.74-.86,12.98,1.27-.12-6.72-2.6-9.34-8.23-9.5-1.6-.05-3.19-.82-4.78-1.26l-.09-1.48c1.67-.71,3.33-1.41,5.15-2.18.19-1.32.39-2.78.67-4.72,4.14-.77,8.3-1.66,12.5-2.23.79-.11,2.56,1.41,2.5,1.52-1,2.09-1.82,4.57-3.52,5.89-.92.71-3.42-.6-5.65-1.11-.24.28-1.32,1.55-2.94,3.43,6.81-2.7,5.21,3.68,7.32,5.59,4.62-2.53,9.05-5.42,13.85-7.41,2.96-1.23,6.52-1.6,9.76-1.45,8.01.35,10.68,5.23,8.12,14.05,4.55,2.3,6.47,1.21,8.54-4.03.68-1.71,2.37-3.55,4.04-4.16,1.08-.4,2.94,1.31,4.45,2.07-.84,1.42-1.35,3.31-2.59,4.16-2.12,1.45-4.69,2.25-8,3.74,2.32,1.48,3.78,2.41,5.24,3.34,6.94,4.45,9,11.31,4.16,17.96-3.88,5.33-9.23,9.6-13.34,13.74,2.74.71,6.94,1.39,10.75,2.99,1.71.72,2.65,3.28,3.93,5.01-2.11,1.03-4.15,2.72-6.33,2.94-2.68.26-5.48-.71-8.68-1.22.38,2.2.92,3.94.89,5.68-.02,1.29-.79,2.57-1.23,3.86-1.13-.49-2.52-.72-3.31-1.53-1.23-1.26-2.04-2.91-3.7-5.42-.69,6.07-1.29,11.32-1.98,17.37,2.43,0,4.36.03,6.28,0,7.49-.14,14.99-.29,22.48-.46,4.05-.09,7.72-.64,10.48-4.37,1.73-2.33,4.72-3.69,6.73-5.87,16.45-17.94,39.54-27.78,55.83-45.93,2.51-2.8,5.86-4.9,8.98-7.09,3.04-2.14,6.18-1.78,9.29.58-5.77-.89-9,2.72-12.29,6.37-16.65,18.41-35.88,33.58-57.15,46.38-5.08,3.06-9.42,7.95-12.95,12.83-4.54,6.29-.23,16.03,8.16,21.43,9.66,6.22,20.46,8.54,31.57,10.07,3.95.54,7.85,1.36,11.81,1.83,1.14.14,2.66-.13,3.5-.83,8.66-7.15,17.22-14.43,26.18-21.99-15.88-5.36-32.37-10.92-49.99-16.87,4.24,0,7.96-.76,11.2.15,8.45,2.37,14.33-1.24,19.95-6.8,6.87-6.78,13.97-13.33,21.09-19.84,1.78-1.62,4.05-2.71,6.09-4.04.39.41.77.83,1.16,1.24-8.95,9.45-17.91,18.89-27.77,29.29,25.58-.58,50.06-1.14,75-1.71-.92-14.97-1.81-29.28-2.69-43.58.56-.04,1.12-.08,1.68-.11,5.24,13.95,6.73,28.24,3.04,43.19,7.84,0,15.79.08,23.74-.1.97-.02,2.23-1.27,2.83-2.26,5.07-8.49,10.17-16.73,10.86-27.27.5-7.69,4.5-14.21,13.27-16.2,1.56-.36,3.19-2.29,3.98-3.89,5.47-11.02,10.73-22.15,16.06-33.24.25-.53.56-1.03.84-1.54.56.19,1.12.38,1.68.56-1.89,5.79-3.52,11.68-5.74,17.34-2.36,6.03-5.3,11.83-7.96,17.74-.34.75-1.05,1.91-.78,2.28,3.67,4.94.78,9.76.08,14.68-.26,1.81.23,4.04,1.14,5.66,4.33,7.73,9.33,15.22,4.91,25.41,9.39.15,11.12-10.42,19.6-10.96-.97,1.94-1.74,3.5-2.51,5.05.28.38.56.77.85,1.15.97-1.16,2.49-2.19,2.8-3.5.84-3.56,2.3-6.43,5.9-7.72,1.2-.43,2.59-.9,3.78-.7,9.58,1.63,17.64-1.28,24.87-7.56,13.43-11.68,21.62-26.49,26.49-43.53-6.13,7.06-13.22,12.43-22.59,14.68-6.81-8.9-13.52-17.67-20.23-26.43,6.35,2.66,17.76,15.28,19.7,20.71,1.43,4,3.7,3.58,5.87,1.25,6.68-7.19,13.19-14.53,19.61-21.95,2.38-2.75,4.32-5.89,6.93-9.5-1.3-1.1-2.64-2.24-3.94-3.34-2.61,1.2-4.93,2.6-7.45,3.28-1.07.29-3.7-1.04-3.66-1.43.47-4.63-1.2-7.66-5.45-9.74-.75-.37-.99-4.26-.26-4.75,7.21-4.9,14.78-2.46,22-.01,4.99,1.69,8.84,9.1,8.37,14.23-.04.43-.44.82-1.39,2.49-1.34-2.55-2.49-4.33-3.25-6.26-3.76-9.59-11.43-13.45-20.54-10.16-.83.3-1.52.98-3.59,2.35,3.79.24,6.27,0,8.48.65,1.98.58,3.66,2.15,5.82,3.5-2.13,1.78-3.72,3.12-5.31,4.45.17.27.35.53.52.8,2-1.22,4.01-2.44,6.4-3.9,1.13,1.3,1.98,3.21,3.29,3.61,5.76,1.73,6.06,4.51,1.32,8.8.44.24.88.48,1.32.72,2.81-1.37,5.62-2.74,8.44-4.1,5.13-2.47,7.92-1.04,8.76,4.58,1.68,11.23.7,22.17-3.36,32.84-1.84,4.84-3.31,9.83-4.82,14.36-2.97-1.07-4.78-1.71-6.58-2.36-.65,2.12-1.31,4.24-1.96,6.37.32.11.65.23.97.34.54-1.49,1.09-2.97,1.8-4.94,1.36,1.08,2.44,1.95,3.95,3.15-5.3,7.96-10.45,15.69-15.31,22.98-2.13-.72-3.96-1.58-5.85-1.77-.39-.04-1.04,2.42-1.56,3.71,1.63-.6,2.7-.99,3.76-1.38.19,1.53.78,3.15.45,4.57-.29,1.28-1.58,2.33-2.87,4.09,6.94,0,13.22.3,19.41-.24,1.31-.11,2.87-3.17,3.42-5.13,3.42-12.23,7.25-24.33,15.13-34.49,2.61-3.37,6.34-6.55,10.24-8.09,6.81-2.69,13.94-5.64,21.66-2.9.58.21,1.7-.25,2.17-.77,2.39-2.62,4.65-5.37,7.8-9.05-9.07-.42-17.19-.05-22.02-7.27-1.58-2.36-1.45-5.85-2.16-9.07,7.05-1.89,15.21,2.34,19.48-6.32-9.08,2.48-14.63-4.8-21.81-7.23-1.89-.64-2.83-4.08-4.21-6.24,1.97-1.06,3.99-2.04,5.89-3.22,1.14-.71,2.33-1.56,3.07-2.65.99-1.47,1.57-3.22,2.46-5.15,2.25,6.22.05,10.5-6.14,12.68,2.46,4.62,11.94,8.12,18.68,7.21,1.91-.26,5.51.12,5.66.81.52,2.37.61,5.38-.47,7.46-2.87,5.52-8.4,6.59-14.07,6.87-1.47.07-2.95-.11-4.47-.18,1.13,8.46,6.32,9.34,26.64,4.9,0-7.69.03-15.29-.01-22.88-.02-3.87,1.16-8.69-.69-11.34-1.8-2.57-6.81-2.83-10.37-4.23-5.23-2.05-10.41-4.21-15.56-6.3,3.21-12.19,17.07-20.72,28.25-16.8-10.74,1.81-18.99,6.19-24.41,15.85,4.47,2.11,4.66-2.53,6.6-3.83,2.33-1.55,4.45-3.41,7.47-4.41-2.64,3.08-5.28,6.16-8.2,9.57,1.71.7,2.88,1.18,3.88,1.59,2.31-2.75,4.45-5.3,6.6-7.85.34.23.69.46,1.03.69-1.2,2.56-2.41,5.12-3.82,8.1,1.79.68,3.09,1.18,4.39,1.68.94-2.06,1.74-3.8,2.5-5.47.6,2.76,1.16,5.3,1.72,7.85.6-.03,1.2-.06,1.81-.09.94-2.85,1.89-5.69,2.83-8.54-1.9,26.99-.14,53.04,16.28,76.06-7.69-21.94-13.81-44.07-8.76-67.67,0,2.16.02,4.31,0,6.47-.02,2.16-.2,4.33-.11,6.49.87,19.9,6.66,38.53,14.13,56.85,3.64,8.92,8.79,15.85,18.32,20.2-12.88-28.05-24.46-55.96-21.75-87.31,1.49,9.21,2.42,18.56,4.59,27.61,5.73,23.92,14.42,46.72,28.25,67.26.97,1.45,4.16,2.93,5.43,2.37,4.27-1.88,8.64-4.14,11.97-7.3,2.39-2.26,2.17-5.62-2.01-7.52-20.1-9.11-28.93-26.58-33.77-46.69-2.52-10.48-4.32-21.13-6.52-31.68-2.24-10.76-8.83-18.41-17.66-24.43-.62-.42-1.19-.93-1.52-1.72,9.43,2.2,16.95,7.73,20.42,16.41,4.09,10.25,6.11,21.33,9.18,32,2.29,7.97,4.68,15.92,7.35,23.77.55,1.61,2.31,3.37,3.92,3.97,16.54,6.18,31.56,15.09,45.29,26.01,6.69,5.32,12.23,12.07,18.46,18,1.01.97,2.85,1.5,4.31,1.5,13.8-.06,27.6-.22,41.4-.54,1.38-.03,2.91-1.15,4.06-2.13,3.4-2.92,6.42-6.33,10.03-8.92,1.52-1.09,4.16-.61,6.28-.84-.17,2.13-.07,4.34-.61,6.37-.41,1.51-1.66,2.8-3.13,5.14,4.71-.31,8.86,2.02,12.06-2.62.58-.84,1.94-1.52,2.98-1.59,10.57-.67,21.15-1.25,31.74-1.66,1.09-.04,2.22,1.22,3.33,1.87-10.83-.67-21.55-.28-31.97,3.19,9.86,3.59,19.82,2.99,29.72.71.95-.22,1.4-2.66,2.07-4.07,1.55.98,3.1,1.95,4.64,2.93-1.26,1.56-2.22,3.98-3.83,4.54-9.3,3.23-18.9,3.35-28.53,1.66-2.94-.52-5.82-1.31-8.73-1.98-2.73,11.54,5.62,23.36,17.59,24.56,3.9.39,8.02,0,11.87-.83,6.11-1.3,8.44-4.46,9.25-10.84.42-3.32.97-6.63,1.47-9.95.45-.02.89-.03,1.34-.05.58.89,1.05,1.88,1.76,2.66.79.87,1.75,1.62,2.74,2.25.15.09,1.37-.98,1.3-1.15-.44-.97-1.02-1.94-1.76-2.7-.43-.44-1.26-.48-1.51-1.16,4-1.2,6.88-.32,7.4,3.6.7,5.33-3.53,5.9-7.27,6.6-2.95,14.27-11.23,16.43-24.1,16.09-15.56-.41-20.09-6.28-22.96-27.75-9.6-2.48-14.34-1.02-19.22,5.3.85,2.91,1.36,5.24,2.21,7.44,1.21,3.13,2.08,6.67,4.15,9.16,7.27,8.73,5.37,19.68-5.01,24.37-14.3,6.46-28.85,5.56-43.22.18-5.41-2.03-8.26-7.96-6.95-12.88,1.86-6.97,6.76-11.59,11.74-11.08.3,0,.6,0,.88.09.08.02.19.34.14.4-1.64,1.84-3.42,3.57-4.93,5.5-5.24,6.72-3.99,12.29,4.19,14.23,7.81,1.85,16.08,2.95,24.05,2.55,5.26-.27,10.76-3.12,15.4-6.01,4.4-2.74,4.54-7.28,2.17-11.9-2.22-4.33-4.26-8.76-6.48-13.36-10.23,3.11-20.97,5.88-31.94,3.63-1.3,1.84-2.4,3.41-3.51,4.98-.3-1.07-.56-2.15-.91-3.2-1.9-5.69.68-9.85,6.58-10.61,5.13-.66,10.25-1.35,15.38-2.03.1.58.2,1.15.3,1.73-6.01.96-12.02,1.91-18.03,2.87.09.69.18,1.38.27,2.07,6.34-1.04,12.67-2.08,19.96-3.28,1.12-2.34,2.72-5.72,4.74-9.95-4.75,0-8.68-.04-12.6,0-8.47.1-16.95.31-25.42.33-2.73,0-3.92.87-3.69,3.79.98,12.56-5.97,21.45-14.41,29.26-4.61,4.27-10.53,5.45-16.75,3.08-3.84-1.46-7.71-2.83-12.87-4.73-1.75,1.92-4.31,4.75-6.88,7.58-.21.31-.42.62-.63.93ZM596.44,457.46c-3.87,5.32-6.89,9.46-9.9,13.61,6.47-1.43,7.35-9.18,14.61-10.43-.74,3.28-1.29,5.73-1.84,8.17,2.12-.72,3.12-2.15,4.39-3.26.99-.86,2.32-1.34,3.49-1.99.24,1.35.71,2.7.67,4.03-.05,1.56-.54,3.1-.84,4.65,1.82-1.55,2.27-3.62,3.37-5.25.51-.76,2.29-.67,4.41-1.2-.55-1.5-.89-4.3-2.39-6.16-6.55-8.14-15.96-9.03-25.6-8.97.2-2.11.36-3.83.57-6.08-4.41,1.27-9.26-1.99-11.42,1.63-5.78-.22-10.74-.61-15.7-.55-23.29.28-46.59.67-69.88,1.14-1.22.02-3.22.93-3.5,1.84-1.13,3.72-1.74,7.6-2.62,11.79,3.27-.68,6-1.51,8.77-1.75,2.94-.25,4.55-.96,4.39-4.43-.17-3.61,2.35-4.23,5.07-2.84,2.62,1.34,4.96,3.25,7.57,5,1.17-1.37,2.16-2.98,3.56-4.06,2.67-2.07,5.86-2.84,7.42.96,1.34,3.27,2.84,2.59,5.36,1.86,2.57-.74,6.26-1.82,7.94-.62,3.92,2.8,8.03,2.12,12.15,2.57,3.57.39,7.11,1.03,10.66,1.56-4.98.82-9.85.54-14.72.29-3.03-.15-5.43.11-7.71,3.09-5.73,7.45-20.52,9.05-28.29,3.65-8.14-5.65-21.3-3.86-26.42,3.59,8.83,12.24,69.05,7.5,85.88-1.93-.6-1.1-1.2-2.19-2.57-4.68,4.56.9,7.91,1.56,10.69,2.1,4.4-3.85,8.85-7.74,13.3-11.63.29.32.58.65.87.97-3.57,4.31-7.15,8.62-10.72,12.94.35.28.71.56,1.06.84,5.73-3.03,8.77-10.69,17.9-10.45ZM375.15,474.8c-2.49,0-4.46-.04-6.43,0-8.31.2-16.62.47-24.93.62-1.23.02-2.75-.07-3.65-.75-2.39-1.8-4.41-4.1-6.82-5.86-.67-.49-2.75-.17-3.26.49-1.68,2.15-2.93,4.62-4.62,7.45h8.94c.12.66.24,1.32.35,1.98-7.14,1.82-14.29,3.64-22.4,5.71,5.97,5.14,11.25,9.69,17.24,14.85v-6.42l1.03-.39c1.83,3.61,3.66,7.22,5.52,10.9,6.95-2.53,6.84-2.5,4.51-9.77-1.69-5.24-3.05-10.59-4.55-15.9.62-.22,1.24-.44,1.87-.66,3.43,8.34,7.23,16.55,10.1,25.08,1.17,3.49,2.75,4.09,5.66,3.55,7-1.3,13.98-2.67,21.45-4.1v-26.78ZM383.37,491.5l.25,1.41c7.4-1.93,14.8-3.87,22.2-5.8.18.58.35,1.17.53,1.75-2.47,1.42-4.94,2.83-8.33,4.78,1.34.87,2.26,1.33,3,1.98,3.87,3.38,6.5-.35,9.13-2,.74-.46.35-4.17-.64-5.64-2.27-3.39-5.22-6.32-7.37-8.83-7.89,1.36-15.1,2.61-22.63,3.9v7.59c4.04-1.69,7.73-3.23,11.42-4.77.12.28.25.56.37.84-2.64,1.6-5.29,3.19-7.93,4.79ZM330.03,505.75c-4.33-4.06-8.62-8.17-13.01-12.18-4.91-4.48-6.98-4.48-12.38-.43-2.8,2.1-3.08,3.87-.07,6.23,7.4,5.78,16.21,6.26,25.45,6.38ZM115.47,398.64c-.07-.44-.13-.89-.2-1.33-1.43-.49-2.82-1.18-4.28-1.4-1.55-.24-3.82-.69-4.64.11-2.93,2.87-6.34,5.16-5.81,10.67.6,6.21,6.28,8.93,8.93,8.64,4.39-.49,8.59-4.55,12.36-7.7,1.21-1.01,1.09-3.93,1.04-5.97-.02-1-1.11-2.54-2.01-2.8-1.02-.3-3.39.52-3.41.93-.1,2.23.34,4.48.6,6.73-.3-.22-.6-.44-.9-.67-1.35,1.78-2.71,3.57-3.61,4.77-2.41-.23-4.53-.44-7.05-.69-1.14-1.94-2.65-4.5-4.67-7.92,2.89.19,4.21.28,5.49.37v-4.44c1.31.31,2.6.78,3.93.89,1.4.12,2.82-.11,4.23-.19ZM378.11,507.92c7.08-2.3,13.08-3.97,18.81-6.31,1.26-.52,2.31-3.52,2.04-5.14-.19-1.12-2.92-2.72-4.34-2.56-4.87.56-9.67,1.8-14.76,2.83-.46,2.97-.97,6.19-1.75,11.18ZM516.27,377.85c-.55-.27-1.1-.53-1.66-.8-3.5,5.75-7,11.49-10.51,17.24.19.47.38.95.57,1.42,6.17-.66,12.35-1.33,18.39-1.98-2.52-5.9-4.66-10.89-6.8-15.88ZM53.71,415.4c0-2.28-.71-4.73.21-5.83.83-.99,3.42-.51,5.91-.74-.56-.86-.98-2.27-1.88-2.75-4.17-2.18-6.15-1.15-6.95,5.75-.42,3.55,1.29,7.95,3.5,10.86.76,1.01,5.96-1.27,9.09-2.19.9-.27,1.67-1.01,2.49-1.56,2.31-1.55,2.16-10.62-.33-11.85-.77-.38-2.02.21-2.65.3.51,3.18.94,5.87,1.44,8.98-2.5,1.47-5.43,3.2-7.53,4.44-1.59-2.63-2.49-4.1-3.28-5.41ZM89.9,422.83c1.32-8.65,2.49-17.32,4.08-25.92.34-1.82,2.35-3.27,3.37-5.03.76-1.3,1.49-2.78,1.58-4.22.04-.64-2.06-2.11-2.31-1.94-1.19.82-2.15,2.03-3.03,3.21-.35.47-.14,1.34-.44,1.88-5.85,10.25-4.7,21.15-3.25,32.01ZM327.99,445.46c-2.44-4.11-4.37-7.35-6.37-10.72-1.94,1.93-3.53,3.39-4.96,4.99-1.44,1.62-2.72,3.39-4.58,5.73h15.91ZM85.69,419.9c.52-1.8.93-2.53.91-3.25-.23-10.3-4.72-18.91-10.88-26.78-.48-.62-2.29-.9-2.95-.49-.77.48-1.4,1.96-1.26,2.88.12.87,1.2,1.99,2.08,2.24.88.25,2.02-.43,4.01-.96,2.61,8.5,5.16,16.83,8.09,26.36ZM92.76,377.21c-.4.25-.8.51-1.21.76.85,1,1.52,2.34,2.59,2.92,1.49.8,3.25,1.2,4.95,1.46,2.42.37,4.94.82,7.3.47.92-.13,1.96-2.26,2.16-3.6.12-.84-1.22-1.89-2.7-3.95v3.58c-2.02.28-3.86.53-5.7.79l-.55-1.14c1.65-.76,3.3-1.52,5.94-2.74-1.66-1.04-2.81-2.3-3.99-2.33-1.03-.03-2.44,1.12-3.08,2.13-1.54,2.41-2.83,4.68-5.71,1.64ZM439.44,391.83c.42.31.85.61,1.27.92,1.3-2.28,2.77-4.48,3.79-6.88.32-.76-.27-2.45-.98-2.95-.65-.46-2.14-.16-3.07.24-2.41,1.05-4.72,2.35-8.12,4.08-.89,3.44,1.91,5.6,5.88,7.04-.91-1.27-1.83-2.54-2.44-3.4,2-1.59,3.71-2.97,6.01-4.8-.93,2.29-1.64,4.02-2.34,5.75ZM408.45,438.01c.56.37,1.13.74,1.69,1.11,1.42-2.88,2.83-5.75,4.25-8.63-2.64-.92-5.23-2.05-7.94-2.62-.83-.17-2.52.98-2.9,1.91-1.45,3.57-.57,6.69,2.75,9.38-.51-2.95-.96-5.52-1.33-7.65,2.79.3,4.84.52,7,.76-1.14,1.86-2.33,3.8-3.52,5.74ZM428.7,418.55c.56.13,1.12.26,1.67.39.51-2.66,2.13-5.76,1.29-7.89-1.48-3.73-3.6-.14-5.42.62-.29.12-.63.13-.96.19-4.29.7-5.02,2.17-2.49,5.71,1.13,1.59,2.83,2.77,4.27,4.14.14-.17.28-.34.43-.51-1.21-1.82-2.42-3.64-3.33-5,2.04-1.04,3.59-1.83,5.13-2.61-.19,1.56-.39,3.26-.6,4.97ZM330.38,414.38c-4.36,8.09-1.56,21.42,5.14,24.85-1.56-3.98-3.58-7.67-4.39-11.61-.85-4.13-.54-8.49-.76-13.24ZM605.29,434.2c-8.93.68-15.37,5.09-15.54,9.7,5.29-3.3,10.42-6.5,15.54-9.7ZM447.18,368.78c2.64-.33,4.59-.58,6.83-.86-.48,1.86-.92,3.57-1.62,6.29,3.41-2.78,5.75-5.66,2.91-8.09-1.76-1.5-5.73-.74-8.61-.34-.53.07-.71,3.25-.87,5.01-.03.31.81.71,1.8,1.51-.23-1.83-.36-2.9-.43-3.52ZM80.1,428.55c.45-.12.9-.24,1.35-.36.48-7.07-2.61-13.03-6.5-18.74,1.72,6.37,3.43,12.73,5.15,19.1ZM383.62,443.31h10.23c1.03-2.59.84-4.46-3.11-3.92-1.07.15-2.27.51-3.22.2-4.91-1.61-4.35,1.2-3.9,3.72ZM73.16,399.79c-1.39,2.09-2.91,3.72-2.64,4.11,1.03,1.48,2.55,2.7,4.12,3.64.22.13,2.61-2.17,2.39-2.69-.65-1.59-2.08-2.85-3.87-5.06ZM336.65,505.85c.06.44.11.88.17,1.32h9.07c-.97-1.7-1.71-2.99-2.45-4.29-2.64,1.16-4.71,2.06-6.79,2.97ZM336.55,421.94c.72,6.3,3.38,10.99,8.69,14.04-2.81-4.55-5.63-9.09-8.69-14.04ZM676.47,447.31c.36.31.72.62,1.08.93,3.36-3.83,6.73-7.66,10.09-11.5-.39-.34-.78-.67-1.17-1.01-3.33,3.86-6.67,7.72-10,11.57Z"/><path class="cls-3" d="M245.18,364.09c-2-.82-5.39-1.29-5.69-2.53-.59-2.4.55-5.23,1.13-8.84-4.51-4.96-4.71-11.12.07-17.67.92-1.26,1.4-3.24,1.24-4.81-.73-7.19,1.99-11.07,8.93-12.56,1.52-.33,2.91-1.32,4.34-2.04,2.8-1.42,5.45-3.29,8.4-4.22,6.18-1.94,10.38.91,11.46,7.26.15.91.28,1.82.36,2.31,4.07-1.09,7.81-2.79,11.62-2.96,7.41-.32,10.77,5.57,7.25,12.08-2.8,5.2-7.02,7.92-13.21,8.16-8.11.32-16.21,1.23-24.27,2.27-1.54.2-3.36,1.9-4.16,3.38-1.06,1.96-1.26,4.39-1.91,6.95,1.88.46,3.59.87,5.3,1.29.05.29.11.59.16.88-2.78.55-5.63.9-8.33,1.72-2.23.68-4.3,1.92-6.44,2.91,1.33,1.66,2.67,3.32,4,4.99l-.26,1.42ZM269.8,329.23c3.32,3.61,6.47,3.39,13.54-2.08-4.21,1.25-7.12,2.11-10.03,2.98-.75-1.66-1.32-2.93-2.04-4.53-2.63,1.41-4.98,2.66-8.08,4.32.99-3.41,1.72-5.93,2.46-8.46-.43-.24-.86-.49-1.29-.73-2.54,2.36-5.08,4.73-7.61,7.09.21.27.42.54.63.82,1.53-1.06,3.06-2.12,4.08-2.83.28,1.78.58,3.72.89,5.67,2.28-.69,4.55-1.37,7.46-2.25Z"/><path class="cls-3" d="M242.09,492.5c-5.91-3.28-13.13,3.09-18.71-1.88l.02-1.71c5.01-.7,10.02-1.41,15.03-2.11-.02-.71-.04-1.42-.06-2.13-5.2-.39-10.4-.78-15.6-1.17-.03-.9-.05-1.79-.08-2.69,4.83-.78,9.65-1.57,14.48-2.35,0-.42,0-.84,0-1.26-1.29.08-2.6.32-3.87.18-1.46-.16-2.88-.64-4.32-.99.79-1.48,1.23-3.66,2.45-4.28,2.37-1.19,5.18-1.49,7.69-2.94h-9.87c.07-.22.09-.74.25-.79,9.54-2.85,16.86-11.88,28.02-10.13,5.57.87,11.17,1.69,16.66,2.95,3.92.9,6.29,2.87,6.61,7.85.37,5.74,2.39,11.28.16,17.15-3.03,7.97-12.13,15.09-20.51,15.03-2.07-.02-4.19-1.51-6.18-2.53-4.16-2.14-7.47-5.49-13.19-1.96-3.71,2.29-9.22,2-13.94,2.13-1.86.05-3.78-1.9-5.49-3.77,7.13.63,14.03,1.63,20.45-2.59ZM240.27,469.11c.97,4.62,1.39,8.09,2.44,11.35,2.48,7.66,6.75,13.47,15.47,15.07,6.9,1.26,11.56-2.28,15.7-6.61,5.42-5.67,5.1-12.9,4.54-20.36-12.58,2.88-24.8,6.57-38.16.55ZM264.75,461.21c-7.19-.74-13.82.41-19.83,4.35,6.61-1.45,13.22-2.9,19.83-4.35Z"/><path class="cls-3" d="M581.94,483.6c.21-.31.42-.62.63-.93,7.63-3.99,12.09.87,10.52,7.88,2.3-1.27,4.21-2.32,6.11-3.37,3.84,6.96.1,16.81-7.89,19.95-12.92,5.07-26.08,4.82-38.98-.04-5.97-2.25-7.8-8.03-8.56-13.71-.19-1.4,2.41-3.46,4.09-4.75,2.27-1.74,5-2.89,7.33-4.56,2.38-1.71,4.84-3.9,7.42-1.15,2.49,2.66,3.03,5.9-.32,8.73-.98.83-1.75,1.9-2.47,3.23,5.9-2.18,11.07-11.96,18.68-1.2,1.17-3.43,2.31-6.75,3.44-10.07ZM598.22,494.14c-16.95,4.8-33.56,5.47-50.45,2.08,6.48,13.77,39.66,12.56,50.45-2.08Z"/><path class="cls-3" d="M372.99,383.37c3.45.4,6.9.8,10.35,1.2-10.46,3.3-10.57,3.29-12.06,13.96-.47,3.37-2.9,6.95.28,10.31.14.15-.4.84-.4,1.27,0,2.4-.84,5.82.38,6.95,1.49,1.37,4.76.82,8.08,1.19.3.88,1.04,3.01,1.94,5.63-1.54.52-3.07,1.62-4.2,1.31-8.89-2.44-18.36-3.83-23.71-12.97-3.23-5.53-2.95-14.21.84-19.39,2.82-3.85,5.18-8.04,8.06-11.85,1.19-1.58,3.73-3.91,4.71-3.53,2.43.96,4.31,3.29,6.41,5.08l-.68.83Z"/><path class="cls-3" d="M357.21,356.26c-.07,1.07-.15,2.13-.25,3.58-10.08.26-15.36-8.32-22.67-12.45-2.35,3.75-4.59,7.34-6.83,10.93-.4-.24-.79-.48-1.19-.71,2.58-4.94,3.08-10.76,8.6-14.46,2.26-1.52,3.19-5.24,4.35-8.11,1.18-2.9,1.62-6.11,2.94-8.93.75-1.61,2.44-3.38,4.04-3.79,1.11-.29,2.78,1.62,4.45,2.71,2.66-2.64,5.44-2.35,6.77,3.13,2.12-.98,3.82-2.09,5.68-2.53,1.43-.34,3.73-.39,4.42.45.73.87.44,3.18-.2,4.46-.93,1.87-2.58,3.39-3.92,5.06-.9,1.12-1.81,2.25-3.2,3.97,5.18,0,9.47-.27,13.71.12,2.1.19,4.43,1.23,5.94,2.65.6.57-.25,4.18-1.29,4.69-2.3,1.14-5.17,1.69-7.75,1.55-2.38-.13-4.69-1.48-7.03-2.3-.19.52-.38,1.03-.58,1.55,1.71.73,3.42,1.44,5.12,2.19,2.41,1.06,5.15,1.74,7.11,3.34,2.37,1.94,1.89,4.86-1.34,4.83-5.66-.05-11.31-1.18-17-1.85-.59-.75-1.15-1.51-2.18-2.91,5.57.68,10.14,1.23,14.72,1.78-3.42-2.82-8.42-3.03-9.08-9.26,5.12-.44,9.97-.85,14.81-1.27-.09-.55-.18-1.1-.27-1.65h-20.31c3.36-4.55,6.4-8.67,9.44-12.79-.52-.42-1.05-.85-1.57-1.27-3.79,4.14-7.59,8.28-11.9,12.98-3.33-5.8,3.47-9.72,2.11-15.95-2.61,5.26-4.74,9.54-6.86,13.82-.43-.17-.86-.35-1.3-.52v-8.84c-2.81,5.02-5.49,9.81-8.24,14.73,1.22.81,2.38,1.75,3.68,2.42,5.67,2.93,11.38,5.77,17.07,8.65Z"/><path class="cls-3" d="M141.8,511.26c-8.68-.05-14.03-2.97-18.83-7.46-3.37-3.16-2.97-7.12-1.93-10.5.52-1.7,4.13-2.47,6.38-3.6,1.02-.51,2.46-.6,3.1-1.38,2.06-2.51,4.47-1.92,7.28-2.25,4.66-.55,8.35,1.08,12.49,2.01,7.38,1.67,10.81,10.3,5.85,15.93-4.28,4.85-9.98,6.89-14.33,7.25ZM123.51,498.66c4.97,6.01,11.43,8.84,19.37,7.1,4.36-.95,8.51-2.83,10.28-7.1h-29.65Z"/><path class="cls-3" d="M279.6,389.66c-5.54,1.24-11.08,2.48-16.28,3.64-2.43-1.24-5.31-2.7-8.18-4.16-.02-.4-.04-.81-.06-1.21,2.62-.39,5.23-.82,7.86-1.15,4.78-.61,9.62-.85,14.32-1.82,4.51-.92,7.72-3.6,8.24-9.4-2.2.87-3.9,1.7-5.69,2.21-8.74,2.48-20.27-4.05-22.71-12.81-1.23-4.39.39-6.26,5.04-5.32,9.3,1.87,17.58.02,25.07-6-5.76-3.7-10.04-3.2-14.25,1.24-2.96,3.12-6.43,4.78-10.74,2.62-3.47-1.74-4.87-4.8-3.73-8.27.69-2.08,3.06-5.32,4.33-5.16,3.66.44,7.68,1.63,10.58,3.83,3.93,2.98,10.47,2.47,13.07-3.31-3.19.46-5.62.81-7.82,1.13.92-3.27,3.14-5.16,6.06-4.45,3.32.8,5.11,2.97,5.01,6.49-.03.97-.59,2.17-.2,2.86,2.95,5.17-1.25,6.91-4.43,8.01-7.44,2.56-15.13,4.4-23.47,6.74,1.65,3.76,5.34,6.94,9.92,7.89,4.55.95,9.46.21,14.44.21,2.79,6.12,1.75,10.03-4.01,14.04-.92.64-1.66,1.51-2.49,2.27l.13-.12ZM271.94,349.12c-.95-.9-2.07-2.41-3.56-3.27-3.05-1.77-5.54-.41-7.11,2.34-1.5,2.62-1.33,5.32,1.74,6.72,2.41,1.09,5.13,2.12,6.02-2.17.25-1.21,1.71-2.18,2.92-3.61Z"/><path class="cls-3" d="M258.25,440.14v-36.83c-.38-.02-.76-.03-1.14-.05-.88,3.58-1.54,7.22-2.69,10.71-1.05,3.17-4.03,5.16-6.52,2.7-5.23-5.16-9.71-11.09-14.34-16.83-.53-.66-.07-2.13-.07-4.41,5.46,6.4,10.26,12.02,15.07,17.65.56-.19,1.12-.38,1.68-.57.47-3.53,1.16-7.05,1.27-10.6.03-1.04-1.5-2.23-2.49-3.17-3.21-3.05-6.64-5.89-9.67-9.1-1.04-1.11-1.17-3.08-1.57-4.26,7.04,4.22,13.96,8.36,21.61,12.94.47,2.57,1.18,6.44,1.95,10.66,6.42-4.57,8.6-12.83,16.29-15.55,1.02,5.9-11.13,20.14-17.69,21.4v25.31c-.56,0-1.13,0-1.69,0Z"/><path class="cls-3" d="M83.1,465.91c-3.24,2.7-6.24,4.79-8.73,7.37-4.49,4.65-4.11,9.51.7,13.84,8.75,7.87,27.59,5.85,34.03-4,1.16-1.78.97-5.06.26-7.28-.77-2.38-2.89-4.32-4.5-6.57,6.77-.89,12.96,5.55,11.17,11.97-.93,3.34-2.98,6.78-5.47,9.21-7.7,7.53-23.68,9.74-33.25,4.73-4.87-2.55-9.45-5.86-10.63-11.83-1.74-8.75,6.11-17.31,16.43-17.44Z"/><path class="cls-3" d="M279.47,389.79c3.54,2.96,7,6.01,10.64,8.84,2.64,2.05,5.02,2.45,7.46-.92,6.34-8.74,13.02-17.23,19.56-25.81.97-1.27,1.96-2.54,2.94-3.8.48.29.97.57,1.45.86-3.77,6.83-7.23,13.85-11.4,20.42-3,4.72-7.18,8.67-10.38,13.28-2.51,3.62-5.79,3.71-8.65,1.89-5.48-3.5-10.2-7.97-11.49-14.88,0,0-.13.12-.13.12Z"/><path class="cls-3" d="M384.96,384.03c1.75-1.7,3.49-4.72,5.27-4.75,1.95-.03,4.55,2.32,5.81,4.3,3.86,6.08,1.02,15.49-5.6,19.94-1.05.71-2.11,1.39-3.25,2.15,4.51,3.89,9.96,3.1,14.51-1.6,1.14-1.17,2.8-1.84,4.23-2.74.47,1.81,1.48,3.66,1.33,5.42-.57,6.66-4.18,10.12-10.88,10.76,2.32-2.52,4.58-4.83,6.65-7.3.57-.68.57-1.83,1.31-4.48-8.14,7.15-15.39,9.14-21.93.59,3.45-3.2,7.15-6.15,10.21-9.65,2.43-2.77,3.64-6.15,1.98-10.16-2.66-6.4-4.06-6.78-8.51-1.64-.37-.28-.75-.56-1.12-.85Z"/><path class="cls-3" d="M64.29,425.45c.02,12.43-13.26,21.33-22.64,17.29-3.55-1.53-4.23-3.56-.72-5.47,7.35-4,14.93-7.59,23.36-11.83Z"/><path class="cls-3" d="M311.63,459.89c-2.82,0-5.7-.33-8.46.1-2.58.4-5.2,1.28-7.51,2.51-3.37,1.8-9.62,1.55-12.13-1.23-.88-.98-1.71-2.77-1.39-3.84.31-1.01,2.06-1.87,3.34-2.23,1.21-.35,2.78-.35,3.92.14,8.57,3.61,17.17,1.33,25.78.36,2.64-.3,5.32-.77,7.94-.58,1.52.11,2.95,1.37,4.42,2.11-1.49.96-2.91,2.58-4.48,2.75-3.77.41-7.62.13-11.44.13,0-.07,0-.14,0-.22Z"/><path class="cls-3" d="M80.9,465.19c-1.69-2.52-3.19-3.87-3.58-5.49-1.27-5.17-4.88-5.3-9.14-5.19-8.46.21-16.93.06-25.4.06,0-.4,0-.81-.01-1.21h31.93c-2.95-8.37-5.52-15.66-8.26-23.41,6.15,4.86,15.49,26.91,14.47,35.24Z"/><path class="cls-3" d="M723.06,423.02c-1.99-4.01-3.89-8.03-5.98-11.96-2.83-5.31-2.28-8.77,2.66-13.07,2.06-1.79,4.49-3.15,7.33-3.99-.68.78-1.32,1.6-2.06,2.32-7.39,7.33-7.45,8.41-.9,16.35,3.47,4.21,2.77,8.41-1.06,10.35Z"/><path class="cls-3" d="M386.3,362.48c9.07-7.89,16.69-17.68,27.67-23.02.57.75,1.14,1.5,1.71,2.25-8.54,8.56-19.13,14.47-29.38,20.78Z"/><path class="cls-3" d="M491.6,348.02c3.7-7.51,8.77-9.84,13.19-6.07,1.57,1.34,2.3,3.81,3.06,5.9.2.55-.73,1.97-1.44,2.25-.62.25-2.24-.35-2.42-.9-2.18-6.72-5.93-4.6-9.9-1.94-.6.4-1.43.46-2.5.78Z"/><path class="cls-3" d="M755.57,438.45h27.2c-8.99,2.85-18.07,2.51-27.18,1.22,0-.41-.02-.81-.03-1.22Z"/><path class="cls-3" d="M245.03,365.58c2.16,7.24,1.35,14.44-1.49,21.61v-21.63c.5,0,.99.01,1.49.02Z"/><path class="cls-3" d="M731.99,425.24c3.04-4.23,4.37-8.49-.38-12.8.79-.22,1.58-.44,2.37-.66,1.49,2.76,3.87,5.43,4.15,8.31.19,1.97-2.56,4.21-4,6.34-.71-.4-1.43-.8-2.14-1.19Z"/><path class="cls-3" d="M382.69,394.81c-1.93-1.17-3.1-1.88-4.27-2.59.15-.37.3-.74.45-1.11,2.03.87,4.43,1.36,5.93,2.78.71.67.28,3.84-.68,4.68-1.66,1.44-4.13,1.94-6.26,2.83-.3-.56-.6-1.11-.89-1.67,1.71-1.48,3.43-2.95,5.72-4.92Z"/><path class="cls-3" d="M83.48,473.7c-.36,4.35-.66,7.95-.95,11.54-.35.2-.7.41-1.05.61-.92-1.19-2.47-2.3-2.62-3.58-.4-3.38.41-6.52,4.62-8.57Z"/><path class="cls-3" d="M402.43,370.85c-3.02-2.9-6.03-5.81-9.05-8.71.43-.46.87-.91,1.3-1.37,3.15,2.75,6.29,5.49,9.44,8.24-.56.61-1.13,1.22-1.69,1.84Z"/><path class="cls-3" d="M138.89,413.1c-1.83,1.52-3.04,2.82-4.53,3.54-.39.19-1.67-1.48-2.54-2.29,1.35-1.18,2.62-2.5,4.13-3.41.32-.19,1.54,1.11,2.93,2.17Z"/><path class="cls-3" d="M408.24,364.11c1.89,2.09,3.78,4.17,5.68,6.26-.57.55-1.14,1.1-1.71,1.65-3.94-.02-3.96-3.99-5.38-6.54.47-.46.95-.91,1.42-1.37Z"/><path class="cls-3" d="M547.77,466.29c-3.14,4.31-5.13,4.59-8.46.24,2.98-.65,5.51-1.2,8.05-1.75.14.5.28,1.01.42,1.51Z"/><path class="cls-3" d="M359.5,478.64c.38,3.14.76,6.28,1.14,9.42l-2.34.28c-.26-3.14-.51-6.27-.77-9.41.65-.1,1.31-.19,1.96-.29Z"/><path class="cls-3" d="M369.84,494.01v-13.98c.22-.03.45-.05.67-.08.44,4.67.87,9.34,1.31,14.01-.66.02-1.32.03-1.97.05Z"/><path class="cls-3" d="M352.51,478.53c.99,3.36,1.98,6.72,2.97,10.08-.74.2-1.49.4-2.23.6l-2.34-10.33c.53-.12,1.07-.23,1.6-.35Z"/><path class="cls-3" d="M651.84,469.11h28.25c-4.37,5.57-19.34,5.78-28.25,0Z"/><path class="cls-4" d="M142.75,145.47l-.13-1.57c.08.47.17.93.26,1.38l.63,3.13h82.78v-21.32h-35.79l30.56-28.5-21.43-23.46-2.76,1.74c-1.57.99-3.05,1.99-4.48,2.95-2.89,1.95-5.61,3.79-8.42,5.07-2.23,1.01-5.43,1.96-8.07.73-2.68-1.25-4.03-4.37-4.7-6.76-3.98-14.37,6.33-38.88,19.36-46,2.46-1.35,6.02-2.7,8.98-1.48,2.74,1.13,4.17,4.21,4.89,6.6,1.06,3.55,1.39,7.41,1.73,11.51.11,1.36.23,2.72.37,4.07.15,1.43.11,2.96.06,4.58-.02.8-.04,1.61-.04,2.4v3.91h21.28l.23-3.66c1.21-19.35-2.33-33.92-11.15-45.88-12.05-16.34-31.62-19.59-48.7-8.08-8.17,5.5-14.59,13.35-19.63,24-13.81,29.16-6.96,58.27,16.88,74.09-.53.53-1.06,1.06-1.58,1.58-3.72,3.74-7.23,7.27-11.19,10.06-8.08,5.67-10.49,12.78-10.72,19.32-.04-.46-.08-.91-.13-1.37-.67-5.76-1.37-11.53-2.06-17.29-.4-3.31-.8-6.62-1.19-9.92l-2.03-17.02c-3.12-26.16-6.34-53.21-9.72-79.79-.47-3.72-5.04-7.28-8.31-7.48-4.1-.25-8.22-.23-12.21-.2-3.35.02-6.81.04-10.16-.11-8.11-.36-9.27,6.18-9.65,8.33-2.71,15.27-5.55,30.79-8.29,45.8l-.9,4.95c-2.1,11.51-4.22,23.02-6.34,34.53-1.05-5.34-2.1-10.67-3.14-16.01-4.45-22.69-9.05-46.15-13.72-69.2-.64-3.14-3.99-7.84-7.78-8.04-6.72-.35-13.32-.31-20.32-.27-2.35.02-4.72.03-7.13.03h-3.51L0,147.91l22.43,1.86,8.35-87.61,17.9,86.39h34.35l17.17-87.94,9.73,89.48,32.84-4.62Z"/><path class="cls-4" d="M319.28,148.96c2.52-.01,5.05-.03,7.6-.03h3.91V3.33h-21.24v93.46l-2.02-5.86c-9.07-26.32-18.44-53.53-27.79-80.26-.67-1.91-3.56-7.4-7.95-7.61-7.37-.35-14.88-.31-22.14-.27-2.47.01-4.95.03-7.44.03h-3.91v145.78h21.03V55.93l3.14,9.1c8.58,24.87,17.45,50.59,26.29,75.86.03.08,2.7,7.56,7.82,7.8,5.08.24,10.07.3,15.18.3,2.48,0,4.98-.01,7.53-.03Z"/><path class="cls-4" d="M481.18,52.57v42.43l-33.68-36.12-26.35,24.06,1.74,2.76c1.14,1.81,2.3,3.52,3.41,5.18,2.27,3.37,4.42,6.55,5.92,9.84,1.23,2.7,2.37,6.6.84,9.88-1.55,3.32-5.33,4.97-8.23,5.78-16.88,4.67-45.65-7.44-54.02-22.74-1.63-2.97-3.25-7.28-1.74-10.94,1.4-3.41,5.15-5.16,8.05-6.02,4.17-1.25,8.68-1.63,13.46-2.03,1.58-.13,3.15-.26,4.71-.43,1.7-.18,3.49-.13,5.39-.08.93.03,1.85.05,2.77.05h3.91v-23.46l-3.66-.23c-22.26-1.39-39.03,2.67-52.76,12.8-18.65,13.76-22.35,36.1-9.21,55.59,6.31,9.37,15.33,16.74,27.56,22.54,11.55,5.47,23.1,8.12,34.01,8.12,20.97,0,39.61-9.78,51.48-28.11.8.8,1.59,1.59,2.37,2.37,4.35,4.33,8.47,8.41,11.72,13.05,9.65,13.75,22.52,13.17,32.66,11.13l3.13-.63V52.57h-23.47Z"/><path class="cls-4" d="M611.27,172.02c-7.61-12.65-18.79-18.2-33.25-16.49-12.86,1.52-23.34,8.42-32.06,21.11-14.29,20.79-19.27,45.2-15.21,74.65,2.74,19.85,9.99,34.99,22.19,46.29,6.56,6.08,13.66,9.12,20.82,9.12,6.91,0,13.87-2.84,20.41-8.52,1.78-1.55,3.41-3.24,5.01-5.03v10.56h20.34l.65-3.1c.08-.39.16-.71.23-.98.17-.69.35-1.39.35-2.26,0-8.11.01-16.22.03-24.33.04-21.69.08-44.12-.23-66.19-.19-13.19-3.31-24.91-9.27-34.83ZM574.3,267.75c-4.57,4.92-8.22,6.43-12.19,5.04-3.73-1.3-5.65-4.4-6.83-11.07-.41-2.32-.65-4.71-.89-7.03-.09-.92-.18-1.81-.28-2.68,1.5-22.47,8.69-40.99,21.97-56.6,5.58-6.55,9.66-9.73,15.25-7.77,4.86,1.71,6.85,5.91,7.11,14.99.72,25.19-7.4,47.09-24.14,65.1Z"/><path class="cls-4" d="M518.56,241.71c9.17-27.48,4.23-52.16-14.67-73.34-9.31-10.43-21.65-15.05-33.88-12.69-12.21,2.37-21.94,11.27-26.67,24.42-3.45,9.59-5.46,20.98-5.8,32.95-.56,19.64-.45,39.6-.34,58.9.04,7.4.08,14.8.09,22.19,0,1.43.12,2.81.24,4.14.05.59.1,1.18.15,1.79l.25,3.63h21.12v-36.92l43.01,41.05,22.57-24.54-21.89-20.81c7.64-4.97,12.84-11.81,15.82-20.76ZM497.04,235.53c-.77,5.51-2.95,9.36-5.97,10.58-2.88,1.16-6.7.02-10.78-3.2-15.23-12.02-21.85-28.04-19.68-47.63.42-3.78,1.96-6.48,4.33-7.62.88-.42,1.87-.63,2.95-.63,2.11,0,4.52.8,6.97,2.36,10.33,6.56,17.03,16.89,21.11,32.51.58,2.2.86,4.56,1.11,6.65.09.76.18,1.47.27,2.11-.05.77-.08,1.45-.11,2.05-.06,1.19-.1,2.04-.2,2.81Z"/><path class="cls-4" d="M417.35,214.91l-24.82,11.58,9.84,2.65c.16,2.49.35,4.97.53,7.4.58,7.71,1.18,15.67.96,23.38-.36,12.44-6.37,14.2-8.35,14.77-5.46,1.6-9.77-1.57-15.35-7.57-10.19-10.95-16.96-24.53-20.71-41.51-2.5-11.31-2.52-20.52-.08-28.96,1.49-5.14,3.92-8.45,6.86-9.32,2.93-.87,6.77.57,10.82,4.06,2.58,2.22,4.84,4.85,7.46,7.89,1.29,1.49,2.62,3.04,4.08,4.64l2.22,2.43,2.77-1.77c.92-.59,1.85-1.18,2.79-1.78,2.07-1.31,4.16-2.64,6.23-4,7.92-5.22,13.15-9.04,13.71-14.52.57-5.55-3.97-10.55-10.95-17.56-7.46-7.48-16.11-11.44-25.02-11.44h0c-8.76,0-17.22,3.84-24.45,11.1-4.96,4.98-8.66,9.94-10.98,14.74-14.95,30.9-15.53,62.65-1.75,94.37,5.29,12.17,13.55,21.22,24.53,26.89,5.78,2.99,11.67,4.46,17.37,4.46,9.07,0,17.67-3.73,24.59-11.01,18.71-19.66,18.62-60.01,9.43-77.62l-1.73-3.31Z"/><polygon class="cls-4" points="791.8 157.09 700.24 157.09 700.24 196.84 734.26 196.84 734.26 304.65 758.07 304.65 758.07 196.33 791.8 196.33 791.8 157.09"/><path class="cls-4" d="M702.81,199.63c-2.85-2.82-5.8-5.74-8.81-8.57-2.94-2.76-6.07-5.55-8.86-8.03-5.91-5.25-12.01-10.69-17.23-16.56-9.03-10.18-19.74-10.03-29.03-8.54l-3.82.62v145.63h22.36v-51.84l3.39,3.13c3.79,3.51,7.5,6.93,11.26,10.41l3.32,3.07,3.09-3.31c4.1-4.41,7.94-8.53,12.07-12.95l3.03-3.24-3.17-3.11c-.87-.85-1.73-1.7-2.57-2.54l-.19-.19c-2.03-2.01-4.13-4.09-6.29-6.11-2.05-1.93-4.17-3.82-6.22-5.65l-.12-.1c-4.1-3.65-8.34-7.43-11.94-11.48-1.74-1.96-3.61-3.48-5.66-4.6v-11.12l.34.32c8.88,8.21,17.14,15.85,25.63,23.69l3.32,3.07,9.77-10.47c3.46-3.71,6.9-7.39,10.48-11.24l3.02-3.24-3.17-3.1c-1.36-1.34-2.7-2.66-4.03-3.97Z"/><path class="cls-4" d="M802.13,252.07c-4.76-.06-9.07,1.68-12.54,5.07-4.56,4.46-7.11,11.22-7.16,19.05v.21c0,.16-.01.31-.01.48.1,13.88,8.45,24.3,19.43,24.3.04,0,.08,0,.12,0,10.97-.08,19.32-10.61,19.43-24.49.1-13.86-8.18-24.44-19.27-24.61Z"/><rect class="cls-2" x="530.56" y="33.58" width="79.22" height="29.6" rx="13.26" ry="13.26"/><path class="cls-1" d="M562.19,53.51h-1.53l-4.59-6.95v6.95h-1.53v-9.32h1.53l4.59,6.94v-6.94h1.53v9.32Z"/><path class="cls-1" d="M570.91,50.39h-5.64c.04.59.26,1.06.66,1.42.39.36.87.54,1.45.54.82,0,1.4-.34,1.74-1.03h1.65c-.22.68-.63,1.23-1.21,1.67-.58.43-1.31.65-2.17.65-.71,0-1.34-.16-1.89-.48-.56-.32-1-.76-1.31-1.34-.32-.58-.48-1.24-.48-2s.15-1.43.46-2c.31-.58.74-1.02,1.3-1.33s1.2-.47,1.92-.47,1.32.15,1.86.46c.54.3.97.73,1.27,1.28.3.55.46,1.18.46,1.89,0,.28-.02.53-.05.75ZM569.37,49.16c0-.56-.21-1.01-.6-1.35-.39-.34-.88-.51-1.46-.51-.53,0-.98.17-1.35.5-.37.34-.6.79-.67,1.36h4.08Z"/><path class="cls-1" d="M582.37,46.13l-2.29,7.38h-1.61l-1.49-5.45-1.49,5.45h-1.61l-2.3-7.38h1.55l1.54,5.93,1.57-5.93h1.59l1.5,5.9,1.53-5.9h1.5Z"/><path class="cls-1" d="M583.96,53.32c-.19-.19-.28-.42-.28-.7s.09-.51.28-.7.42-.28.7-.28.49.09.68.28.28.42.28.7-.09.51-.28.7-.42.28-.68.28-.51-.09-.7-.28ZM585.42,44.2l-.17,6.49h-1.27l-.17-6.49h1.62Z"/><rect class="cls-2" x="630.02" y="380.17" width="71" height="26.53" rx="13.26" ry="13.26"/><path class="cls-1" d="M648.64,393.37c-.2.38-.52.68-.96.92-.44.24-1,.35-1.69.35h-1.51v3.38h-1.37v-8.34h2.88c.64,0,1.18.11,1.63.33.44.22.78.52,1,.89.22.38.33.8.33,1.26,0,.42-.1.82-.3,1.2ZM647.15,393.18c.26-.24.38-.57.38-1,0-.91-.52-1.37-1.55-1.37h-1.51v2.72h1.51c.52,0,.91-.12,1.16-.35Z"/><path class="cls-1" d="M651.42,397.71c-.5-.28-.9-.68-1.19-1.2-.29-.52-.43-1.11-.43-1.79s.15-1.27.44-1.79c.3-.52.7-.92,1.21-1.2.51-.28,1.08-.42,1.72-.42s1.2.14,1.72.42c.51.28.92.68,1.21,1.2.3.52.44,1.12.44,1.79s-.15,1.27-.46,1.79c-.3.52-.72.92-1.24,1.21-.52.28-1.1.43-1.73.43s-1.19-.14-1.69-.43ZM654.1,396.7c.31-.17.56-.42.75-.76.19-.34.29-.74.29-1.22s-.09-.89-.28-1.22-.43-.58-.73-.75c-.3-.17-.63-.25-.98-.25s-.68.08-.98.25c-.3.17-.54.42-.71.75-.18.33-.26.74-.26,1.22,0,.71.18,1.26.55,1.65.36.39.82.58,1.37.58.35,0,.68-.08.99-.25Z"/><path class="cls-1" d="M660.22,391.62c.4-.21.85-.31,1.36-.31.58,0,1.1.14,1.58.43.48.28.85.68,1.12,1.19s.41,1.1.41,1.76-.14,1.26-.41,1.78c-.27.52-.65.93-1.12,1.22s-1,.44-1.58.44c-.5,0-.95-.1-1.34-.31-.39-.2-.71-.46-.96-.76v4.1h-1.37v-9.76h1.37v.97c.23-.3.55-.56.95-.77ZM663.01,393.51c-.19-.33-.44-.58-.74-.76-.31-.17-.64-.26-.99-.26s-.67.09-.98.26-.56.43-.74.77-.28.73-.28,1.19.09.85.28,1.19c.19.34.44.6.74.77s.63.26.98.26.68-.09.99-.27c.31-.18.56-.44.74-.79s.28-.74.28-1.2-.09-.85-.28-1.18Z"/><path class="cls-1" d="M672.02,391.42v6.61h-1.37v-.78c-.22.27-.5.49-.85.64-.35.16-.72.23-1.11.23-.52,0-.99-.11-1.4-.32s-.74-.54-.97-.96-.35-.94-.35-1.54v-3.89h1.36v3.68c0,.59.15,1.05.44,1.36.3.32.7.47,1.21.47s.92-.16,1.22-.47c.3-.32.45-.77.45-1.36v-3.68h1.37Z"/><path class="cls-1" d="M675.19,389.15v8.88h-1.37v-8.88h1.37Z"/><path class="cls-1" d="M676.95,392.93c.28-.51.65-.91,1.13-1.19.48-.28,1-.43,1.58-.43.52,0,.97.1,1.36.31.39.2.7.46.93.76v-.96h1.38v6.61h-1.38v-.98c-.23.31-.55.57-.95.78-.4.21-.86.31-1.37.31-.57,0-1.09-.15-1.56-.44s-.85-.7-1.12-1.22c-.28-.52-.41-1.12-.41-1.78s.14-1.25.41-1.76ZM681.67,393.53c-.19-.34-.43-.59-.74-.77s-.63-.26-.98-.26-.68.09-.98.26c-.3.17-.55.42-.74.76s-.28.73-.28,1.18.09.86.28,1.2.44.61.74.79c.31.18.63.27.98.27s.68-.09.98-.26.55-.43.74-.77c.19-.34.28-.74.28-1.19s-.09-.85-.28-1.19Z"/><path class="cls-1" d="M687.29,391.59c.33-.19.73-.28,1.18-.28v1.42h-.35c-.54,0-.94.14-1.22.41-.28.27-.41.74-.41,1.42v3.48h-1.37v-6.61h1.37v.96c.2-.34.47-.6.8-.79Z"/><rect class="cls-2" x="236.02" y="272.17" width="71" height="26.53" rx="13.26" ry="13.26"/><path class="cls-1" d="M254.64,285.37c-.2.38-.52.68-.96.92-.44.24-1,.35-1.69.35h-1.51v3.38h-1.37v-8.34h2.88c.64,0,1.18.11,1.63.33.44.22.78.52,1,.89.22.38.33.8.33,1.26,0,.42-.1.82-.3,1.2ZM253.15,285.18c.26-.24.38-.57.38-1,0-.91-.52-1.37-1.55-1.37h-1.51v2.72h1.51c.52,0,.91-.12,1.16-.35Z"/><path class="cls-1" d="M257.42,289.71c-.5-.28-.9-.68-1.19-1.2-.29-.52-.43-1.11-.43-1.79s.15-1.27.44-1.79c.3-.52.7-.92,1.21-1.2.51-.28,1.08-.42,1.72-.42s1.2.14,1.72.42c.51.28.92.68,1.21,1.2.3.52.44,1.12.44,1.79s-.15,1.27-.46,1.79c-.3.52-.72.92-1.24,1.21-.52.28-1.1.43-1.73.43s-1.19-.14-1.69-.43ZM260.1,288.7c.31-.17.56-.42.75-.76.19-.34.29-.74.29-1.22s-.09-.89-.28-1.22-.43-.58-.73-.75c-.3-.17-.63-.25-.98-.25s-.68.08-.98.25c-.3.17-.54.42-.71.75-.18.33-.26.74-.26,1.22,0,.71.18,1.26.55,1.65.36.39.82.58,1.37.58.35,0,.68-.08.99-.25Z"/><path class="cls-1" d="M266.22,283.62c.4-.21.85-.31,1.36-.31.58,0,1.1.14,1.58.43.48.28.85.68,1.12,1.19s.41,1.1.41,1.76-.14,1.26-.41,1.78c-.27.52-.65.93-1.12,1.22s-1,.44-1.58.44c-.5,0-.95-.1-1.34-.31-.39-.2-.71-.46-.96-.76v4.1h-1.37v-9.76h1.37v.97c.23-.3.55-.56.95-.77ZM269.01,285.51c-.19-.33-.44-.58-.74-.76-.31-.17-.64-.26-.99-.26s-.67.09-.98.26-.56.43-.74.77-.28.73-.28,1.19.09.85.28,1.19c.19.34.44.6.74.77s.63.26.98.26.68-.09.99-.27c.31-.18.56-.44.74-.79s.28-.74.28-1.2-.09-.85-.28-1.18Z"/><path class="cls-1" d="M278.02,283.42v6.61h-1.37v-.78c-.22.27-.5.49-.85.64-.35.16-.72.23-1.11.23-.52,0-.99-.11-1.4-.32s-.74-.54-.97-.96-.35-.94-.35-1.54v-3.89h1.36v3.68c0,.59.15,1.05.44,1.36.3.32.7.47,1.21.47s.92-.16,1.22-.47c.3-.32.45-.77.45-1.36v-3.68h1.37Z"/><path class="cls-1" d="M281.19,281.15v8.88h-1.37v-8.88h1.37Z"/><path class="cls-1" d="M282.95,284.93c.28-.51.65-.91,1.13-1.19.48-.28,1-.43,1.58-.43.52,0,.97.1,1.36.31.39.2.7.46.93.76v-.96h1.38v6.61h-1.38v-.98c-.23.31-.55.57-.95.78-.4.21-.86.31-1.37.31-.57,0-1.09-.15-1.56-.44s-.85-.7-1.12-1.22c-.28-.52-.41-1.12-.41-1.78s.14-1.25.41-1.76ZM287.67,285.53c-.19-.34-.43-.59-.74-.77s-.63-.26-.98-.26-.68.09-.98.26c-.3.17-.55.42-.74.76s-.28.73-.28,1.18.09.86.28,1.2.44.61.74.79c.31.18.63.27.98.27s.68-.09.98-.26.55-.43.74-.77c.19-.34.28-.74.28-1.19s-.09-.85-.28-1.19Z"/><path class="cls-1" d="M293.29,283.59c.33-.19.73-.28,1.18-.28v1.42h-.35c-.54,0-.94.14-1.22.41-.28.27-.41.74-.41,1.42v3.48h-1.37v-6.61h1.37v.96c.2-.34.47-.6.8-.79Z"/><path class="cls-4" d="M299.52,174.93c-12.3-2.52-24.84-3.97-37.34-5.01-5.42-.45-10.84-.83-16.27-1.2s-10.48-.7-15.72-.6c-2.61.05-5.22.2-7.81.52-4.4.54-8.86,1.04-13.17,2.15-6.62,1.72-12.98,4.58-19.14,7.49-9.08,4.29-18.21,8.86-26.61,14.39-5.56,3.66-10.95,7.75-15.79,12.32-4.79,4.52-8.82,9.7-12.76,14.96-6.51,8.69-11.14,18.55-14.89,28.7-3.74,10.12-5.54,20.68-6.69,31.38-.96,8.95-.86,18.01.17,26.96,1.25,10.81,3.09,21.45,6.51,31.8,1.97,5.97,4.34,11.86,7.04,17.53s6.36,10.75,10.45,15.53c1.45,1.69,3.05,3.23,4.79,4.62,2.04,2.19,4.45,3.74,7.24,4.65,2.68,1.41,5.57,2.05,8.67,1.94,3.1.12,5.99-.53,8.67-1.94,2.79-.91,5.2-2.46,7.24-4.65,3.94-4.29,6.86-9.92,6.59-15.91l-.8-5.98c-1.07-3.81-3-7.12-5.79-9.93-2.22-1.77-4.19-3.8-5.94-6.03l3.52,4.55c-3-3.89-5.29-8.24-7.22-12.75l2.27,5.37c-4.38-10.38-7.26-21.41-8.77-32.57l.8,5.98c-1.4-10.61-1.5-21.37-.11-31.99l-.8,5.98c1.23-9.17,3.58-18.16,7.17-26.69l-2.27,5.37c3.07-7.22,7.01-14.04,11.79-20.27l-3.52,4.55c4.13-5.32,8.85-10.12,14.17-14.24l-4.55,3.52c5.51-4.23,11.51-7.74,17.63-10.99s12.46-6.56,18.92-9.31l-5.37,2.27c5.03-2.11,10.19-3.69,15.59-4.46l-5.98.8c9.49-1.27,19.08-.42,28.58.24,9.72.68,19.45,1.42,29.11,2.71l-5.98-.8c4.83.65,9.63,1.44,14.4,2.42,2.99.94,5.98,1.07,8.97.4,2.99-.14,5.78-1.03,8.37-2.67,2.62-1.41,4.73-3.35,6.31-5.8,1.99-2.17,3.33-4.72,4.03-7.65l.8-5.98c-.01-4.06-1.04-7.85-3.07-11.36-3.06-4.74-7.73-9.17-13.45-10.34h0Z"/></g></svg>