<?xml version="1.0" encoding="UTF-8"?><svg id="Layer_2" xmlns="http://www.w3.org/2000/svg" viewBox="0 0 50 54.66"><defs><style>.cls-1{fill:#666;stroke-width:0px;}</style></defs><g id="Layer_1-2"><path class="cls-1" d="M28.92,0c.28.06.56.1.83.18,2.47.7,3.42,3.7,1.8,5.71-.43.54-.95,1.01-1.39,1.55-3.17,3.86-4.48,8.3-4.26,13.27.34,7.66,6.57,15.43,15.78,16.66,1.29.17,2.62.18,3.92.12,2.04-.09,3.92,1.14,4.32,2.98.23,1.07-.04,2.06-.69,2.92-4.13,5.51-9.47,9.28-16.21,10.68C17.78,57.23,3.32,47.35.49,32.5-2.11,18.86,5.96,6.41,17.29,1.98,19.91.96,22.61.28,25.43.09c.14,0,.27-.06.41-.09,1.03,0,2.06,0,3.09,0ZM24.38,5.93c-4.39.68-8.19,2.58-11.49,5.44-3.96,3.44-6.27,7.85-7.03,13.04-1.5,10.22,4.75,20.21,14.54,23.53,8.6,2.91,17.96-.66,21.33-4.81-.62-.09-1.24-.15-1.85-.26-5.66-1.04-10.32-3.83-14.04-8.2-2.62-3.08-4.5-6.6-5.27-10.57-.94-4.86-.26-9.6,1.73-14.13.6-1.36,1.36-2.65,2.08-4.04Z"/></g></svg>