<?xml version="1.0" encoding="UTF-8"?><svg id="Layer_2" xmlns="http://www.w3.org/2000/svg" viewBox="0 0 40.05 53.56"><defs><style>.cls-1{fill:#ccf2c2;stroke-width:0px;}</style></defs><g id="Layer_1-2"><path class="cls-1" d="M25.05,53.56c-.98-.14-1.96-.26-2.93-.41-10.11-1.63-18.77-9.61-21.29-19.61C-2.59,19.94,4.86,6.1,18.08,1.47c2.14-.75,4.34-1.24,6.61-1.38.15,0,.3-.06.46-.09,1.18,0,2.37,0,3.55,0,1.03.14,2.06.26,3.09.42.63.1,1.27.23,1.89.39,4.19,1.12,5.58,6.29,2.49,9.35-1.35,1.34-2.65,2.72-3.71,4.31-5.18,7.79-4.44,17.61,1.91,24.6,1.04,1.14,2.21,2.18,3.39,3.16,1.78,1.48,2.61,3.31,2.18,5.58-.44,2.27-1.88,3.7-4.09,4.37-2.29.69-4.62,1.14-7.01,1.29-.12,0-.23.05-.35.08h-3.45ZM26.66,49.13c3.02-.02,5.46-.4,7.84-1.18.53-.17.98-.4,1.07-1,.09-.58-.25-.93-.67-1.26-1.82-1.4-3.46-2.97-4.86-4.79-4.82-6.26-6.57-13.24-4.78-20.99,1.17-5.05,3.85-9.25,7.62-12.76.35-.33.6-.69.47-1.19-.13-.51-.49-.77-1-.88-3.76-.83-7.52-.87-11.26.12C9.95,8.15,2.68,19.29,4.8,30.85c.77,4.18,2.55,7.89,5.47,10.97,4.58,4.82,10.27,7.18,16.39,7.31Z"/></g></svg>