<?xml version="1.0" encoding="UTF-8"?><svg id="Layer_2" xmlns="http://www.w3.org/2000/svg" viewBox="0 0 50 50"><defs><style>.cls-1{fill:#ededed;stroke-width:0px;}</style></defs><g id="Layer_1-2"><path class="cls-1" d="M44.53,50h-5.76c-.07-.03-.14-.07-.22-.09-2.85-.52-4.93-2.69-5.16-5.58-.13-1.67-.12-3.35-.04-5.02.14-2.98,2.19-5.3,5.08-5.87.36-.07.73-.1,1.12-.14,0-.14.02-.25.02-.36,0-2.73.04-5.47-.01-8.2-.09-4.35-1.83-7.96-5.11-10.81-.67-.58-1.42-1.06-2.15-1.6-1.71,2.81-4.12,4.33-7.32,4.33-3.19,0-5.59-1.55-7.24-4.27-.16.1-.29.16-.41.24-4.36,2.86-6.72,6.89-6.87,12.11-.08,2.73-.02,5.47-.02,8.2,0,.12.03.24.04.37.23.03.42.05.62.07,2.93.31,5.29,2.61,5.52,5.55.13,1.73.14,3.48.03,5.22-.17,2.74-1.94,4.87-4.47,5.61-.31.09-.62.17-.93.25h-5.76c-.07-.03-.14-.07-.22-.09-2.58-.46-4.52-2.29-5.1-4.83-.04-.19-.1-.37-.14-.56,0-1.92,0-3.84,0-5.76.03-.09.07-.17.09-.27.54-2.56,2.06-4.21,4.56-4.96.5-.15,1.04-.18,1.59-.27,0-.19,0-.36,0-.54,0-2.55,0-5.11,0-7.66,0-.75.03-1.5.12-2.24.62-4.81,2.74-8.83,6.4-12.03.11-.1.22-.21.4-.38-1.7,0-3.3.01-4.89,0-.36,0-.57.11-.8.4-1.05,1.36-2.44,1.92-4.13,1.58-1.64-.33-2.69-1.36-3.18-2.96C.11,9.19.06,8.94,0,8.69c0-.23,0-.46,0-.68.03-.11.07-.21.09-.32.35-1.77,1.39-2.94,3.13-3.36,1.74-.42,3.21.16,4.3,1.59.19.25.37.34.68.34,2.76-.01,5.53,0,8.29,0h.46c.74-2.53,2.22-4.39,4.58-5.46C22.34.42,23.25.26,24.12,0c.59,0,1.17,0,1.76,0,.09.03.18.07.27.09,2.08.31,3.8,1.26,5.17,2.86.83.96,1.37,2.08,1.72,3.28.08.01.13.03.18.03,2.9,0,5.79,0,8.69-.01.18,0,.4-.16.52-.31,1.06-1.38,2.45-1.97,4.16-1.67,1.92.34,3.22,1.86,3.38,3.83.15,1.74-1,3.49-2.69,4.12-1.76.65-3.68.07-4.81-1.48-.16-.23-.33-.31-.6-.31-1.55.01-3.09,0-4.64,0-.1,0-.2.02-.38.04.14.13.22.2.31.28,4.39,3.87,6.58,8.73,6.6,14.58,0,2.49,0,4.98,0,7.47,0,.17,0,.34,0,.51.21.02.36.04.5.06,3.43.37,5.74,2.96,5.75,6.42,0,1.35.01,2.7,0,4.05-.03,2.85-2,5.31-4.77,5.99-.23.06-.46.12-.7.18ZM4.18,41.67h0c0,.7-.01,1.4,0,2.1.03,1.18.87,2.03,2.04,2.05,1.4.02,2.8.02,4.19,0,1.22-.02,2.07-.89,2.08-2.11.01-1.35,0-2.7,0-4.05,0-1.27-.89-2.15-2.15-2.16-1.35,0-2.7,0-4.05,0-1.24,0-2.1.87-2.12,2.12-.01.68,0,1.37,0,2.05ZM45.82,41.67s0,0,0,0c0-.72.02-1.43,0-2.15-.03-1.14-.89-2-2.02-2.02-1.41-.02-2.83-.02-4.24,0-1.15.02-2.03.9-2.05,2.06-.02,1.4-.02,2.8,0,4.19.01,1.16.87,2.04,2.03,2.06,1.41.02,2.83.02,4.24,0,1.17-.02,2.01-.87,2.04-2.05.02-.7,0-1.4,0-2.1ZM24.99,4.18c-2.3,0-4.16,1.86-4.17,4.15,0,2.28,1.87,4.17,4.15,4.17,2.31,0,4.19-1.87,4.19-4.18,0-2.28-1.88-4.15-4.18-4.14Z"/></g></svg>