<?xml version="1.0" encoding="UTF-8"?><svg id="Layer_2" xmlns="http://www.w3.org/2000/svg" viewBox="0 0 49.03 25.13"><defs><style>.cls-1{fill:#666;stroke-width:0px;}</style></defs><g id="Layer_1-2"><path class="cls-1" d="M24.5,25.13c-2.76-.08-5.23-.95-7.2-2.9C11.86,16.84,6.46,11.42,1.06,6c-1.41-1.42-1.4-3.57-.05-4.94,1.4-1.42,3.56-1.43,5.05.06,5.19,5.17,10.37,10.35,15.55,15.53,1.97,1.97,3.84,1.97,5.82-.01,5.1-5.1,10.21-10.2,15.3-15.31.74-.74,1.55-1.29,2.64-1.31,1.48-.03,2.6.61,3.26,1.93.67,1.35.48,2.65-.46,3.83-.14.17-.3.32-.45.48-5.22,5.22-10.44,10.43-15.65,15.66-2.09,2.1-4.62,3.13-7.57,3.21Z"/></g></svg>