<?xml version="1.0" encoding="UTF-8"?><svg id="Layer_2" xmlns="http://www.w3.org/2000/svg" viewBox="0 0 50 50"><defs><style>.cls-1{fill:#aaa;stroke-width:0px;}</style></defs><g id="Layer_1-2"><path class="cls-1" d="M2.51,50h-.88c-1.97-.66-2.08-2.67-.73-3.91,2.1-1.94,4.07-4.03,6.1-6.05.12-.12.24-.25.35-.37C-.41,30.3.84,17.41,8.01,9.63c3.62-3.93,8.06-6.41,13.34-7.23,6.81-1.06,12.92.69,18.4,5.06.12-.16.2-.33.33-.45,2.09-2.1,4.18-4.19,6.28-6.28.83-.83,1.95-.98,2.77-.29.38.31.59.82.88,1.24v.88c-.38.52-.7,1.08-1.15,1.54-1.93,1.98-3.9,3.92-5.86,5.87-.12.12-.24.25-.38.4,3.57,4.4,5.39,9.41,5.29,15.06-.11,5.66-2.08,10.64-5.86,14.86-3.31,3.7-7.41,6.12-12.28,7.11-7.21,1.47-13.69-.23-19.46-4.78-2.1,2.1-4.16,4.18-6.25,6.23-.45.44-1.02.77-1.54,1.15ZM10.31,36.58c8.75-8.74,17.51-17.49,26.26-26.23-6.49-5.45-17.56-5.93-24.91,1.5-7.4,7.47-6.67,18.47-1.35,24.73ZM39.69,13.44c-8.77,8.76-17.52,17.51-26.27,26.25,6.64,5.49,17.52,5.8,24.77-1.39,7.2-7.13,7.12-18.02,1.51-24.86Z"/></g></svg>