<?xml version="1.0" encoding="UTF-8"?><svg id="Layer_2" xmlns="http://www.w3.org/2000/svg" viewBox="0 0 232.9 142.33"><defs><style>.cls-1{fill:#f2f2f2;}.cls-1,.cls-2,.cls-3,.cls-4{stroke-width:0px;}.cls-2{fill:#578fff;}.cls-3{fill:#fff;}.cls-4{fill:#4d4d4d;}</style></defs><g id="Layer_1-2"><path class="cls-4" d="M218.73,142.33v-1.14c1.36,0,2.46-1.02,2.46-2.28h1.23c0,1.88-1.66,3.42-3.7,3.42Z"/><path class="cls-4" d="M212.49,142.33h-6.24v-1.14h6.24v1.14ZM200.02,142.33h-6.24v-1.14h6.24v1.14ZM187.55,142.33h-6.24v-1.14h6.24v1.14ZM175.07,142.33h-6.24v-1.14h6.24v1.14ZM162.6,142.33h-6.24v-1.14h6.24v1.14ZM150.13,142.33h-6.24v-1.14h6.24v1.14ZM137.66,142.33h-6.24v-1.14h6.24v1.14ZM125.19,142.33h-6.24v-1.14h6.24v1.14ZM112.72,142.33h-6.24v-1.14h6.24v1.14ZM100.24,142.33h-6.24v-1.14h6.24v1.14ZM87.77,142.33h-6.24v-1.14h6.24v1.14ZM75.3,142.33h-6.24v-1.14h6.24v1.14ZM62.83,142.33h-6.24v-1.14h6.24v1.14ZM50.36,142.33h-6.24v-1.14h6.24v1.14ZM37.88,142.33h-6.24v-1.14h6.24v1.14ZM25.41,142.33h-6.24v-1.14h6.24v1.14Z"/><path class="cls-4" d="M12.94,142.33c-2.04,0-3.7-1.53-3.7-3.42h1.23c0,1.26,1.11,2.28,2.46,2.28v1.14Z"/><path class="cls-4" d="M10.47,133.02h-1.23v-5.89h1.23v5.89ZM10.47,121.24h-1.23v-5.89h1.23v5.89ZM10.47,109.46h-1.23v-5.89h1.23v5.89ZM10.47,97.67h-1.23v-5.89h1.23v5.89ZM10.47,85.89h-1.23v-5.89h1.23v5.89ZM10.47,74.11h-1.23v-5.89h1.23v5.89ZM10.47,62.33h-1.23v-5.89h1.23v5.89ZM10.47,50.54h-1.23v-5.89h1.23v5.89ZM10.47,38.76h-1.23v-5.89h1.23v5.89ZM10.47,26.98h-1.23v-5.89h1.23v5.89ZM10.47,15.2h-1.23v-5.89h1.23v5.89Z"/><path class="cls-4" d="M10.47,3.42h-1.23c0-1.88,1.66-3.42,3.7-3.42v1.14c-1.36,0-2.46,1.02-2.46,2.28Z"/><path class="cls-4" d="M212.49,1.14h-6.24V0h6.24v1.14ZM200.02,1.14h-6.24V0h6.24v1.14ZM187.55,1.14h-6.24V0h6.24v1.14ZM175.07,1.14h-6.24V0h6.24v1.14ZM162.6,1.14h-6.24V0h6.24v1.14ZM150.13,1.14h-6.24V0h6.24v1.14ZM137.66,1.14h-6.24V0h6.24v1.14ZM125.19,1.14h-6.24V0h6.24v1.14ZM112.72,1.14h-6.24V0h6.24v1.14ZM100.24,1.14h-6.24V0h6.24v1.14ZM87.77,1.14h-6.24V0h6.24v1.14ZM75.3,1.14h-6.24V0h6.24v1.14ZM62.83,1.14h-6.24V0h6.24v1.14ZM50.36,1.14h-6.24V0h6.24v1.14ZM37.88,1.14h-6.24V0h6.24v1.14ZM25.41,1.14h-6.24V0h6.24v1.14Z"/><path class="cls-4" d="M222.42,3.42h-1.23c0-1.26-1.11-2.28-2.46-2.28V0c2.04,0,3.7,1.53,3.7,3.42Z"/><path class="cls-4" d="M222.42,133.02h-1.23v-5.89h1.23v5.89ZM222.42,121.24h-1.23v-5.89h1.23v5.89ZM222.42,109.45h-1.23v-5.89h1.23v5.89ZM222.42,97.67h-1.23v-5.89h1.23v5.89ZM222.42,85.89h-1.23v-5.89h1.23v5.89ZM222.42,74.11h-1.23v-5.89h1.23v5.89ZM222.42,62.33h-1.23v-5.89h1.23v5.89ZM222.42,50.54h-1.23v-5.89h1.23v5.89ZM222.42,38.76h-1.23v-5.89h1.23v5.89ZM222.42,26.98h-1.23v-5.89h1.23v5.89ZM222.42,15.2h-1.23v-5.89h1.23v5.89Z"/><path class="cls-2" d="M86.82,54.36v-2.19c-1.91-.31-2.39-1.59-2.3-3.37.09-1.73.02-3.47.02-5.21,0-1.79.48-2.39,2.32-2.89,0-3.32-.02-6.67,0-10.02,0-1,.04-2.01.22-2.99.91-5.03,5.3-8.86,10.4-8.89,12.24-.06,24.48-.07,36.72,0,5.74.03,10.48,4.87,10.58,10.63.07,3.74.01,7.48.01,11.2,1.99.68,2.33,1.17,2.34,3.21,0,1.74,0,3.47,0,5.21,0,2-.32,2.45-2.33,3.18v1.31c0,19.53,0,39.07,0,58.6,0,5.84-3.68,10.29-9.29,11.27-.75.13-1.54.13-2.31.13-11.58,0-23.17,0-34.75,0-6.95,0-11.6-4.66-11.6-11.63,0-14.98,0-29.96,0-44.94,0-.74.02-1.27-.95-1.5-.87-.2-1.36-1-1.37-1.95-.02-2.32-.04-4.63,0-6.95.03-1.38.99-1.99,2.26-2.24ZM128.66,23.18c0,1.11.01,1.94,0,2.78-.03,1.6-.75,2.32-2.36,2.34-1.51.02-3.01,0-4.52,0-5.41,0-10.81,0-16.22,0-1.82,0-2.5-.7-2.52-2.53,0-.58.05-1.17-.03-1.73-.04-.26-.33-.71-.49-.7-2.19.06-4.44-.11-6.56.35-2.93.64-4.54,3.24-4.55,6.58-.01,8.96,0,17.92,0,26.87,0,18.22,0,36.45,0,54.67,0,4.63,2.62,7.23,7.26,7.23,11.51,0,23.02,0,34.52,0,1.79,0,3.44-.39,4.83-1.6,1.66-1.45,2.26-3.31,2.26-5.48-.01-27.22,0-54.44-.01-81.66,0-.35-.01-.7-.04-1.04-.22-2.73-2.01-5.16-4.68-5.66-2.2-.41-4.5-.31-6.9-.44Z"/><circle class="cls-2" cx="221.81" cy="73.63" r="11.09"/><path class="cls-3" d="M228.99,69.76c-.07.36-.29.61-.54.86-2.59,2.59-5.19,5.18-7.78,7.77-.35.35-.76.5-1.23.33-.17-.06-.35-.17-.48-.3-1.33-1.31-2.64-2.63-3.96-3.95-.53-.53-.49-1.3.09-1.75.45-.35,1.09-.29,1.54.16,1.02,1.01,2.03,2.03,3.04,3.04.04.04.07.09.13.16.05-.07.08-.12.11-.15,2.36-2.36,4.71-4.71,7.07-7.07.34-.34.74-.49,1.21-.34.41.13.66.42.77.84,0,.03.02.06.03.09v.31Z"/><circle class="cls-4" cx="11.09" cy="73.63" r="11.09"/><path class="cls-1" d="M10.01,70.05c-.28-.26-.42-.58-.42-.97s.14-.72.42-.98.64-.39,1.09-.39.79.13,1.07.39.42.59.42.98-.14.71-.42.97-.64.39-1.07.39-.81-.13-1.09-.39ZM12.35,71.3v8.25h-2.53v-8.25h2.53Z"/></g></svg>