<?xml version="1.0" encoding="UTF-8"?><svg id="Layer_2" xmlns="http://www.w3.org/2000/svg" viewBox="0 0 272 191"><defs><style>.cls-1{fill:#ff3c35;}.cls-1,.cls-2,.cls-3,.cls-4,.cls-5{stroke-width:0px;}.cls-6{stroke-dasharray:0 0 5.07 5.07;}.cls-6,.cls-7,.cls-8,.cls-9,.cls-10,.cls-11{stroke-miterlimit:10;}.cls-6,.cls-7,.cls-8,.cls-9,.cls-11{fill:none;stroke:#ccc;}.cls-2{fill:#1d2126;}.cls-7{stroke-dasharray:0 0 4.87 4.87;}.cls-3{fill:#fc3;}.cls-4{fill:#2dc656;}.cls-8{stroke-dasharray:0 0 5 5;}.cls-5{fill:#121212;}.cls-10{fill:#fff;stroke:#1d2126;}.cls-11{stroke-dasharray:0 0 4.93 4.93;}</style></defs><g id="Layer_1-2"><rect class="cls-5" width="272" height="191" rx="4.08" ry="4.08"/><circle class="cls-1" cx="12" cy="12" r="3"/><circle class="cls-3" cx="20" cy="12" r="3"/><circle class="cls-4" cx="28" cy="12" r="3"/><path class="cls-10" d="M24,55h224v102.8c0,2.32-1.88,4.2-4.2,4.2H28.2c-2.32,0-4.2-1.88-4.2-4.2V55h0Z"/><rect class="cls-10" x="14.5" y="35" width="243" height="20" rx="10" ry="10"/><path class="cls-2" d="M26.59,49h-.17c-.15-.03-.26-.13-.36-.23-.46-.47-.93-.93-1.4-1.4-.02-.02-.03-.05-.05-.06-.02,0-.03,0-.03,0-.02,0-.03.02-.05.03-1.14.77-2.35.88-3.59.28-1.04-.5-1.66-1.36-1.89-2.49-.03-.14-.04-.28-.06-.42,0-.15,0-.29,0-.44.01-.1.02-.19.04-.29.11-.69.38-1.31.86-1.83.84-.91,1.89-1.29,3.11-1.13.88.12,1.61.54,2.18,1.22.88,1.03,1.07,2.57.46,3.78-.1.19-.22.38-.33.57.01.01.03.03.05.05.38.38.77.77,1.15,1.15.12.12.25.24.36.37.21.24.14.6-.13.75-.05.03-.1.05-.16.07ZM20.02,44.51c0,1.37,1.11,2.48,2.49,2.49,1.37,0,2.49-1.11,2.49-2.49,0-1.37-1.11-2.48-2.49-2.49-1.37,0-2.49,1.11-2.5,2.49Z"/><polyline class="cls-9" points="39.5 46 37 46 39.5 46"/><line class="cls-7" x1="44.37" y1="46" x2="149.07" y2="46"/><polyline class="cls-9" points="151.5 46 154 46 151.5 46"/><line class="cls-7" x1="146.63" y1="46" x2="41.93" y2="46"/><polyline class="cls-9" points="39.86 70.5 37.36 70.5 39.86 70.5"/><line class="cls-7" x1="44.73" y1="70.5" x2="149.42" y2="70.5"/><polyline class="cls-9" points="151.86 70.5 154.36 70.5 151.86 70.5"/><line class="cls-7" x1="146.99" y1="70.5" x2="42.29" y2="70.5"/><polyline class="cls-9" points="39.86 86.5 37.36 86.5 39.86 86.5"/><line class="cls-6" x1="44.93" y1="86.5" x2="184.32" y2="86.5"/><polyline class="cls-9" points="186.86 86.5 189.36 86.5 186.86 86.5"/><line class="cls-6" x1="181.79" y1="86.5" x2="42.39" y2="86.5"/><polyline class="cls-9" points="39.86 102.5 37.36 102.5 39.86 102.5"/><line class="cls-7" x1="44.73" y1="102.5" x2="149.42" y2="102.5"/><polyline class="cls-9" points="151.86 102.5 154.36 102.5 151.86 102.5"/><line class="cls-7" x1="146.99" y1="102.5" x2="42.29" y2="102.5"/><polyline class="cls-9" points="39.86 118.5 37.36 118.5 39.86 118.5"/><line class="cls-8" x1="44.86" y1="118.5" x2="122.36" y2="118.5"/><polyline class="cls-9" points="124.86 118.5 127.36 118.5 124.86 118.5"/><line class="cls-8" x1="119.86" y1="118.5" x2="42.36" y2="118.5"/><polyline class="cls-9" points="39.86 134.5 37.36 134.5 39.86 134.5"/><line class="cls-11" x1="44.78" y1="134.5" x2="170.4" y2="134.5"/><polyline class="cls-9" points="172.86 134.5 175.36 134.5 172.86 134.5"/><line class="cls-11" x1="167.93" y1="134.5" x2="42.32" y2="134.5"/></g></svg>