<?xml version="1.0" encoding="UTF-8"?><svg id="Layer_2" xmlns="http://www.w3.org/2000/svg" viewBox="0 0 28.96 25.15"><defs><style>.cls-1{fill:#4d4d4d;stroke-width:0px;}</style></defs><g id="Layer_1-2"><path class="cls-1" d="M5.67,21.4c-.63,0-1.2,0-1.77,0C1.64,21.39,0,19.75,0,17.5,0,12.97,0,8.45,0,3.93,0,1.64,1.64,0,3.91,0c7.04,0,14.08,0,21.12,0,2.28,0,3.92,1.63,3.92,3.91,0,4.52,0,9.05,0,13.57,0,2.28-1.64,3.91-3.92,3.92-3.58,0-7.16,0-10.74,0-.23,0-.5.07-.7.18-1.98,1.1-3.95,2.22-5.92,3.33-1.04.58-2.01,0-2.01-1.19,0-.76,0-1.52,0-2.33ZM8.18,21.76c.17-.09.29-.14.4-.21,1.43-.81,2.84-1.63,4.28-2.41.28-.16.64-.25.96-.25,3.74-.02,7.47,0,11.21-.01.89,0,1.4-.51,1.4-1.38,0-4.54,0-9.07,0-13.61,0-.85-.52-1.37-1.38-1.37-7.05,0-14.11,0-21.16,0-.85,0-1.38.52-1.38,1.37,0,4.54,0,9.07,0,13.61,0,.87.52,1.38,1.4,1.38.98,0,1.97,0,2.95,0,.78,0,1.3.53,1.31,1.31,0,.5,0,1,0,1.56Z"/></g></svg>