<?xml version="1.0" encoding="UTF-8"?><svg id="Layer_2" xmlns="http://www.w3.org/2000/svg" viewBox="0 0 50 50"><defs><style>.cls-1{fill:#ededed;stroke-width:0px;}</style></defs><g id="Layer_1-2"><path class="cls-1" d="M0,44.53c0-7.32,0-14.65,0-21.97.04-.14.08-.28.1-.42.24-1.19.75-2.25,1.61-3.12C7.09,13.64,12.46,8.26,17.85,2.89c1.1-1.09,2.41-1.89,3.9-2.31C22.75.31,23.78.19,24.8,0c.13,0,.26,0,.39,0,.19.03.38.07.58.08,2.46.18,4.63,1.09,6.38,2.82,5.4,5.35,10.76,10.73,16.12,16.11,1.13,1.13,1.71,2.54,1.72,4.13.02,6.92.02,13.83,0,20.75,0,1.99-.89,3.6-2.44,4.83-.86.69-1.87,1.02-2.91,1.27H5.37c-.11-.03-.21-.07-.32-.1-2.44-.57-4.06-2.04-4.82-4.44C.14,45.16.08,44.84,0,44.53ZM35.42,45.82c.21,0,.34.02.47.02,2.55,0,5.11,0,7.66,0,1.44,0,2.26-.83,2.26-2.28,0-6.67,0-13.35,0-20.02,0-.75-.25-1.35-.77-1.87-5.16-5.15-10.31-10.31-15.47-15.46-2.68-2.67-6.5-2.67-9.18,0-5.15,5.14-10.29,10.29-15.44,15.43-.54.54-.8,1.14-.8,1.91.01,6.66,0,13.31,0,19.97,0,1.51.81,2.32,2.32,2.32,2.51,0,5.01,0,7.52,0,.17,0,.34-.02.56-.03,0-.25,0-.46,0-.67.02-2.8-.1-5.61.08-8.39.4-6.24,6.53-10.68,12.62-9.27,4.84,1.12,8.12,5.25,8.14,10.29.01,2.47,0,4.95,0,7.42,0,.19,0,.38,0,.62ZM31.23,45.82c0-.12.02-.2.02-.28,0-2.7,0-5.4,0-8.1,0-.37-.06-.75-.14-1.11-.72-3.2-3.58-5.22-6.89-4.88-3.05.31-5.45,3.06-5.46,6.25,0,2.55,0,5.11,0,7.66,0,.14.01.29.02.45h12.46Z"/></g></svg>