<?xml version="1.0" encoding="UTF-8"?><svg id="Layer_2" xmlns="http://www.w3.org/2000/svg" viewBox="0 0 50 50"><defs><style>.cls-1{fill:#ededed;stroke-width:0px;}</style></defs><g id="Layer_1-2"><path class="cls-1" d="M15.53,0c.36.08.72.16,1.08.25,3.59.91,6.11,3.9,6.28,7.71.11,2.5.1,5.01-.05,7.5-.22,3.79-3.56,7.15-7.37,7.36-2.64.15-5.3.15-7.94,0-3.73-.21-6.87-3.24-7.43-6.95-.02-.12-.07-.24-.1-.36C0,12.82,0,10.12,0,7.42c.03-.09.07-.18.09-.27C.56,3.83,2.96,1.13,6.2.28c.4-.11.82-.19,1.22-.28,2.7,0,5.4,0,8.11,0ZM4.18,11.42c0,1.01,0,2.02,0,3.02.02,2.53,1.79,4.29,4.31,4.3,1.98,0,3.97,0,5.95,0,2.51,0,4.31-1.79,4.31-4.3,0-1.98,0-3.97,0-5.95,0-2.53-1.76-4.3-4.29-4.31-2-.01-4-.01-6,0-2.51.02-4.26,1.76-4.28,4.27-.01.99,0,1.98,0,2.97Z"/><path class="cls-1" d="M50,42.56c-.08.36-.15.72-.24,1.08-.94,3.74-4.22,6.31-8.08,6.33-2,.01-4,0-6,0-4.66,0-8.22-3.17-8.54-7.81-.17-2.44-.16-4.92,0-7.36.31-4.34,3.52-7.48,7.87-7.7,2.48-.13,4.98-.11,7.46.04,3.74.23,6.87,3.24,7.43,6.95.02.12.07.24.1.36v8.1ZM38.52,45.79c1.12,0,2.25.03,3.37,0,2.12-.07,3.87-1.8,3.91-3.92.05-2.23.05-4.45,0-6.68-.05-2.16-1.84-3.91-4-3.94-2.18-.03-4.36-.03-6.54,0-2.17.04-3.97,1.84-4,4-.04,2.18-.03,4.36,0,6.53.03,2.16,1.79,3.93,3.95,4,1.1.04,2.21,0,3.32,0Z"/><path class="cls-1" d="M0,34.46c.08-.36.16-.72.25-1.08.92-3.59,3.92-6.11,7.71-6.28,2.5-.11,5.01-.1,7.51.05,3.8.23,7.15,3.56,7.36,7.37.15,2.64.16,5.3,0,7.94-.24,4.09-3.83,7.42-7.93,7.5-2.31.05-4.62.05-6.93,0-3.9-.09-7.33-3.17-7.89-7.04-.02-.12-.06-.24-.1-.37,0-2.7,0-5.4,0-8.1ZM4.18,38.49c0,1.01,0,2.02,0,3.02.02,2.51,1.76,4.26,4.26,4.28,2.02.02,4.03.02,6.05,0,2.49-.02,4.25-1.8,4.26-4.3,0-1.98,0-3.97,0-5.95,0-2.51-1.79-4.31-4.3-4.32-1.98,0-3.97,0-5.95,0-2.53,0-4.3,1.76-4.32,4.28,0,.99,0,1.98,0,2.97Z"/><path class="cls-1" d="M35.42,10.42c0-.25,0-.44,0-.63,0-1.9,0-3.81.01-5.71,0-.89.6-1.63,1.43-1.9.81-.26,1.77-.02,2.23.68.27.41.45.95.46,1.44.05,1.84.02,3.68.02,5.51,0,.18,0,.35,0,.6.23,0,.42,0,.61,0,1.92,0,3.84-.01,5.76.01,1.05.02,1.84.82,1.96,1.88.11.96-.55,1.92-1.51,2.17-.28.07-.58.08-.87.08-1.95,0-3.9,0-5.95,0,0,.21,0,.4,0,.58,0,1.9,0,3.81,0,5.71,0,.86-.44,1.49-1.21,1.85-.76.35-1.5.24-2.16-.27-.55-.43-.78-1.01-.78-1.71,0-1.85,0-3.71,0-5.56,0-.18,0-.35,0-.6-.23,0-.42,0-.61,0-1.92,0-3.84.01-5.76-.01-1.05-.02-1.84-.82-1.96-1.88-.11-.96.55-1.92,1.51-2.17.26-.07.55-.07.82-.08,1.79,0,3.58,0,5.37,0,.18,0,.36,0,.63,0Z"/></g></svg>