<?xml version="1.0" encoding="UTF-8"?><svg id="Layer_2" xmlns="http://www.w3.org/2000/svg" viewBox="0 0 50 50"><defs><style>.cls-1{fill:#ccf2c2;stroke-width:0px;}</style></defs><g id="Layer_1-2"><path class="cls-1" d="M25.49,0c.1.05.19.11.29.16.81.37,1.29.99,1.29,1.89.01,2.11.02,4.22,0,6.34-.01,1.15-.95,2.04-2.07,2.04-1.12,0-2.05-.89-2.06-2.04-.02-2.11-.02-4.22,0-6.34,0-.9.48-1.52,1.29-1.89.1-.05.19-.1.29-.15.33,0,.65,0,.98,0Z"/><path class="cls-1" d="M50,25.49c-.05.1-.11.19-.16.29-.37.82-.99,1.29-1.89,1.29-2.11.02-4.22.02-6.34,0-1.15-.01-2.04-.94-2.03-2.07,0-1.12.89-2.05,2.04-2.06,2.11-.02,4.22-.02,6.34,0,.9,0,1.52.48,1.89,1.29.04.1.1.19.16.29v.98Z"/><path class="cls-1" d="M24.51,50c-.1-.05-.19-.11-.29-.16-.81-.37-1.29-.99-1.29-1.89-.01-2.11-.02-4.22,0-6.34.01-1.15.94-2.04,2.06-2.04,1.12,0,2.05.89,2.07,2.04.02,2.11.02,4.22,0,6.34,0,.9-.48,1.52-1.29,1.89-.1.04-.19.1-.29.16h-.98Z"/><path class="cls-1" d="M35.41,24.69c.24,5.67-4.3,10.48-10.13,10.72-5.64.24-10.46-4.32-10.7-10.11-.23-5.68,4.32-10.49,10.13-10.72,5.65-.22,10.45,4.31,10.7,10.11ZM31.25,24.99c0-3.42-2.82-6.24-6.25-6.24-3.43,0-6.25,2.81-6.25,6.23,0,3.45,2.82,6.27,6.27,6.27,3.42,0,6.23-2.83,6.23-6.26Z"/><path class="cls-1" d="M5.23,22.93c1.01,0,2.02,0,3.03,0,1.25.01,2.18.92,2.16,2.09-.02,1.16-.93,2.04-2.16,2.05-2.03.01-4.07.01-6.1,0C.91,27.06-.01,26.16,0,24.98c.01-1.16.92-2.04,2.15-2.05,1.02-.01,2.05,0,3.07,0Z"/><path class="cls-1" d="M14.58,12.53c-.04.87-.43,1.54-1.24,1.87-.82.34-1.61.23-2.26-.4-.96-.93-1.89-1.88-2.84-2.82-.45-.45-.91-.89-1.34-1.35-.84-.88-.85-2.11-.04-2.94.82-.84,2.09-.86,2.97,0,1.38,1.35,2.74,2.73,4.11,4.1.42.42.65.92.64,1.53Z"/><path class="cls-1" d="M35.45,37.22c.03-.6.43-1.25,1.24-1.6.83-.36,1.6-.21,2.26.4.49.45.95.94,1.42,1.41.94.94,1.9,1.87,2.82,2.84.69.73.76,1.75.23,2.56-.52.79-1.5,1.15-2.4.81-.32-.12-.64-.34-.89-.58-1.35-1.32-2.67-2.66-4.01-3.99-.43-.43-.69-.94-.67-1.84Z"/><path class="cls-1" d="M37.28,14.57c-.64-.02-1.28-.41-1.64-1.19-.37-.8-.29-1.59.32-2.22,1.43-1.49,2.89-2.95,4.38-4.38.77-.74,1.97-.68,2.75.04.77.71.89,1.89.26,2.75-.11.16-.25.3-.39.44-1.31,1.31-2.62,2.62-3.93,3.94-.42.43-.93.64-1.75.63Z"/><path class="cls-1" d="M14.58,37.52c0,.57-.2,1.05-.6,1.45-1.4,1.41-2.79,2.82-4.21,4.21-.79.78-2.08.75-2.87-.01-.8-.77-.89-2.05-.11-2.86,1.42-1.47,2.87-2.92,4.35-4.35.63-.61,1.42-.7,2.22-.34.8.36,1.19,1.02,1.22,1.89Z"/></g></svg>