<?xml version="1.0" encoding="UTF-8"?><svg id="Layer_2" xmlns="http://www.w3.org/2000/svg" viewBox="0 0 50 50"><defs><style>.cls-1{fill:#ccf2c2;stroke-width:0px;}</style></defs><g id="Layer_1-2"><path class="cls-1" d="M0,24.51s.07-.06.09-.1c.44-1.07,1.04-1.48,2.21-1.48,2.91-.01,5.82-.02,8.74-.03,7.78-.02,15.55-.03,23.33-.04.14,0,.28,0,.57,0-.35-.41-.61-.74-.9-1.03-2.58-2.59-5.17-5.18-7.77-7.77-.6-.6-.86-1.3-.63-2.13.39-1.46,2.15-2.02,3.32-1.06.14.11.26.24.39.37,2.55,2.55,5.11,5.11,7.66,7.66,3.54,3.55,3.55,8.64.01,12.18-2.61,2.61-5.22,5.23-7.84,7.83-1.2,1.2-3.11.75-3.54-.83-.23-.84.03-1.56.65-2.17,2.2-2.19,4.4-4.39,6.59-6.59.43-.43.86-.84,1.27-1.28.26-.28.5-.59.74-.89-.02-.05-.03-.09-.05-.14-.2,0-.39,0-.59,0-10.53.02-21.05.02-31.58.07-1.29,0-2.2-.38-2.69-1.61v-.98Z"/><path class="cls-1" d="M34.96,50c-.72-.28-1.31-.71-1.54-1.5-.4-1.37.59-2.65,2.09-2.67,1.33-.02,2.67,0,4,0,3.19-.02,5.67-2.1,6.24-5.23.07-.38.08-.78.08-1.17,0-9.62,0-19.23,0-28.85,0-3.25-2.08-5.75-5.25-6.32-.38-.07-.78-.07-1.17-.08-1.24,0-2.47,0-3.71,0-1.27,0-2.12-.63-2.32-1.71-.2-1.08.34-1.92,1.52-2.4.03-.01.05-.04.07-.07h5.57c.11.03.22.07.33.09,4.22.53,7.65,3.5,8.77,7.59.15.56.25,1.13.38,1.7,0,10.42,0,20.83,0,31.25-.03.09-.07.18-.09.27-.67,4.23-3.02,7.09-7.03,8.55-.72.26-1.5.37-2.25.56-1.89,0-3.78,0-5.66,0Z"/></g></svg>