<?xml version="1.0" encoding="UTF-8"?><svg id="Layer_2" xmlns="http://www.w3.org/2000/svg" viewBox="0 0 50 50"><defs><style>.cls-1{fill:#ededed;stroke-width:0px;}</style></defs><g id="Layer_1-2"><path class="cls-1" d="M15.26,0c.16.07.33.13.49.21.8.38,1.27,1.24,1.17,2.12-.1.87-.73,1.6-1.64,1.77-2.05.39-4,1.02-5.82,2.04-2.21,1.23-4.08,2.84-5.61,4.85-.4.53-.9.89-1.58.94-.95.07-1.76-.44-2.11-1.33-.05-.12-.1-.23-.15-.35,0-.26,0-.52,0-.78.21-.36.37-.76.62-1.09C3.6,4.56,7.42,1.97,12.08.59c.76-.22,1.53-.4,2.3-.59.29,0,.59,0,.88,0Z"/><path class="cls-1" d="M6.04,34.32c-.9-.9-1.81-1.79-2.7-2.69C1.28,29.54.14,27.04.11,24.11c-.04-4.17,1.75-7.41,5.27-9.64,4.1-2.59,8.24-5.12,12.38-7.65,6.38-3.9,14.73-3.46,20.68,1.06.14.11.29.21.46.34,1.14-1.14,2.27-2.27,3.39-3.4.47-.48,1.04-.74,1.71-.68.87.08,1.5.53,1.8,1.36.3.83.12,1.58-.5,2.2-.99,1.01-2,2.01-3.01,3.01-.15.15-.33.26-.5.4,1.48,1.88,2.57,3.85,3.23,6.03,1.62,5.36,1.06,10.49-1.83,15.3-2.45,4.09-4.96,8.14-7.48,12.19-2.25,3.61-5.55,5.39-9.8,5.34-2.01-.02-3.88-.64-5.56-1.75-.26-.17-.42-.17-.68,0-6,4.04-13.99.72-15.33-6.38-.46-2.44,0-4.76,1.29-6.89.13-.21.26-.41.41-.65ZM27.58,8.35c-2.91.01-5.39.67-7.65,2.05-4.11,2.51-8.22,5.04-12.31,7.58-3.94,2.45-4.51,7.52-1.23,10.8,4.97,4.96,9.93,9.93,14.91,14.88,3.37,3.36,8.44,2.77,10.94-1.28,2.51-4.07,5.02-8.14,7.5-12.23,1.72-2.84,2.36-5.95,1.9-9.23-1-7.26-6.99-12.5-14.06-12.57ZM9.06,37.45c-1.24,1.95-.83,4.9.94,6.67,1.75,1.74,4.88,2.19,6.73.99-2.55-2.54-5.1-5.09-7.68-7.66Z"/><path class="cls-1" d="M50,35.82c-.21.79-.46,1.97-.85,3.1-1.45,4.26-3.96,7.76-7.52,10.52-1.06.82-2.31.72-3.08-.25-.73-.93-.54-2.21.48-3.01,3.67-2.86,5.94-6.57,6.84-11.13.22-1.14,1.2-1.87,2.29-1.74,1.07.13,1.85,1.03,1.83,2.5Z"/></g></svg>