<?xml version="1.0" encoding="UTF-8"?><svg id="Layer_2" xmlns="http://www.w3.org/2000/svg" viewBox="0 0 50 50"><defs><style>.cls-1{fill:#ededed;stroke-width:0px;}</style></defs><g id="Layer_1-2"><path class="cls-1" d="M0,13.29c0-1.3,0-2.6,0-3.91.03-.09.08-.18.09-.27C.75,3.96,5.11.03,10.3.02c9.8-.03,19.59-.02,29.39,0,4.65.01,8.68,3.17,9.93,7.65.45,1.63.38,3.29.36,4.94-.02,1.61-.6,3.02-1.72,4.18-.26.27-.36.53-.35.9,0,7.22.01,14.45,0,21.67,0,4.94-3.11,9.04-7.78,10.28-.55.15-1.11.23-1.66.35H11.52c-.89-.22-1.82-.37-2.68-.68-4.16-1.54-6.76-5.39-6.77-9.94,0-7.24,0-14.48,0-21.71,0-.35-.09-.6-.34-.85-.71-.71-1.2-1.57-1.48-2.54-.09-.32-.17-.65-.26-.98ZM6.25,18.77v.52c0,6.7,0,13.41,0,20.11,0,3.7,2.7,6.42,6.4,6.42,8.23,0,16.47,0,24.7,0,3.7,0,6.39-2.72,6.39-6.42,0-6.7,0-13.41,0-20.11,0-.17,0-.34,0-.52H6.25ZM24.97,14.58c6.1,0,12.2,0,18.31,0,.23,0,.46,0,.68-.02.89-.07,1.77-.77,1.8-1.65.05-1.33.11-2.69-.15-3.98-.6-2.89-3.12-4.75-6.16-4.75-6.95,0-13.9,0-20.85,0-2.73,0-5.47-.02-8.2,0-2.93.02-5.43,1.92-6.01,4.75-.27,1.28-.16,2.65-.16,3.98,0,.3.23.64.43.91.46.61,1.12.76,1.86.76,6.15,0,12.3,0,18.45,0Z"/><path class="cls-1" d="M24.99,29.18c-2.03,0-4.07,0-6.1,0-1.49,0-2.49-1.21-2.17-2.57.22-.95,1.07-1.59,2.13-1.59,3.43,0,6.87,0,10.3,0,.67,0,1.33,0,2,0,1.24,0,2.15.86,2.17,2.03.02,1.2-.86,2.11-2.12,2.13-1.55.02-3.09,0-4.64,0-.52,0-1.04,0-1.56,0Z"/></g></svg>