<?xml version="1.0" encoding="UTF-8"?><svg id="Layer_2" xmlns="http://www.w3.org/2000/svg" viewBox="0 0 168 91"><defs><style>.cls-1{stroke:#999;}.cls-1,.cls-2{fill:#fff;stroke-miterlimit:10;}.cls-3{fill:#333;stroke-width:0px;}.cls-2{stroke:#9ef8ee;}</style></defs><g id="Layer_1-2"><rect class="cls-1" x=".5" y=".5" width="41" height="60" rx="6.81" ry="6.81"/><rect class="cls-2" x="63.5" y=".5" width="41" height="60" rx="6.81" ry="6.81"/><rect class="cls-1" x="126.5" y=".5" width="41" height="60" rx="6.81" ry="6.81"/><circle class="cls-1" cx="84" cy="81.5" r="9"/><path class="cls-3" d="M89.83,78.36c-.06.29-.24.5-.44.7-2.11,2.1-4.21,4.2-6.31,6.31-.28.28-.61.41-1,.27-.14-.05-.28-.14-.39-.25-1.08-1.07-2.15-2.14-3.21-3.21-.43-.43-.4-1.06.07-1.42.37-.29.88-.23,1.25.13.82.82,1.65,1.65,2.47,2.47.03.03.06.07.1.13.04-.06.06-.1.09-.12,1.91-1.91,3.83-3.83,5.74-5.74.28-.28.6-.39.98-.27.34.11.54.34.62.68,0,.03.02.05.02.07v.25Z"/></g></svg>