<?xml version="1.0" encoding="UTF-8"?><svg id="Layer_2" xmlns="http://www.w3.org/2000/svg" viewBox="0 0 42 61"><defs><style>.cls-1{fill:#fff;stroke:#0061c2;stroke-miterlimit:10;}.cls-2{fill:#4d4d4d;stroke-width:0px;}</style></defs><g id="Layer_1-2"><rect class="cls-1" x=".5" y=".5" width="41" height="60" rx="6.81" ry="6.81"/><path class="cls-2" d="M17.31,26.82H6.46v-10.86h10.85v10.86ZM8.68,18.18v6.41h6.4v-6.41h-6.4Z"/><path class="cls-2" d="M24.69,15.95h10.85v10.87h-10.85v-10.87ZM33.32,18.2h-6.39v6.4h6.39v-6.4Z"/><path class="cls-2" d="M6.44,45.05v-10.86h10.87v10.86H6.44ZM8.67,42.82h6.41v-6.4h-6.41v6.4Z"/><path class="cls-2" d="M33.32,35.3h2.22v9.75h-9.31v-2.2h2.69v-1.64h2.22v1.6h2.18v-7.52Z"/><path class="cls-2" d="M19.91,34.18h2.2v4.19h1.64v2.21h-1.6v2.24h1.81v2.21h-4.04v-10.86Z"/><path class="cls-2" d="M19.59,29.41h8.23v2.19h-8.23v-2.19Z"/><path class="cls-2" d="M26.7,38.07v-1.66h-1.79v-2.21h5.81v2.19h-1.79c0,.48-.01.92,0,1.36,0,.23-.06.33-.31.32-.63-.02-1.25,0-1.92,0Z"/><path class="cls-2" d="M35.56,29.41v3.61h-2.21v-1.39h-3.24v-2.22h5.45Z"/><path class="cls-2" d="M19.91,20.41h2.19v6.4h-2.19v-6.4Z"/><path class="cls-2" d="M10.91,31.59v-2.18h6.41v2.18h-6.41Z"/><path class="cls-2" d="M19.9,18.14v-2.18h2.18v2.18h-2.18Z"/><path class="cls-2" d="M8.65,29.42v2.17h-2.2v-2.17h2.2Z"/><path class="cls-2" d="M10.79,20.29h2.17v2.17h-2.17v-2.17Z"/><path class="cls-2" d="M31.21,22.48h-2.17v-2.19h2.17v2.19Z"/><path class="cls-2" d="M10.78,40.72v-2.18h2.18v2.18h-2.18Z"/></g></svg>