<?xml version="1.0" encoding="UTF-8"?><svg id="Layer_2" xmlns="http://www.w3.org/2000/svg" viewBox="0 0 50 50"><defs><style>.cls-1{fill:#ededed;stroke-width:0px;}</style></defs><g id="Layer_1-2"><path class="cls-1" d="M2.56,0c1.25.45,1.65,1.37,1.65,2.66-.02,13.59-.01,27.18-.02,40.77,0,.66.1,1.26.58,1.75.38.39.83.62,1.38.63.21,0,.42,0,.63,0,13.52,0,27.04,0,40.56-.01,1.29,0,2.21.4,2.66,1.65v.88c-.27.84-.83,1.39-1.66,1.66H5.49s-.08-.06-.12-.07C2.6,49.59-.01,47.03,0,43.39.05,29.79.03,16.19,0,2.58,0,1.3.44.42,1.68,0h.88Z"/><path class="cls-1" d="M50,25.39c-.29.86-.79,1.5-1.74,1.65-1.35.22-2.43-.75-2.44-2.18-.01-2.23,0-4.46,0-6.69,0-.18,0-.35,0-.66-.2.18-.32.3-.44.41-3.17,3.07-6.38,6.09-9.48,9.22-2.5,2.52-6.54,2.48-8.89.38-.9-.81-1.94-1.48-2.94-2.17-.83-.58-1.89-.44-2.68.32-1.85,1.77-3.68,3.54-5.52,5.32-1.3,1.25-2.59,2.51-3.9,3.76-.89.84-2.07.89-2.91.14-.95-.85-.95-2.2.02-3.14,1.79-1.73,3.59-3.46,5.38-5.18,1.34-1.29,2.68-2.57,4.01-3.86,2.38-2.3,6.08-2.41,8.62-.3.97.81,2.02,1.54,3.06,2.25.81.56,1.87.41,2.64-.33,1.83-1.76,3.65-3.53,5.47-5.3,1.38-1.34,2.76-2.67,4.13-4.01.12-.11.24-.21.37-.32-.01-.04-.03-.09-.04-.13-.16,0-.33,0-.49,0-2.26,0-4.52.01-6.78,0-1.39-.01-2.33-1.21-2.03-2.54.2-.88.96-1.58,1.87-1.58,3.03-.02,6.05-.07,9.08.02,2.67.08,5.08,2.38,5.56,5.08.02.12.07.25.1.37v9.47Z"/></g></svg>