<?xml version="1.0" encoding="UTF-8"?><svg id="Layer_2" xmlns="http://www.w3.org/2000/svg" viewBox="0 0 50 50"><defs><style>.cls-1{fill:#ededed;stroke-width:0px;}</style></defs><g id="Layer_1-2"><path class="cls-1" d="M25.38,50h-.88c-.45-.3-.94-.57-1.35-.92-2.81-2.36-5.61-4.74-8.43-7.1-.21-.18-.54-.29-.82-.29-1.84-.03-3.67,0-5.51-.02-3.93-.03-7.19-2.57-8.14-6.32-.09-.36-.17-.72-.25-1.08C0,25.33,0,16.37,0,7.42c.03-.09.07-.18.09-.27C.56,3.84,2.96,1.13,6.2.28,6.6.18,7.01.09,7.42,0c11.72,0,23.43,0,35.15,0,.06.03.11.07.17.08,3.87.45,7.29,3.88,7.26,8.55-.05,8.14-.01,16.27-.02,24.41,0,.52-.03,1.04-.1,1.56-.46,3.62-3.69,6.77-7.33,7-2.11.13-4.23.07-6.34.08-.41,0-.73.1-1.05.37-2.77,2.36-5.55,4.72-8.35,7.05-.43.36-.95.61-1.42.91ZM24.99,45.19c.18-.15.33-.28.48-.4,2.44-2.06,4.87-4.11,7.3-6.18.88-.75,1.88-1.12,3.04-1.11,1.89.02,3.77,0,5.66,0,2.53,0,4.32-1.76,4.33-4.28.01-8.25.01-16.5,0-24.75,0-2.54-1.77-4.29-4.31-4.29-11,0-22,0-32.99,0-2.57,0-4.32,1.75-4.33,4.32,0,8.22,0,16.44,0,24.65,0,2.59,1.77,4.34,4.36,4.35,1.92,0,3.84,0,5.76,0,1.05,0,1.98.33,2.78,1,.57.48,1.14.96,1.72,1.45,2.05,1.73,4.1,3.46,6.2,5.24Z"/><path class="cls-1" d="M25,18.75c3.45,0,6.9,0,10.34,0,.92,0,1.59.42,1.97,1.26.35.77.18,1.65-.4,2.26-.5.52-1.13.66-1.82.66-5.76,0-11.51,0-17.27,0-1.02,0-2.05,0-3.07,0-1.33-.01-2.26-.9-2.25-2.12.01-1.2.95-2.05,2.25-2.05,3.42,0,6.83,0,10.25,0Z"/><path class="cls-1" d="M24.94,31.25c-3.43,0-6.86,0-10.29,0-1.49,0-2.51-1.36-2.05-2.73.27-.81.86-1.28,1.71-1.41.18-.03.36-.03.53-.03,6.77,0,13.53,0,20.3,0,1.13,0,1.91.5,2.23,1.4.48,1.37-.51,2.76-1.99,2.77-2.67.02-5.33,0-8,0-.81,0-1.63,0-2.44,0Z"/><path class="cls-1" d="M19.78,10.43c1.77,0,3.54-.02,5.32,0,.99.01,1.82.78,1.95,1.73.14,1.04-.42,1.98-1.39,2.3-.18.06-.38.1-.57.1-3.53,0-7.06.01-10.58,0-.89,0-1.63-.6-1.9-1.42-.27-.85-.01-1.81.75-2.29.39-.25.9-.4,1.36-.41,1.69-.05,3.38-.02,5.07-.02,0,0,0,0,0,0Z"/></g></svg>