<?xml version="1.0" encoding="UTF-8"?><svg id="Layer_2" xmlns="http://www.w3.org/2000/svg" viewBox="0 0 236.91 146.54"><defs><style>.cls-1{fill:#000;stroke-width:0px;}</style></defs><g id="Layer_1-2"><path class="cls-1" d="M24.11,91.25c3.83.75,7.8,1.52,11.66,2.53,7.15,1.59,14.13,2.75,20.83,3.44,1.7.06,3.43.3,5.1.53,1.65.23,3.36.47,5.1.54.93.01,1.85.19,2.82.38.95.18,1.93.37,2.97.41l3.35.06c3.06.05,6.17.11,9.3.11,2.64,0,5.29-.04,7.93-.15l1.52-.13c3.45-.3,7.02-.61,10.54-.67h.12c3.35-.45,6.8-.57,10.13-.68,1.17-.04,2.34-.08,3.6-.14,1.99-.27,4.04-.42,6.03-.56,2.08-.15,4.24-.31,6.35-.6,2.32-.31,4.62-.79,6.85-1.25,1.07-.22,2.13-.45,3.17-.64,2.24-.35,4.53-.64,6.74-.92,3.77-.48,7.67-.98,11.48-1.76,3.9-.82,7.57-2.4,11.11-3.93.58-.25,1.17-.5,1.68-.72,1.83-.6,3.88-1.23,6.06-1.9,3.82-1.17,8.16-2.49,12.22-3.99,1.45-.63,2.98-1.17,4.46-1.69,1.41-.49,2.86-1,4.26-1.6,1.76-.73,3.51-1.48,5.27-2.24,2.15-.92,4.37-1.88,6.56-2.77,8.02-3.15,15.77-7.6,23.71-13.61l-1.1-1.66c-5.15,2.96-10.4,5.54-15.58,7.66-3.63,1.21-7.8,2.58-11.36,3.56-9.7,3.32-19.17,6.02-31.62,9-2.86.51-5.56,1.56-8.16,2.58-.84.33-1.68.66-2.52.97-3.25,1.15-4.96,1.44-8.06,1.98l-1.27.22c-1.98.27-3.96.52-5.95.77-2.78.35-5.65.71-8.48,1.13-1.12.17-2.22.43-3.29.67-1.36.31-2.64.6-4.03.76-2.77.5-5.78.8-9.51.95-.78.07-1.56.16-2.34.24-1.41.16-2.86.32-4.3.36-1.18.06-2.37.07-3.55.09-1.3.02-2.64.04-4.03.12-2.4.29-5.55.62-8.69.62h-.09c-1.49-.01-2.89.16-4.28.32-1.04.12-2.12.25-3.19.29-2.43.14-4.93.15-7.34.16-.92,0-1.85,0-2.75.02-1.76,0-3.53.03-5.29.06-2.18.04-4.44.09-6.66.05-2.26-.43-4.55-.49-6.76-.54l-.83-.02c-3.01-.28-6.06-.4-9.02-.51-3.5-.13-7.11-.27-10.68-.69-3.04-.2-6.13-.6-9.12-.98-2.06-.26-4.2-.54-6.33-.75-1.62-.13-3.24-.24-4.87-.35-6.11-.42-12.43-.85-18.44-2.23-.55-.14-1.1-.27-1.66-.39l-.32-.07-.58,1.91,1.08.41c6.48,2.61,13.37,3.96,20.04,5.25Z"/><path class="cls-1" d="M234.96,62.01l-.76,2.96c-1.41,5.47-2.87,11.12-4.8,16.51-1.71,4.68-3.71,7.99-6.07,10.07-2.77,2.2-5.97,3.93-9.07,5.6-2.37,1.28-4.82,2.6-7.04,4.1-1.82,1.01-3.36,2.35-4.85,3.64-.54.47-1.07.93-1.64,1.4-.67.56-1.26,1.14-1.84,1.7-1.04,1.02-2.03,1.98-3.28,2.65-5.25,2.97-9.82,4.08-15.12,5.35-2.02.49-4.11.99-6.37,1.64-2.77.92-4.97,1.8-6.89,2.74-.67.31-1.31.66-1.94.99-1.12.61-2.19,1.18-3.33,1.51l-.1.04c-3.37,1.38-6.27,2.06-9.62,2.84-1.81.42-3.67.86-5.9,1.46-2.05.67-2.98.82-5.33,1.21-1.7.44-3.51.88-5.3,1.01-.78.05-1.47.26-2.15.46l-.35.11c-1.94.36-3.88.76-5.76,1.16-2.67.41-5.43.58-8.1.75-3.74.23-7.61.46-11.32,1.36-.47.09-.94.2-1.41.31-.27.06-.54.13-.81.19l.31,1.97.71-.07c.62-.06,1.24-.12,1.91-.15,3.45-.33,6.98-.1,10.41.12,2.21.14,4.5.29,6.79.29h.18c3.16-.1,6.34-.48,9.31-.87,1.79.05,3.69-.11,5.86-.49l.53-.04c1.4-.1,2.85-.2,4.26-.53,1.98-.42,4.03-.73,6.01-1.04,3.71-.57,7.54-1.16,11.21-2.46,1.37-.34,2.62-.93,3.84-1.51-1.09,1.78-3.3,4.64-6.66,5.59-1.35.35-2.74.44-4.22.52-.88.05-1.79.11-2.62.22-1.35.07-2.69.17-4.04.27-3.15.23-6.4.47-9.59.37h-.08s-.08,0-.08,0c-2.78.36-5.35.99-7.84,1.6-1.35.33-2.75.67-4.11.96-1.07.16-2.14.22-3.28.28-.72.04-1.44.07-2.25.15-2.88.55-5.54.87-8.15,1-2.86.22-6.01,1.11-8.04,1.74-1.59.34-3.27.47-4.89.59l-.92.07c-1.78.13-3.57.27-5.38.42-.21.02-.47-.05-.7-.2l-.11-.1c-.29-.26-.56-.5-.73-.75-.1-.23-.16-.5-.21-.79.61-.02,1.18-.06,1.72-.11.49.03.98.07,1.47.11.89.08,1.81.16,2.75.14l.64-.02c1.17-.04,2.28-.07,3.44.17.61.07,1.54.19,1.72-.76.18-.93-.71-1.18-1.19-1.31-.26-.07-.59-.16-.86-.26-1.04-.34-2.1-.48-3.12-.61-.85-.11-1.65-.22-2.38-.41-1.63-.52-3.29-.68-4.89-.84-1.12-.11-2.18-.21-3.18-.42-1.03-.26-2.17-.52-3.37-.8-1.36-.31-2.78-.64-4.16-.99l-.11-.02c-1.72-.23-2.8-.51-4.16-.88-.49-.13-1.01-.27-1.58-.41-2.51-.7-4.7-1.52-6.69-2.49l-2.02-.65c-1.93-.62-3.94-1.25-5.97-1.8-.99-.24-1.93-.45-2.84-.66-4.62-1.06-8.27-1.89-12.97-4.17-4.93-2.05-8.99-4.34-12.42-7.01-1.36-1.03-2.62-2.22-3.95-3.49-1.36-1.29-2.77-2.62-4.31-3.79-2.13-1.56-4.45-2.86-6.69-4.11-.98-.55-1.95-1.09-2.93-1.67-3.54-1.98-6.12-5.16-8.4-8.33-1.96-2.59-3.56-4.82-4.96-7.27l-1.79.89c1.55,3.59,3.52,6.94,5.41,10.06l.08.13c1.37,2.27,2.79,4.62,4.76,6.5,1.79,1.9,3.91,3.4,5.95,4.86.86.61,1.72,1.22,2.55,1.86l.09.06c2.78,1.69,5.07,4.07,7.48,6.59,2.24,2.33,4.56,4.75,7.41,6.75,2.95,2.17,5.94,3.86,8.81,5.01,1.87.93,4.06,1.97,6.33,2.61,2.86.94,5.82,1.46,8.69,1.96,1.9.33,3.85.67,5.74,1.13.66.16,1.32.3,1.99.45.95.21,1.94.42,2.8.65l.36.13c1.44.52,2.93,1.06,4.53,1.28,2.78.73,5.64.98,8.41,1.22,1.03.09,2.05.18,3.07.29,2.5.29,4.63.43,6.6.44,0,.02,0,.04,0,.07.13,1.12.29,2.38,1.37,3.41,1.16,1.48,2.96,1.53,4.4,1.57.54.02,1.05.03,1.49.11h.11c.57.05,1.14.1,1.7.14,1.43.11,2.89.23,4.39.23.54,0,1.08-.01,1.63-.05.54-.08,1.09-.16,1.64-.24,2.33-.35,4.73-.71,7.09-.58,2.35.09,4.89-.04,7.67-.4.58-.02,1.16-.02,1.74-.02,1.36,0,2.76-.02,4.22-.23,1.95-.4,3.79-.89,5.57-1.36,1.94-.52,3.95-1.05,6.07-1.46,4.21-.15,8.38-.95,12.4-1.73l2.04-.39c.7-.18,1.41-.32,2.13-.47,1.73-.35,3.53-.71,5.2-1.59,3.75-1.99,5.93-5.63,7.11-8.33l-1.61-.83c.7-.34,1.38-.66,2.1-.93,1.81-.77,3.8-1.45,6.4-2.21.65-.15,1.36-.3,2.12-.47,6.15-1.34,15.44-3.37,21.28-7.98,1.08-.99,2.14-2.05,3.16-3.07,1.97-1.96,4-4,6.24-5.58,2.07-1.52,4.28-2.94,6.43-4.3,3.33-2.13,6.78-4.33,9.86-7.04,4.54-4.35,6.62-10.49,8.19-16.49,1.56-6.24,2.7-12.67,3.7-18.35l-1.95-.43Z"/><path class="cls-1" d="M20.54,72.22c.33-.4.88-.66,1.46-.94.33-.16.65-.31.97-.5.46-.28.95-.51,1.47-.75.33-.15.65-.31.96-.47.14-.07.35-.12.57-.17.36-.09.8-.19,1.17-.43.35-.18.81-.2,1.35-.21.28,0,.56-.02.84-.05l.12-.02c.28-.06.55-.16.82-.26.3-.11.56-.21.75-.22,1.44,0,2.02-.12,3.23-.51.94-.02,1.85-.34,2.58-.61.23-.08.45-.16.65-.22,3.09-.92,3.18-3.62,3.26-5.79v-.2c0-.97.04-1.97.08-2.95.08-1.88.17-3.82-.13-5.82l-.11-.48q-.32-1.39-.31-3.08v-.7s.16-.41.16-.41c.06-.2.12-.4.17-.6.21-.32.34-.59.46-.83.14-.29.26-.52.45-.78.14-.18.26-.35.37-.54.15-.24.26-.42.51-.63.13-.11.61-.36.93-.52.23-.12.45-.23.65-.34l.07-.02c.17-.04.4-.11.55-.15l.22-.09c.13-.07.48-.21.77-.33l.24-.1c1-.12,2.39-.41,3.51-1.39.53-.34.94-.77,1.3-1.15.12-.12.23-.25.35-.37,1.01-.73,1.66-1.34,2.18-1.83.6-.57,1.03-.98,1.78-1.36l.92-.47c1.27-.65,2.47-1.27,3.75-1.72l.16-.07c1.12-.63,2.26-1.14,3.58-1.73,1.95-.73,3.79-2.28,4.67-3.03.16-.13.28-.24.37-.3,2.72-2.11,4.8-4.3,6.41-6.73.34-.6.97-1.17,1.7-1.84.26-.24.53-.48.8-.75.04-.03.09-.05.14-.08l.14-.08c.31-.18,1.81-.43,3.45-.29,1.74.49,6.05,3.16,8.75,5.22.23.2.54.51.93.89,1.86,1.83,4.97,4.88,7.85,5.77l.85.31c1.89.7,2.68.99,3.96,2.11.53.4,1.08.69,1.61.97.25.13.51.27.72.39.22.14.46.32.73.51.6.43,1.35.97,2.11,1.33.87.55,1.88.81,2.63.94.44.24.93.37,1.38.49.27.07.54.14.77.24l.46.19c.61.25,1.18.48,1.6.75.24.19.47.47.71.77.03.03.05.07.08.1,0,.04-.02.07-.03.1-.04.18-.08.35-.11.44-.07.23-.16.48-.26.74-.26.7-.55,1.49-.62,2.31-.07.68-.09,1.37-.1,2.01-.16.4-.37,1.05-.4,1.36-.39,3.64-.22,7.34-.05,10.92.09,1.96.19,3.99.19,5.94-.02.64.03,1.56.62,2.35.05.11.09.23.13.35.1.29.23.64.46.98.17.33.3.71.44,1.12.23.68.5,1.44,1.04,2.14.65.81.66,1.98.66,3.21,0,.55,0,1.12.06,1.68l1.99-.12c0-.47.02-.95.04-1.44.07-1.31.13-2.67-.33-4.02l-.04-.1c-.12-.26-.26-.52-.39-.78-.34-.65-.67-1.27-.74-1.9l-.02-.12c-.14-.59-.35-1.13-.56-1.65-.16-.41-.31-.79-.42-1.17l-.06-.16c-.03-.06-.06-.12-.09-.19.04-1.21.08-2.42.11-3.62l.05-1.8c.04-1.08.06-2.15.09-3.23.05-1.8.09-3.6.17-5.37v-.22c.04-.46.07-.86.26-1.24.53-1.29.56-2.04.6-2.69.02-.34.03-.61.11-.95,1.95-3.92,1.91-7.57-.12-10.03-1.17-1.95-3.18-2.82-4.95-3.58-.5-.21-.99-.43-1.46-.66l-.14-.06c-.18-.06-.37-.11-.55-.16-.39-.1-.69-.18-.93-.35l-.1-.06c-.85-.47-1.52-1-2.22-1.56,3.59-4.52,6.77-8.01,9.46-10.34.74-.61,1.51-1.16,2.33-1.73.79-.56,1.61-1.14,2.45-1.83.25-.24.48-.48.71-.71.43-.44.8-.82,1.25-1.17l.14-.13c.22-.24.61-.36,1.07-.48l.22-.08c.45-.19.87-.38,1.25-.39,1.83-.07,3.71.04,5.53.14.98.05,1.96.11,2.94.14h.07s.07,0,.07,0c1.76-.2,3.21-.72,4.69-1.69l.21-.19c.05-.03.11-.05.18-.07.1-.04.2-.08.31-.12.36-.14.6-.34.78-.49.03-.02.05-.04.08-.06,1.35-.12,2.76.03,4.54.49,2.21.38,4.43.46,6.64.54.59-.02,1.2.02,1.84.06,1.32.08,2.68.16,4.05-.2,1.39-.19,2.78-1.28,3.47-1.83,2.11-.32,5.87.87,9.76,3.13,2.58,1.19,4.91,2.7,7.37,4.29l.32.21.13.07c.88.4,1.83.81,2.81,1.22,3.01,1.28,6.42,2.72,7.82,4.32.82.84,1.05,1.35,1.1,1.54.01.05.02.09.04.13v.03s0,0,0,0c0,.02.01.03.02.05.09.38.09.61.09,1.11,0,.44,0,1.04.06,1.93-.02,2.04.58,3.67,1.77,4.75,1.26,1.01,2.79,1.74,4.27,2.45,1.22.58,2.48,1.19,3.57,1.94.8.54,1.31,1.01,1.91,1.54.51.46,1.08.98,1.92,1.61,1.22.84,2.51,1.56,3.75,2.26.83.46,1.66.93,2.5,1.45,2.04,1.17,3.58,3.33,4.82,6.8l.07.15c.17.31.34.61.51.91.65,1.15,1.27,2.23,1.73,3.48.32.7.51,1.28.6,1.83l1.98-.32c-.03-.25-.06-.5-.11-.75v-.02c-.47-2.15-1.35-4.13-2.21-6.04l-.39-.88c-.51-1.94-1.24-4.16-2.7-6.05-1.3-2.1-3.25-3.44-5.15-4.75-.97-.67-1.88-1.29-2.78-2.07-.84-.6-1.55-1.36-2.31-2.16-.53-.57-1.09-1.15-1.71-1.7-1.97-1.7-4.21-3.04-6.44-4.33-.16-.11-.33-.22-.51-.33-.21-.13-.43-.28-.61-.41.1-3.56-.21-7.21-2.67-10.06-2.59-3.03-6.11-4.69-9.52-6.29-.7-.33-1.4-.66-2.07-.99-.81-.41-1.54-.97-2.32-1.55-.84-.63-1.7-1.28-2.68-1.77-.75-.4-1.49-.82-2.23-1.24-2.37-1.34-4.82-2.72-7.58-3.42-2-.51-4.26-1.09-6.48-.25l-.21.11c-.71.49-.96.73-1.15.91-.12.12-.17.16-.41.31-1.12.66-1.88.65-3.28.64-.59,0-1.25,0-2,.03l-1.24.02c-1.81.03-3.67.06-5.42-.09l-.16-.02c-2-.28-4.08-.57-6.17.06-.5.16-.88.48-1.14.7-.04.03-.07.06-.1.08-.57.27-1.02.62-1.43.92-.47.35-.87.66-1.39.83l-.12.05c-.96.47-2.08.49-3.28.52-.55.01-1.11.02-1.64.07-.51.04-1.04.07-1.57.09-1.95.08-3.96.17-5.76,1.26-1.52.57-2.5,1.77-3.37,2.84-.53.65-1.04,1.26-1.65,1.74-5.42,4.48-9.41,10.3-13,15.97-.03-.02-.05-.03-.08-.05-.47-.29-.91-.56-1.17-.79-1.33-1.39-2.99-2.12-4.59-2.82l-.34-.15c-2.57-.98-4.07-2.52-5.8-4.3-1.06-1.1-2.27-2.34-3.89-3.6l-.79-.56c-2.31-1.64-4.71-3.34-7.48-4.44-2.35-.73-5.05-.5-7.23.61l-.15.1c-2.55,1.95-3.86,3.76-5.53,6.11-1.27,1.41-2.96,2.8-3.97,3.64-.45.37-.68.56-.81.69-1.56,1.27-3.4,2.09-5,2.72l-.12.06c-.96.54-1.98,1.02-2.98,1.48-1.6.75-3.25,1.52-4.84,2.64-.99.84-1.59,1.4-2.11,1.9-.56.53-1,.95-1.75,1.54l-.5.53c-.53.59-.69.75-1.03.9l-.2.09-.15.17s-.02.02-.03.03c-.74.12-1.49.26-2.21.6l-.16.1c-.23.17-.54.28-.89.41-.28.1-.55.2-.82.33l-.11.06c-.45.29-.91.56-1.38.82l-.1.06c-1.27.92-1.97,2.07-2.58,3.08l-.06.1c-1.42,2.56-1.85,3.84-2.35,6.16l-.02.15c-.21,3.24.06,6.17.8,8.71.01.82.03,1.63.05,2.45.03,1.26.06,2.51.07,3.77-.2.11-.42.21-.65.31-.32.14-.64.28-.91.44-.16.09-.4.13-.68.18-.3.05-.63.11-.97.24-.29.08-.53.21-.74.32-.1.05-.2.11-.31.15-.15.03-.3.04-.45.05-.24.02-.49.04-.67.08-.81.13-1.51.43-2.27.79-.19.04-.37.06-.56.09-.44.07-.9.14-1.36.29-.47.11-.84.33-1.14.52-.19.11-.36.22-.49.26-.72.22-1.31.59-1.88.94-.27.17-.55.35-.84.49l-.19.12c-.41.34-.88.64-1.37.95-.69.43-1.4.88-2.03,1.51l-.11.12c-3.41,4.77-5.85,10.2-8.26,15.8l1.8.86c2.01-3.8,4.75-8.73,8.19-13.11Z"/><path class="cls-1" d="M146.29,29.22c-3.45,3.99-5.5,9.02-7.14,13.42v.04c-.22.65-.42,1.3-.63,1.96-.95,3.1-1.94,6.31-3.92,8.85-.39.5-.79.98-1.2,1.46l1.4,1.42c.61-.5,1.13-.94,1.64-1.43,2.74-2.74,3.97-6.34,5.16-9.82l.26-.75c.33-.88.65-1.74.96-2.59,1.44-3.91,2.8-7.61,5.09-11.39l-1.61-1.17Z"/><path class="cls-1" d="M186.58,46.16l.35-.06c1.9-.3,4.04-.65,5.73-2.03,1.41-1.15,2.63-3.11,1.46-4.87l-.04-.05c-.35-.46-.84-.67-1.16-.81l-5.7-2.42,4.7,4.13c.09.08.23.2.26.23l.1.11c0,.06-.11.29-.37.47-1.46.94-3.27.96-5.19.98-.97,0-1.97.02-2.89.15-5.29.47-9.63,1.09-13.66,1.98l-5.9,1.29,6,.68c3.5.4,6.79.72,10,.72,2.12,0,4.2-.14,6.29-.5Z"/><path class="cls-1" d="M90.27,66.24l8.05,2.41-7.26-4.23c-9.42-5.49-18.3-7.8-26.4-6.87l-7.9.91,7.88,1.08c7.2.98,13.46,2.94,20.1,5.01,1.8.56,3.64,1.13,5.54,1.7Z"/><path class="cls-1" d="M41.81,76.08h0c-.59.04-1.21.03-1.83-.02l-9.02-.72,8.64,2.67c.31.09.62.18.95.26,2.12.45,4.22.65,6.29.65,8.86,0,17.29-3.66,25.49-7.22l8.47-3.67-8.51,1.54c-4.3.78-8.32,1.87-12.22,2.92-6.06,1.64-11.78,3.19-18.27,3.59Z"/><path class="cls-1" d="M77.06,49.95c.85,1.1,2.45,2.35,5.33,2.35.23,0,.46,0,.71-.02,2.97-.24,7.46-.6,8.66-4.61.77-3.08.47-5.46-.89-7.08l-.1-.1c-2.93-2.65-7.45-3.67-12.16-2.72-.33.09-.66.17-.99.26h-.05s-.75-.25-.75-.25c-.07.17-.14.34-.21.51-.38.1-.75.21-1.13.33l.43,1.94c-.76,3.15-.79,6.93,1.13,9.4ZM78.27,40.42c3.1-.14,6.15.59,8.66,2.07.23.19.48.38.75.56.76.54,1.22.91,1.2,1.45.03,1.24-.73,2.15-2.04,2.42l-.1.02c-1.38.43-3.45.98-5.51.87-1.04,0-1.79-.33-2.31-.97-.94-1.17-1.16-3.49-.64-6.43Z"/><path class="cls-1" d="M147.84,66.52c.87.03,1.85.07,2.82-.26.42-.09.84-.15,1.26-.21.78-.12,1.58-.24,2.4-.5l4.94-.78c1.92-.3,3.93-.46,5.87-.61,3.32-.26,6.75-.52,10-1.53.93-.27,1.63-.96,1.96-1.95.44-1.3.19-2.95-.6-4.03-2.61-4.07-8.36-4.44-11.9-2.23-.48.29-.96.6-1.44.9-.83.52-1.68,1.06-2.53,1.53-.22.12-.45.22-.69.32-.56.25-1.19.53-1.75,1.03-.84.54-1.58,1.18-2.3,1.79-.78.67-1.52,1.3-2.33,1.77-.89.49-1.72.81-2.62,1-.42.13-.8.29-1.17.45-.44.19-.86.38-1.32.46-.29.07-.6.11-.9.16-1.16.19-2.46.4-3.48,1.48l-.11.15c-.05.08-.09.17-.12.26l-.03.03v.04c-.08.39.05.81.35,1.04.13.12.28.22.44.3l4.22,2.06-2.24-2.67c.39-.03.81-.01,1.26,0ZM159.29,62.61l.16-.1c.55-.43,1.24-.7,1.97-.98.6-.23,1.22-.47,1.77-.8.47-.24.94-.5,1.4-.77,1.04-.59,2.02-1.14,3.09-1.47.6-.19,1.23-.28,1.87-.28,1.03,0,2.06.24,2.92.67-.03,0-.05.01-.08.02-.55.14-1.12.29-1.62.49-1.58.49-3.23.91-4.82,1.32-2.27.58-4.61,1.17-6.87,2,.07-.04.13-.07.2-.1Z"/></g></svg>