<?xml version="1.0" encoding="UTF-8"?><svg id="Layer_2" xmlns="http://www.w3.org/2000/svg" viewBox="0 0 50 50"><defs><style>.cls-1{fill:#ccf2c2;stroke-width:0px;}</style></defs><g id="Layer_1-2"><path class="cls-1" d="M22.97,0c1.15.23,2.32.36,3.43.71,8.3,2.59,13.42,8.15,14.99,16.7,1.09,5.96-.42,11.43-4.11,16.26-.09.11-.17.24-.26.37.13.14.25.27.38.39,3.91,3.92,7.81,7.85,11.76,11.73,1.23,1.21.96,2.53.26,3.24-.71.71-2.03.96-3.23-.26-3.88-3.95-7.82-7.84-11.73-11.76-.12-.12-.25-.24-.34-.33-1.12.71-2.16,1.47-3.28,2.08-4.07,2.22-8.43,3.02-13.02,2.32-8.83-1.34-15.66-7.83-17.44-16.53-.13-.65-.23-1.31-.35-1.96,0-1.43,0-2.87,0-4.3.03-.11.06-.22.09-.33.33-1.44.51-2.93,1.01-4.31C3.65,7,8.57,2.5,15.81.56c.94-.25,1.91-.38,2.86-.56,1.43,0,2.87,0,4.3,0ZM20.84,4.18c-9.21.01-16.66,7.45-16.66,16.64,0,9.24,7.45,16.72,16.65,16.71,9.23,0,16.71-7.49,16.7-16.73,0-9.18-7.5-16.64-16.69-16.63Z"/></g></svg>