<?xml version="1.0" encoding="UTF-8"?><svg id="Layer_2" xmlns="http://www.w3.org/2000/svg" viewBox="0 0 300 300"><defs><style>.cls-1{stroke-dasharray:0 0 5.07 5.07;}.cls-1,.cls-2,.cls-3,.cls-4,.cls-5,.cls-6{stroke-miterlimit:10;}.cls-1,.cls-2,.cls-3,.cls-4,.cls-6{fill:none;stroke:#ccc;}.cls-7{fill:#1d2126;}.cls-7,.cls-8,.cls-9{stroke-width:0px;}.cls-2{stroke-dasharray:0 0 4.87 4.87;}.cls-3{stroke-dasharray:0 0 5 5;}.cls-5{stroke:#1d2126;}.cls-5,.cls-8{fill:#fff;}.cls-9{fill:#2b3642;}.cls-6{stroke-dasharray:0 0 4.93 4.93;}</style></defs><g id="Layer_1-2"><rect class="cls-7" width="300" height="300"/><rect class="cls-9" x="14" y="41" width="272" height="218" rx="4.08" ry="4.08"/><circle class="cls-8" cx="26" cy="53" r="3"/><circle class="cls-8" cx="34" cy="53" r="3"/><circle class="cls-8" cx="42" cy="53" r="3"/><path class="cls-5" d="M38,123h224v102.8c0,2.32-1.88,4.2-4.2,4.2H42.2c-2.32,0-4.2-1.88-4.2-4.2v-102.8h0Z"/><rect class="cls-5" x="28.5" y="103" width="243" height="20" rx="10" ry="10"/><path class="cls-7" d="M40.59,117h-.17c-.15-.03-.26-.13-.36-.23-.46-.47-.93-.93-1.4-1.4-.02-.02-.03-.05-.05-.06-.02,0-.03,0-.03,0-.02,0-.03.02-.05.03-1.14.77-2.35.88-3.59.28-1.04-.5-1.66-1.36-1.89-2.49-.03-.14-.04-.28-.06-.42,0-.15,0-.29,0-.44.01-.1.02-.19.04-.29.11-.69.38-1.31.86-1.83.84-.91,1.89-1.29,3.11-1.13.88.12,1.61.54,2.18,1.22.88,1.03,1.07,2.57.46,3.78-.1.19-.22.38-.33.57.01.01.03.03.05.05.38.38.77.77,1.15,1.15.12.12.25.24.36.37.21.24.14.6-.13.75-.05.03-.1.05-.16.07ZM34.02,112.51c0,1.37,1.11,2.48,2.49,2.49,1.37,0,2.49-1.11,2.49-2.49,0-1.37-1.11-2.48-2.49-2.49-1.37,0-2.49,1.11-2.5,2.49Z"/><polyline class="cls-4" points="53.5 114 51 114 53.5 114"/><line class="cls-2" x1="58.37" y1="114" x2="163.07" y2="114"/><polyline class="cls-4" points="165.5 114 168 114 165.5 114"/><line class="cls-2" x1="160.63" y1="114" x2="55.93" y2="114"/><polyline class="cls-4" points="53.86 138.5 51.36 138.5 53.86 138.5"/><line class="cls-2" x1="58.73" y1="138.5" x2="163.42" y2="138.5"/><polyline class="cls-4" points="165.86 138.5 168.36 138.5 165.86 138.5"/><line class="cls-2" x1="160.99" y1="138.5" x2="56.29" y2="138.5"/><polyline class="cls-4" points="53.86 154.5 51.36 154.5 53.86 154.5"/><line class="cls-1" x1="58.93" y1="154.5" x2="198.32" y2="154.5"/><polyline class="cls-4" points="200.86 154.5 203.36 154.5 200.86 154.5"/><line class="cls-1" x1="195.79" y1="154.5" x2="56.39" y2="154.5"/><polyline class="cls-4" points="53.86 170.5 51.36 170.5 53.86 170.5"/><line class="cls-2" x1="58.73" y1="170.5" x2="163.42" y2="170.5"/><polyline class="cls-4" points="165.86 170.5 168.36 170.5 165.86 170.5"/><line class="cls-2" x1="160.99" y1="170.5" x2="56.29" y2="170.5"/><polyline class="cls-4" points="53.86 186.5 51.36 186.5 53.86 186.5"/><line class="cls-3" x1="58.86" y1="186.5" x2="136.36" y2="186.5"/><polyline class="cls-4" points="138.86 186.5 141.36 186.5 138.86 186.5"/><line class="cls-3" x1="133.86" y1="186.5" x2="56.36" y2="186.5"/><polyline class="cls-4" points="53.86 202.5 51.36 202.5 53.86 202.5"/><line class="cls-6" x1="58.78" y1="202.5" x2="184.4" y2="202.5"/><polyline class="cls-4" points="186.86 202.5 189.36 202.5 186.86 202.5"/><line class="cls-6" x1="181.93" y1="202.5" x2="56.32" y2="202.5"/></g></svg>