<?xml version="1.0" encoding="UTF-8"?><svg id="Layer_2" xmlns="http://www.w3.org/2000/svg" viewBox="0 0 300 300"><defs><style>.cls-1{fill:#1d2126;}.cls-1,.cls-2,.cls-3,.cls-4,.cls-5{stroke-width:0px;}.cls-2{fill:#333;}.cls-3{fill:#fff;}.cls-4{fill:#0061c2;}.cls-5{fill:#4d4d4d;}</style></defs><g id="Layer_1-2"><rect class="cls-1" width="300" height="300"/><path class="cls-5" d="M233.5,207.75v-.92c1.1,0,2-.83,2-1.85h1c0,1.53-1.35,2.77-3,2.77Z"/><path class="cls-5" d="M228.44,207.75h-5.06v-.92h5.06v.92ZM218.32,207.75h-5.06v-.92h5.06v.92ZM208.2,207.75h-5.06v-.92h5.06v.92ZM198.08,207.75h-5.06v-.92h5.06v.92ZM187.95,207.75h-5.06v-.92h5.06v.92ZM177.83,207.75h-5.06v-.92h5.06v.92ZM167.71,207.75h-5.06v-.92h5.06v.92ZM157.59,207.75h-5.06v-.92h5.06v.92ZM147.47,207.75h-5.06v-.92h5.06v.92ZM137.35,207.75h-5.06v-.92h5.06v.92ZM127.23,207.75h-5.06v-.92h5.06v.92ZM117.11,207.75h-5.06v-.92h5.06v.92ZM106.98,207.75h-5.06v-.92h5.06v.92ZM96.86,207.75h-5.06v-.92h5.06v.92ZM86.74,207.75h-5.06v-.92h5.06v.92ZM76.62,207.75h-5.06v-.92h5.06v.92Z"/><path class="cls-5" d="M66.5,207.75c-1.65,0-3-1.24-3-2.77h1c0,1.02.9,1.85,2,1.85v.92Z"/><path class="cls-5" d="M64.5,200.2h-1v-4.78h1v4.78ZM64.5,190.64h-1v-4.78h1v4.78ZM64.5,181.07h-1v-4.78h1v4.78ZM64.5,171.51h-1v-4.78h1v4.78ZM64.5,161.95h-1v-4.78h1v4.78ZM64.5,152.39h-1v-4.78h1v4.78ZM64.5,142.83h-1v-4.78h1v4.78ZM64.5,133.27h-1v-4.78h1v4.78ZM64.5,123.71h-1v-4.78h1v4.78ZM64.5,114.14h-1v-4.78h1v4.78ZM64.5,104.58h-1v-4.78h1v4.78Z"/><path class="cls-5" d="M64.5,95.02h-1c0-1.53,1.35-2.77,3-2.77v.92c-1.1,0-2,.83-2,1.85Z"/><path class="cls-5" d="M228.44,93.17h-5.06v-.92h5.06v.92ZM218.32,93.17h-5.06v-.92h5.06v.92ZM208.2,93.17h-5.06v-.92h5.06v.92ZM198.08,93.17h-5.06v-.92h5.06v.92ZM187.95,93.17h-5.06v-.92h5.06v.92ZM177.83,93.17h-5.06v-.92h5.06v.92ZM167.71,93.17h-5.06v-.92h5.06v.92ZM157.59,93.17h-5.06v-.92h5.06v.92ZM147.47,93.17h-5.06v-.92h5.06v.92ZM137.35,93.17h-5.06v-.92h5.06v.92ZM127.23,93.17h-5.06v-.92h5.06v.92ZM117.11,93.17h-5.06v-.92h5.06v.92ZM106.98,93.17h-5.06v-.92h5.06v.92ZM96.86,93.17h-5.06v-.92h5.06v.92ZM86.74,93.17h-5.06v-.92h5.06v.92ZM76.62,93.17h-5.06v-.92h5.06v.92Z"/><path class="cls-5" d="M236.5,95.02h-1c0-1.02-.9-1.85-2-1.85v-.92c1.65,0,3,1.24,3,2.77Z"/><path class="cls-5" d="M236.5,200.2h-1v-4.78h1v4.78ZM236.5,190.64h-1v-4.78h1v4.78ZM236.5,181.07h-1v-4.78h1v4.78ZM236.5,171.51h-1v-4.78h1v4.78ZM236.5,161.95h-1v-4.78h1v4.78ZM236.5,152.39h-1v-4.78h1v4.78ZM236.5,142.83h-1v-4.78h1v4.78ZM236.5,133.27h-1v-4.78h1v4.78ZM236.5,123.71h-1v-4.78h1v4.78ZM236.5,114.14h-1v-4.78h1v4.78ZM236.5,104.58h-1v-4.78h1v4.78Z"/><path class="cls-3" d="M126.46,136.37v-1.77c-1.55-.25-1.94-1.29-1.87-2.73.07-1.41.01-2.82.02-4.23,0-1.45.39-1.94,1.88-2.34,0-2.69-.01-5.41,0-8.13,0-.81.03-1.63.17-2.43.74-4.08,4.31-7.19,8.44-7.21,9.93-.05,19.87-.06,29.8,0,4.66.03,8.51,3.95,8.59,8.62.05,3.04.01,6.07.01,9.09,1.61.55,1.89.95,1.89,2.61,0,1.41,0,2.82,0,4.23,0,1.62-.26,1.99-1.89,2.58v1.06c0,15.85,0,31.7,0,47.56,0,4.74-2.98,8.35-7.54,9.15-.61.11-1.25.1-1.87.11-9.4,0-18.8,0-28.2,0-5.64,0-9.41-3.79-9.42-9.44,0-12.16,0-24.31,0-36.47,0-.6.02-1.03-.77-1.21-.71-.16-1.1-.81-1.11-1.58-.02-1.88-.04-3.76,0-5.64.02-1.12.8-1.61,1.83-1.82ZM160.41,111.06c0,.9.01,1.58,0,2.26-.03,1.3-.61,1.88-1.91,1.9-1.22.02-2.44,0-3.67,0-4.39,0-8.77,0-13.16,0-1.48,0-2.03-.57-2.05-2.05,0-.47.04-.95-.02-1.41-.03-.21-.26-.57-.4-.57-1.78.05-3.61-.09-5.32.29-2.38.52-3.69,2.63-3.69,5.34-.01,7.27,0,14.54,0,21.81,0,14.79,0,29.58,0,44.37,0,3.76,2.12,5.87,5.89,5.87,9.34,0,18.68,0,28.02,0,1.46,0,2.79-.32,3.92-1.3,1.35-1.18,1.83-2.69,1.83-4.44-.01-22.09,0-44.18,0-66.27,0-.28-.01-.56-.03-.84-.18-2.22-1.63-4.19-3.8-4.59-1.79-.33-3.65-.25-5.6-.36Z"/><circle class="cls-4" cx="236" cy="152" r="9"/><path class="cls-3" d="M241.83,148.86c-.06.29-.24.5-.44.7-2.11,2.1-4.21,4.2-6.31,6.31-.28.28-.61.41-1,.27-.14-.05-.28-.14-.39-.25-1.08-1.07-2.15-2.14-3.21-3.21-.43-.43-.4-1.06.07-1.42.37-.29.88-.23,1.25.13.82.82,1.65,1.65,2.47,2.47.03.03.06.07.1.13.04-.06.06-.1.09-.12,1.91-1.91,3.83-3.83,5.74-5.74.28-.28.6-.39.98-.27.34.11.54.34.62.68,0,.03.02.05.02.07v.25Z"/><circle class="cls-5" cx="65" cy="152" r="9"/><path class="cls-2" d="M64.12,149.1c-.23-.21-.34-.47-.34-.79s.11-.59.34-.8.52-.32.88-.32.64.11.87.32.34.48.34.8-.11.57-.34.79-.52.32-.87.32-.65-.11-.88-.32ZM66.03,150.11v6.7h-2.05v-6.7h2.05Z"/></g></svg>