<?xml version="1.0" encoding="UTF-8"?><svg id="Layer_2" xmlns="http://www.w3.org/2000/svg" viewBox="0 0 50 50"><defs><style>.cls-1{fill:#ccf2c2;stroke-width:0px;}</style></defs><g id="Layer_1-2"><path class="cls-1" d="M25.87,0c.67.19,1.38.3,2,.57,2.61,1.14,3.97,3.04,4.08,5.65.02.36,0,.71,0,.92,1.66.82,3.23,1.57,4.78,2.37.51.26.99.61,1.43.96.3.24.53.23.84.04,1.24-.72,2.58-1.15,4.08-1.14,3.05.02,5.72,1.8,6.62,4.43.89,2.61-.23,5.46-2.76,7-.15.09-.3.18-.46.26-.98.53-.97.53-.81,1.56.27,1.79.23,3.57-.1,5.35-.07.35.02.53.37.69,1.95.89,3.33,2.24,3.84,4.18.67,2.57-.12,4.78-2.41,6.41-2.26,1.61-4.8,1.82-7.44.7-.46-.19-.89-.44-1.37-.68-.31.21-.63.44-.95.67-1.59,1.09-3.32,1.96-5.2,2.59-.38.13-.48.3-.46.64.11,1.87-.48,3.53-1.93,4.91-1.9,1.81-4.93,2.42-7.48,1.52-2.67-.95-4.43-3.19-4.47-5.71,0-.39,0-.78,0-1.09-1.33-.61-2.62-1.14-3.86-1.78-.84-.43-1.62-.98-2.39-1.51-.28-.19-.47-.21-.75-.04-1.25.73-2.61,1.18-4.12,1.17-3.08-.02-5.81-1.87-6.66-4.52-.84-2.65.31-5.57,2.95-6.96,1.02-.54,1.31-1.03,1.1-2.07-.34-1.7-.21-3.44.13-5.15.05-.27-.02-.41-.28-.55-.56-.3-1.14-.58-1.64-.95C-.24,18.39-.8,14.8,1.2,12.13c1.99-2.66,5.91-3.53,9.07-2,.4.19.78.4,1.12.57,1.1-.67,2.13-1.36,3.23-1.94,1.09-.57,2.26-1.01,3.37-1.5.07-.77.06-1.58.24-2.35.6-2.54,2.78-4.37,5.66-4.83.08-.01.16-.06.25-.08.58,0,1.16,0,1.74,0ZM22.7,7.45s0,0,0,0c0,.44,0,.88,0,1.32-.03,1.08-.65,1.84-1.79,2.12-2.86.7-5.32,1.98-7.42,3.86-.85.76-1.88.87-2.93.33-.79-.4-1.56-.82-2.35-1.22-1.22-.62-2.6-.31-3.25.72-.66,1.03-.26,2.25.95,2.89.78.41,1.57.81,2.34,1.22,1,.54,1.42,1.39,1.13,2.41-.75,2.59-.75,5.17,0,7.77.29,1.02-.12,1.87-1.13,2.41-.77.42-1.56.81-2.34,1.22-1.22.64-1.62,1.85-.96,2.88.65,1.03,2.03,1.35,3.25.73.76-.38,1.5-.78,2.25-1.17,1.17-.6,2.16-.5,3.1.34,2.06,1.84,4.48,3.1,7.28,3.79,1.23.3,1.86,1.06,1.87,2.22,0,.8,0,1.6,0,2.39.02,1.24.99,2.12,2.31,2.12,1.31,0,2.28-.89,2.3-2.13.01-.8,0-1.59,0-2.39,0-1.15.64-1.91,1.87-2.21,2.82-.69,5.25-1.97,7.33-3.82.88-.78,1.89-.89,2.97-.34.77.39,1.53.8,2.3,1.19,1.22.62,2.6.33,3.27-.69.66-1.02.28-2.25-.91-2.9-.74-.4-1.5-.78-2.25-1.17-1.12-.59-1.55-1.43-1.23-2.55.74-2.54.74-5.08,0-7.62-.32-1.09.1-1.95,1.19-2.52.78-.41,1.57-.8,2.35-1.22,1.17-.64,1.53-1.86.87-2.87-.65-1-2.02-1.31-3.21-.72-.76.38-1.5.78-2.25,1.17-1.19.62-2.17.51-3.15-.35-2.05-1.82-4.46-3.08-7.24-3.76-1.26-.31-1.88-1.06-1.89-2.25,0-.85.02-1.69-.02-2.54-.05-1.11-1.04-1.94-2.27-1.95-1.26,0-2.26.83-2.32,1.96-.02.44,0,.88,0,1.32Z"/><path class="cls-1" d="M24.98,33.32c-5.16-.02-9.24-3.73-9.23-8.38.01-4.58,4.17-8.28,9.3-8.27,5.08,0,9.21,3.74,9.2,8.31-.01,4.65-4.14,8.36-9.27,8.34ZM29.64,25.02c.04-2.26-2.06-4.17-4.6-4.19-2.53-.02-4.63,1.84-4.67,4.13-.04,2.27,2.03,4.18,4.58,4.21,2.55.04,4.66-1.83,4.7-4.15Z"/></g></svg>