<?xml version="1.0" encoding="UTF-8"?><svg id="Layer_2" xmlns="http://www.w3.org/2000/svg" viewBox="0 0 50 50"><defs><style>.cls-1{fill:#ededed;stroke-width:0px;}</style></defs><g id="Layer_1-2"><path class="cls-1" d="M50,25.49c-.04.07-.09.13-.11.2-.38.91-1.04,1.39-2.03,1.39-1.73,0-3.45.01-5.17,0-.36,0-.5.12-.6.45-1.03,3.15-4.01,5.29-7.33,5.29-3.31,0-6.31-2.13-7.37-5.25-.05-.15-.1-.31-.16-.48h-.64c-8.07,0-16.14,0-24.22,0-1.26,0-2.07-.59-2.31-1.66-.26-1.18.62-2.37,1.82-2.47.23-.02.46-.01.68-.01,8.01,0,16.01,0,24.02,0,.21,0,.42,0,.65,0,.35-1.16.87-2.21,1.67-3.08,1.97-2.14,4.41-3.04,7.26-2.5,2.93.55,4.91,2.34,5.92,5.15.12.32.24.46.6.45,1.55-.02,3.09.04,4.64-.03,1.29-.06,2.2.38,2.69,1.6v.98ZM34.69,28.63c2.03,0,3.67-1.61,3.68-3.63.01-2-1.6-3.63-3.62-3.64-2.03-.02-3.68,1.61-3.68,3.63,0,2,1.62,3.64,3.62,3.64Z"/><path class="cls-1" d="M14.46,50c-.85-.26-1.74-.43-2.54-.8-1.99-.92-3.31-2.47-4-4.55-.1-.3-.23-.4-.55-.4-1.79.01-3.58.02-5.37,0-.89-.01-1.63-.6-1.9-1.43-.27-.84-.03-1.78.71-2.26.4-.26.93-.42,1.4-.44,1.71-.05,3.42-.03,5.12-.01.33,0,.47-.1.58-.42,1.04-3.18,4.01-5.32,7.35-5.33,3.32,0,6.31,2.12,7.35,5.27.13.39.3.48.68.48,8-.01,16.01.01,24.01-.03,1.29,0,2.2.38,2.69,1.61v.98c-.48,1.23-1.4,1.61-2.69,1.61-8.01-.04-16.01-.02-24.02-.03-.39,0-.54.1-.68.48-.94,2.62-2.78,4.3-5.47,5.03-.34.09-.69.15-1.04.23h-1.66ZM15.25,45.82c2.03,0,3.67-1.61,3.68-3.63.01-1.99-1.62-3.63-3.62-3.64-2.03-.01-3.68,1.61-3.68,3.63,0,2,1.62,3.64,3.62,3.64Z"/><path class="cls-1" d="M50,8.3c-.04.07-.09.13-.11.2-.38.91-1.04,1.39-2.03,1.39-1.77,0-3.55,0-5.32,0-6.41,0-12.82,0-19.23,0-.39,0-.55.1-.68.48-1.04,3.14-4.03,5.27-7.35,5.26-3.31,0-6.32-2.16-7.33-5.29-.12-.37-.29-.46-.65-.45-1.76.02-3.51.02-5.27,0-.92-.01-1.66-.61-1.92-1.47-.25-.84,0-1.77.75-2.24.39-.25.9-.4,1.36-.41,1.69-.05,3.38-.03,5.08-.01.36,0,.53-.09.65-.46C8.95,2.16,11.95,0,15.27,0c3.32,0,6.31,2.12,7.35,5.26.13.38.29.48.68.48,8.01-.01,16.01,0,24.02-.03,1.29,0,2.2.38,2.69,1.61v.98ZM15.28,11.45c2.03,0,3.67-1.64,3.65-3.65-.01-2-1.65-3.62-3.65-3.62-2.03,0-3.66,1.63-3.65,3.66,0,2,1.64,3.62,3.64,3.61Z"/></g></svg>