<?xml version="1.0" encoding="UTF-8"?><svg id="Layer_2" xmlns="http://www.w3.org/2000/svg" xmlns:xlink="http://www.w3.org/1999/xlink" viewBox="0 0 202 151.5"><defs><style>.cls-1{fill:url(#linear-gradient);}.cls-1,.cls-2,.cls-3{stroke-width:0px;}.cls-2{fill:#999;}.cls-3{fill:#fff;}</style><linearGradient id="linear-gradient" x1="59" y1="140" x2="143" y2="140" gradientUnits="userSpaceOnUse"><stop offset="0" stop-color="#66b2ff"/><stop offset="1" stop-color="#0061c2"/></linearGradient></defs><g id="Layer_1-2"><rect class="cls-3" x=".5" y=".5" width="201" height="19" rx="9.5" ry="9.5"/><path class="cls-2" d="M192,20H10C4.49,20,0,15.51,0,10S4.49,0,10,0h182c5.51,0,10,4.49,10,10s-4.49,10-10,10ZM10,1C5.04,1,1,5.04,1,10s4.04,9,9,9h182c4.96,0,9-4.04,9-9s-4.04-9-9-9H10Z"/><rect class="cls-3" x=".5" y="33" width="201" height="19" rx="9.5" ry="9.5"/><path class="cls-2" d="M192,52.5H10c-5.51,0-10-4.49-10-10s4.49-10,10-10h182c5.51,0,10,4.49,10,10s-4.49,10-10,10ZM10,33.5c-4.96,0-9,4.04-9,9s4.04,9,9,9h182c4.96,0,9-4.04,9-9s-4.04-9-9-9H10Z"/><rect class="cls-3" x=".5" y="65.5" width="76" height="19" rx="9.5" ry="9.5"/><path class="cls-2" d="M67,85H10c-5.51,0-10-4.49-10-10s4.49-10,10-10h57c5.51,0,10,4.49,10,10s-4.49,10-10,10ZM10,66c-4.96,0-9,4.04-9,9s4.04,9,9,9h57c4.96,0,9-4.04,9-9s-4.04-9-9-9H10Z"/><rect class="cls-3" x="125.5" y="66" width="76" height="19" rx="9.5" ry="9.5"/><path class="cls-2" d="M192,85.5h-57c-5.51,0-10-4.49-10-10s4.49-10,10-10h57c5.51,0,10,4.49,10,10s-4.49,10-10,10ZM135,66.5c-4.96,0-9,4.04-9,9s4.04,9,9,9h57c4.96,0,9-4.04,9-9s-4.04-9-9-9h-57Z"/><rect class="cls-3" x=".5" y="98" width="201" height="19" rx="9.5" ry="9.5"/><path class="cls-2" d="M192,117.5H10c-5.51,0-10-4.49-10-10s4.49-10,10-10h182c5.51,0,10,4.49,10,10s-4.49,10-10,10ZM10,98.5c-4.96,0-9,4.04-9,9s4.04,9,9,9h182c4.96,0,9-4.04,9-9s-4.04-9-9-9H10Z"/><rect class="cls-3" x="59.5" y="129" width="83" height="22" rx="11" ry="11"/><path class="cls-1" d="M131.5,151.5h-61c-6.34,0-11.5-5.16-11.5-11.5s5.16-11.5,11.5-11.5h61c6.34,0,11.5,5.16,11.5,11.5s-5.16,11.5-11.5,11.5ZM70.5,129.5c-5.79,0-10.5,4.71-10.5,10.5s4.71,10.5,10.5,10.5h61c5.79,0,10.5-4.71,10.5-10.5s-4.71-10.5-10.5-10.5h-61Z"/></g></svg>