<?xml version="1.0" encoding="UTF-8"?><svg id="Layer_2" xmlns="http://www.w3.org/2000/svg" viewBox="0 0 300 300"><defs><style>.cls-1{fill:#1d2126;}.cls-1,.cls-2,.cls-3{stroke-width:0px;}.cls-4{font-family:Poppins-Regular, Poppins;font-size:15px;}.cls-4,.cls-2{fill:#fff;}.cls-3{fill:#2b3642;}</style></defs><g id="Layer_1-2"><rect class="cls-1" width="300" height="300"/><rect class="cls-3" x="28" y="37" width="244" height="46.5" rx="13.67" ry="13.67"/><text class="cls-4" transform="translate(98.59 65.42)"><tspan x="0" y="0">Adjust your menu</tspan></text><path class="cls-2" d="M86.74,66.89c-.15.39-.24.8-.45,1.15-.53.87-1.34,1.32-2.36,1.35-.63.02-1.27,0-1.9,0-1.59,0-2.81-1.11-2.92-2.7-.05-.78-.05-1.57.01-2.35.11-1.39,1.17-2.42,2.55-2.57.08,0,.16-.02.27-.03,0-.07.01-.14.01-.21,0-1.19.02-2.39,0-3.58-.04-2.44-1.1-4.33-3.14-5.67-.04-.03-.09-.05-.13-.08-.02-.01-.04-.02-.08-.04-.76,1.24-1.86,1.95-3.32,1.95-1.47,0-2.57-.7-3.33-1.96-.86.49-1.56,1.13-2.12,1.93-.79,1.13-1.21,2.38-1.22,3.76,0,1.24,0,2.49,0,3.74,0,.04,0,.09,0,.15.18.02.36.04.53.07,1.27.26,2.2,1.25,2.3,2.54.06.79.07,1.6,0,2.39-.11,1.41-1.09,2.46-2.5,2.61-.86.09-1.75.09-2.61,0-1.35-.14-2.33-1.12-2.47-2.47-.09-.88-.09-1.78,0-2.65.14-1.36,1.2-2.31,2.56-2.46.08,0,.16-.02.26-.03v-.25c0-1.14,0-2.28,0-3.42,0-2.68,1.02-4.91,3.04-6.67.03-.03.07-.06.13-.12-.09,0-.15-.02-.21-.02-.69,0-1.37,0-2.06,0-.14,0-.22.05-.31.16-.54.75-1.5.99-2.33.61-.82-.38-1.26-1.29-1.06-2.15.21-.89,1-1.5,1.91-1.47.62.02,1.11.3,1.49.79.05.07.15.14.22.14,1.34,0,2.68,0,4.03,0,.01,0,.03,0,.06-.01.16-.55.41-1.07.8-1.52.63-.72,1.41-1.15,2.36-1.29.04,0,.08-.03.12-.04.27,0,.54,0,.81,0,.04.01.08.03.12.04.95.14,1.74.58,2.37,1.31.38.44.63.95.79,1.52h.21c1.26,0,2.52,0,3.78,0,.15,0,.24-.04.33-.16.46-.63,1.1-.89,1.86-.76.78.14,1.29.62,1.51,1.38.03.1.05.2.08.3v.36s-.03.04-.03.06c-.14.85-.62,1.42-1.46,1.61-.82.19-1.49-.1-2-.77-.04-.06-.14-.1-.22-.1-.73,0-1.46,0-2.19,0-.03,0-.06,0-.1.02,0,.03,0,.03.01.04.03.03.07.06.1.09,2.01,1.77,3.02,4,3.02,6.68,0,1.14,0,2.28,0,3.42,0,.08,0,.16,0,.23.03.01.04.02.05.02.07,0,.15.02.22.03,1.11.13,1.89.71,2.35,1.71.11.24.16.51.24.76v2.64ZM67.64,67.48c.32,0,.64,0,.96,0,.56-.01.95-.41.95-.97,0-.62,0-1.24,0-1.85,0-.58-.41-.98-.98-.99-.62,0-1.24,0-1.85,0-.56,0-.96.39-.97.95,0,.64,0,1.28,0,1.92,0,.54.4.92.93.94.32,0,.64,0,.96,0ZM84.82,65.57s0,0,0,0c0-.33,0-.66,0-.98-.02-.52-.42-.91-.94-.92-.64,0-1.28,0-1.92,0-.54,0-.94.41-.95.95,0,.63,0,1.27,0,1.9,0,.55.4.95.94.96.64.01,1.28,0,1.92,0,.55,0,.93-.4.95-.95,0-.32,0-.64,0-.96ZM75.28,48.4c-1.05,0-1.91.85-1.91,1.9,0,1.04.86,1.91,1.9,1.92,1.06,0,1.92-.85,1.92-1.91,0-1.04-.86-1.9-1.91-1.9Z"/><text class="cls-4" transform="translate(98.59 128.42)"><tspan x="0" y="0">Customize edite</tspan></text><text class="cls-4" transform="translate(98.59 191.42)"><tspan x="0" y="0">Templates</tspan></text><text class="cls-4" transform="translate(98.59 254.42)"><tspan x="0" y="0">Order a design</tspan></text><path class="cls-2" d="M63.16,116.9c.08-.38.14-.77.25-1.14.71-2.46,2.99-4.2,5.55-4.22,2.16-.02,4.33,0,6.49,0,.91,0,1.61.7,1.61,1.6,0,.9-.7,1.6-1.61,1.61-2.08,0-4.16,0-6.24,0-1.71,0-2.84,1.13-2.84,2.84,0,3.46,0,6.92,0,10.38,0,1.68,1.14,2.82,2.81,2.82,3.48,0,6.95,0,10.43,0,1.66,0,2.8-1.15,2.8-2.8,0-1.74,0-3.48,0-5.21,0-.68.33-1.19.95-1.46.6-.27,1.18-.17,1.69.24.36.3.56.69.56,1.16,0,1.9.04,3.79,0,5.69-.08,2.82-2.35,5.23-5.16,5.55-.07,0-.13.03-.19.05h-11.73c-.06-.01-.11-.04-.17-.04-2.38-.29-4.33-1.95-4.98-4.25-.1-.35-.15-.71-.22-1.07,0-3.91,0-7.82,0-11.73Z"/><path class="cls-2" d="M81.54,119.3c-.67-1.62-1.81-2.68-3.44-3.23.04-.06.08-.11.12-.16,2.04-2.24,4.08-4.49,6.13-6.72.69-.75,1.56-1.02,2.55-.77.99.25,1.62.91,1.87,1.9.21.86.01,1.65-.58,2.3-.47.52-.98,1-1.48,1.5-1.65,1.65-3.3,3.3-4.94,4.94-.06.06-.12.14-.21.24Z"/><path class="cls-2" d="M74.81,124.37c-.6,0-1.2,0-1.8,0-.94,0-1.49-.79-1.19-1.68.36-1.08.79-2.13,1.49-3.04.8-1.03,1.81-1.68,3.15-1.68,1.55,0,2.9,1.08,3.22,2.55.42,1.91-1.05,3.8-3.01,3.85-.62.02-1.24,0-1.85,0,0,0,0,0,0,0Z"/><path class="cls-2" d="M85,241.56c-.03.15-.06.3-.1.45-.16.66-.5,1.22-.98,1.7-3.07,3.07-6.15,6.14-9.22,9.21-.12.11-.16.23-.17.39-.17,1.78-.99,3.13-2.63,3.92-1.13.55-2.34.86-3.56,1.1-.44.09-.88.16-1.32.22-1.63.24-3.07-1.21-2.84-2.84.22-1.52.55-3.01,1.12-4.44.55-1.39,1.49-2.38,2.94-2.84.39-.12.81-.17,1.21-.23.14-.02.25-.05.35-.16,3.04-3.05,6.09-6.08,9.13-9.13.62-.62,1.32-1.05,2.21-1.16.02,0,.03-.02.05-.03.24,0,.49,0,.73,0,.04.01.07.03.11.04,1.4.2,2.52,1.2,2.87,2.57.04.16.08.33.11.49v.73ZM73.73,250.24s.07-.1.12-.14c2.57-2.57,5.13-5.13,7.7-7.7.2-.2.41-.4.6-.61.21-.22.29-.47.22-.77-.07-.32-.27-.54-.59-.64-.36-.11-.65,0-.9.26-2.76,2.76-5.53,5.53-8.29,8.29-.04.04-.07.08-.08.09.4.4.8.8,1.22,1.22ZM66.73,255.96c.21-.03.35-.05.49-.07,1.16-.2,2.3-.49,3.4-.93,1.18-.47,1.47-1.73,1.22-2.58-.25-.86-1.04-1.51-1.92-1.58-.75-.06-1.75.26-2.12,1.25-.24.65-.47,1.3-.65,1.96-.17.62-.28,1.27-.42,1.95Z"/><path class="cls-2" d="M85,257.48c-.06.14-.1.3-.17.43-.22.39-.57.65-1.01.66-.77.02-1.54.03-2.3-.03-1.05-.08-1.96-.52-2.72-1.25-.72-.69-1.42-1.4-2.12-2.11-.52-.53-.51-1.34,0-1.85.52-.51,1.32-.5,1.85.02.63.62,1.26,1.24,1.87,1.87.54.56,1.19.81,1.98.74.05-.57-.05-1.1-.39-1.57-.13-.17-.28-.33-.43-.49-.6-.6-1.2-1.2-1.8-1.8-.38-.38-.49-.84-.32-1.35.17-.51.55-.8,1.08-.87.39-.05.75.06,1.03.33.75.74,1.51,1.47,2.23,2.24.69.73,1.07,1.62,1.19,2.62,0,.05.02.1.04.16v2.24Z"/><path class="cls-2" d="M68.01,237.73c.16.04.33.07.49.12.58.15,1.09.42,1.51.84.84.83,1.68,1.66,2.51,2.51.52.52.51,1.32,0,1.83-.51.51-1.32.52-1.85,0-.8-.79-1.6-1.59-2.39-2.39-.23-.23-.49-.34-.81-.28-.33.06-.57.25-.68.58-.11.34-.04.65.21.9.41.42.83.84,1.25,1.25.38.38.76.76,1.14,1.14.54.55.56,1.35.05,1.88-.52.53-1.33.52-1.88-.02-.83-.82-1.67-1.64-2.47-2.48-1.84-1.93-.91-5.1,1.67-5.76.16-.04.31-.07.47-.11.26,0,.52,0,.77,0Z"/><path class="cls-2" d="M87.1,188.71v7.59c-.03.09-.06.19-.09.28-.22.66-.67,1.11-1.34,1.32-.09.03-.17.06-.26.09h-11.62s-.04-.03-.06-.04c-1.07-.27-1.63-1-1.63-2.1,0-2.25,0-4.5,0-6.75,0-.22.02-.44.08-.65.24-.92,1.03-1.47,2.06-1.47,3.55,0,7.1,0,10.66,0,1.18,0,1.85.52,2.17,1.66,0,.02.02.04.03.06Z"/><path class="cls-2" d="M87.1,183.28c-.06.19-.11.39-.2.57-.37.75-.99,1.13-1.82,1.15-.99.02-1.98.02-2.97,0-1.16-.02-2-.87-2-2.03,0-2.31,0-4.62,0-6.93,0-1.18.86-2.03,2.05-2.03.96,0,1.92,0,2.88,0,1.02,0,1.78.6,2.02,1.61,0,.03.03.05.04.08v7.59Z"/><path class="cls-2" d="M64.8,197.99c-.19-.07-.4-.13-.58-.22-.7-.36-1.09-.94-1.1-1.73-.02-2.37-.01-4.73,0-7.1,0-1,.76-1.86,1.76-1.92,1.14-.06,2.28-.07,3.42,0,1.08.06,1.81.92,1.81,2.01,0,2.03,0,4.06,0,6.09,0,.3,0,.59,0,.89-.03.97-.64,1.72-1.59,1.94-.04,0-.07.03-.1.04h-3.61Z"/><path class="cls-2" d="M70.62,174c1.79,0,3.58,0,5.36,0,1.28,0,2.12.84,2.12,2.13,0,2.25,0,4.5,0,6.75,0,1.27-.84,2.12-2.11,2.12-3.59,0-7.18,0-10.77,0-1.26,0-2.11-.86-2.11-2.12,0-2.25,0-4.5,0-6.75,0-1.3.84-2.13,2.14-2.13,1.79,0,3.58,0,5.36,0Z"/></g></svg>