<?xml version="1.0" encoding="UTF-8"?><svg id="Layer_2" xmlns="http://www.w3.org/2000/svg" viewBox="0 0 300 300"><defs><style>.cls-1{fill:#2a292b;}.cls-1,.cls-2,.cls-3{stroke-width:0px;}.cls-2{fill:#333;}.cls-3{fill:#fff;}</style></defs><g id="Layer_1-2"><rect class="cls-2" width="300" height="300"/><rect class="cls-1" x="28" y="37" width="244" height="46.5" rx="13.67" ry="13.67"/><path class="cls-3" d="M105.92,63.1h-4.56l-.84,2.33h-1.44l3.78-10.4h1.58l3.77,10.4h-1.44l-.84-2.33ZM105.53,61.99l-1.89-5.28-1.89,5.28h3.78Z"/><path class="cls-3" d="M109.85,59.07c.34-.63.81-1.13,1.4-1.48.59-.35,1.26-.53,2-.53.64,0,1.23.15,1.79.44.55.3.97.68,1.26,1.16v-4.35h1.38v11.1h-1.38v-1.54c-.27.49-.67.89-1.2,1.21-.53.32-1.15.47-1.86.47s-1.39-.18-1.99-.54c-.6-.36-1.06-.87-1.4-1.51-.34-.65-.51-1.39-.51-2.22s.17-1.58.51-2.21ZM115.93,59.68c-.25-.46-.59-.81-1.01-1.06-.42-.25-.89-.37-1.4-.37s-.98.12-1.4.36c-.42.24-.75.59-1,1.05s-.38,1-.38,1.62.12,1.18.38,1.64.58.82,1,1.07.89.37,1.4.37.98-.12,1.4-.37c.43-.25.76-.6,1.01-1.07s.38-1.01.38-1.63-.12-1.16-.38-1.62Z"/><path class="cls-3" d="M121.4,67.21c0,.73-.19,1.26-.56,1.6-.37.34-.91.51-1.62.51h-.79v-1.15h.57c.38,0,.65-.08.8-.23.16-.15.23-.4.23-.76v-9.98h1.36v10.01ZM120.08,55.6c-.17-.18-.26-.4-.26-.66s.09-.48.26-.66c.17-.18.39-.27.65-.27s.48.09.65.27c.17.18.26.4.26.66s-.09.48-.26.66c-.18.18-.39.27-.65.27s-.48-.09-.65-.27Z"/><path class="cls-3" d="M131,57.2v8.22h-1.36v-1.21c-.26.42-.62.75-1.09.98-.47.23-.98.35-1.54.35-.64,0-1.21-.13-1.73-.4-.51-.27-.91-.66-1.21-1.19-.29-.53-.44-1.17-.44-1.93v-4.82h1.35v4.64c0,.81.2,1.43.61,1.87s.97.65,1.68.65,1.3-.22,1.73-.67c.42-.45.63-1.1.63-1.96v-4.52h1.36Z"/><path class="cls-3" d="M134.53,65.24c-.5-.21-.9-.52-1.19-.9s-.45-.83-.48-1.33h1.41c.04.41.23.75.58,1,.35.26.8.39,1.36.39.52,0,.93-.11,1.23-.34.3-.23.45-.52.45-.87s-.16-.63-.48-.8c-.32-.17-.81-.35-1.48-.52-.61-.16-1.11-.32-1.49-.49-.39-.17-.71-.41-.99-.73-.28-.33-.41-.75-.41-1.28,0-.42.12-.8.38-1.15.25-.35.6-.63,1.06-.83s.98-.31,1.57-.31c.91,0,1.65.23,2.21.69s.86,1.09.9,1.89h-1.37c-.03-.43-.2-.77-.52-1.04-.31-.26-.74-.39-1.27-.39-.49,0-.88.1-1.17.32-.29.21-.44.48-.44.82,0,.27.09.49.26.67.17.17.4.31.66.42.26.1.63.22,1.1.35.59.16,1.07.32,1.44.47.37.16.69.39.95.7s.4.71.41,1.21c0,.45-.12.86-.38,1.21-.25.36-.6.64-1.06.85s-.98.31-1.57.31c-.63,0-1.19-.11-1.69-.32Z"/><path class="cls-3" d="M142.81,58.33v4.85c0,.4.08.68.26.85.17.17.46.25.88.25h1v1.16h-1.23c-.76,0-1.33-.17-1.71-.53-.38-.35-.57-.92-.57-1.72v-4.85h-1.06v-1.12h1.06v-2.07h1.36v2.07h2.15v1.12h-2.15Z"/><path class="cls-3" d="M157.69,57.2l-4.95,12.09h-1.41l1.62-3.96-3.31-8.13h1.51l2.58,6.66,2.55-6.66h1.41Z"/><path class="cls-3" d="M160.55,65.03c-.62-.35-1.12-.85-1.47-1.49-.36-.64-.53-1.39-.53-2.24s.18-1.58.55-2.23c.37-.65.86-1.14,1.49-1.49s1.33-.52,2.11-.52,1.49.17,2.12.52,1.13.84,1.49,1.48c.36.64.55,1.39.55,2.24s-.19,1.6-.56,2.24c-.38.65-.88,1.14-1.52,1.49-.64.35-1.35.53-2.13.53s-1.47-.17-2.09-.53ZM164.02,64.01c.43-.23.78-.58,1.04-1.04.26-.46.4-1.02.4-1.68s-.13-1.22-.39-1.68c-.26-.46-.6-.8-1.02-1.03-.42-.22-.88-.34-1.36-.34s-.96.11-1.37.34c-.42.23-.75.57-1,1.03-.25.46-.38,1.02-.38,1.68s.12,1.24.37,1.69c.24.46.57.8.98,1.03.41.22.86.34,1.35.34s.95-.11,1.38-.34Z"/><path class="cls-3" d="M175.94,57.2v8.22h-1.36v-1.21c-.26.42-.62.75-1.09.98-.47.23-.98.35-1.54.35-.64,0-1.21-.13-1.73-.4-.51-.27-.91-.66-1.21-1.19-.29-.53-.44-1.17-.44-1.93v-4.82h1.35v4.64c0,.81.2,1.43.61,1.87s.97.65,1.68.65,1.3-.22,1.73-.67c.42-.45.63-1.1.63-1.96v-4.52h1.36Z"/><path class="cls-3" d="M180.65,57.44c.44-.26.99-.39,1.63-.39v1.41h-.36c-1.53,0-2.29.83-2.29,2.49v4.47h-1.37v-8.22h1.37v1.34c.24-.47.58-.83,1.03-1.1Z"/><path class="cls-3" d="M199.45,57.45c.5.26.9.66,1.19,1.19s.44,1.17.44,1.93v4.85h-1.35v-4.65c0-.82-.2-1.45-.61-1.88-.41-.43-.95-.65-1.64-.65s-1.27.23-1.69.68c-.42.46-.63,1.11-.63,1.97v4.53h-1.35v-4.65c0-.82-.2-1.45-.61-1.88-.4-.43-.95-.65-1.64-.65s-1.28.23-1.7.68-.63,1.11-.63,1.97v4.53h-1.37v-8.22h1.37v1.19c.27-.43.63-.76,1.09-.99.46-.23.96-.34,1.51-.34.69,0,1.3.16,1.83.46.53.31.92.76,1.19,1.37.23-.58.61-1.03,1.14-1.35.53-.32,1.12-.48,1.77-.48s1.21.13,1.71.4Z"/><path class="cls-3" d="M210.76,61.82h-6.57c.05.81.33,1.44.83,1.9.5.46,1.12.68,1.84.68.59,0,1.08-.14,1.48-.41s.67-.64.83-1.1h1.47c-.22.79-.66,1.43-1.32,1.93s-1.48.74-2.46.74c-.78,0-1.48-.17-2.09-.53-.62-.35-1.1-.85-1.45-1.49-.35-.64-.52-1.39-.52-2.24s.17-1.59.51-2.24c.34-.64.82-1.13,1.43-1.48.62-.34,1.32-.52,2.12-.52s1.47.17,2.07.51c.6.34,1.06.81,1.39,1.4.32.59.49,1.27.49,2.02,0,.26-.01.53-.04.82ZM209.05,59.37c-.23-.38-.54-.66-.94-.86-.4-.19-.83-.29-1.31-.29-.69,0-1.28.22-1.76.66-.49.44-.76,1.05-.83,1.83h5.19c0-.52-.12-.97-.35-1.34Z"/><path class="cls-3" d="M219.04,57.96c.62.61.93,1.48.93,2.62v4.85h-1.35v-4.65c0-.82-.21-1.45-.61-1.88-.41-.43-.97-.65-1.68-.65s-1.29.23-1.72.68c-.43.45-.64,1.1-.64,1.96v4.54h-1.37v-8.22h1.37v1.17c.27-.42.64-.75,1.1-.98.46-.23.98-.34,1.54-.34,1,0,1.81.3,2.43.91Z"/><path class="cls-3" d="M229.49,57.2v8.22h-1.36v-1.21c-.26.42-.62.75-1.09.98-.47.23-.98.35-1.54.35-.64,0-1.21-.13-1.73-.4-.51-.27-.91-.66-1.21-1.19-.29-.53-.44-1.17-.44-1.93v-4.82h1.35v4.64c0,.81.2,1.43.61,1.87s.97.65,1.68.65,1.3-.22,1.73-.67c.42-.45.63-1.1.63-1.96v-4.52h1.36Z"/><path class="cls-3" d="M86.74,66.89c-.15.39-.24.8-.45,1.15-.53.87-1.34,1.32-2.36,1.35-.63.02-1.27,0-1.9,0-1.59,0-2.81-1.11-2.92-2.7-.05-.78-.05-1.57.01-2.35.11-1.39,1.17-2.42,2.55-2.57.08,0,.16-.02.27-.03,0-.07.01-.14.01-.21,0-1.19.02-2.39,0-3.58-.04-2.44-1.1-4.33-3.14-5.67-.04-.03-.09-.05-.13-.08-.02-.01-.04-.02-.08-.04-.76,1.24-1.86,1.95-3.32,1.95-1.47,0-2.57-.7-3.33-1.96-.86.49-1.56,1.13-2.12,1.93-.79,1.13-1.21,2.38-1.22,3.76,0,1.24,0,2.49,0,3.74,0,.04,0,.09,0,.15.18.02.36.04.53.07,1.27.26,2.2,1.25,2.3,2.54.06.79.07,1.6,0,2.39-.11,1.41-1.09,2.46-2.5,2.61-.86.09-1.75.09-2.61,0-1.35-.14-2.33-1.12-2.47-2.47-.09-.88-.09-1.78,0-2.65.14-1.36,1.2-2.31,2.56-2.46.08,0,.16-.02.26-.03v-.25c0-1.14,0-2.28,0-3.42,0-2.68,1.02-4.91,3.04-6.67.03-.03.07-.06.13-.12-.09,0-.15-.02-.21-.02-.69,0-1.37,0-2.06,0-.14,0-.22.05-.31.16-.54.75-1.5.99-2.33.61-.82-.38-1.26-1.29-1.06-2.15.21-.89,1-1.5,1.91-1.47.62.02,1.11.3,1.49.79.05.07.15.14.22.14,1.34,0,2.68,0,4.03,0,.01,0,.03,0,.06-.01.16-.55.41-1.07.8-1.52.63-.72,1.41-1.15,2.36-1.29.04,0,.08-.03.12-.04.27,0,.54,0,.81,0,.04.01.08.03.12.04.95.14,1.74.58,2.37,1.31.38.44.63.95.79,1.52h.21c1.26,0,2.52,0,3.78,0,.15,0,.24-.04.33-.16.46-.63,1.1-.89,1.86-.76.78.14,1.29.62,1.51,1.38.03.1.05.2.08.3v.36s-.03.04-.03.06c-.14.85-.62,1.42-1.46,1.61-.82.19-1.49-.1-2-.77-.04-.06-.14-.1-.22-.1-.73,0-1.46,0-2.19,0-.03,0-.06,0-.1.02,0,.03,0,.03.01.04.03.03.07.06.1.09,2.01,1.77,3.02,4,3.02,6.68,0,1.14,0,2.28,0,3.42,0,.08,0,.16,0,.23.03.01.04.02.05.02.07,0,.15.02.22.03,1.11.13,1.89.71,2.35,1.71.11.24.16.51.24.76v2.64ZM67.64,67.48c.32,0,.64,0,.96,0,.56-.01.95-.41.95-.97,0-.62,0-1.24,0-1.85,0-.58-.41-.98-.98-.99-.62,0-1.24,0-1.85,0-.56,0-.96.39-.97.95,0,.64,0,1.28,0,1.92,0,.54.4.92.93.94.32,0,.64,0,.96,0ZM84.82,65.57s0,0,0,0c0-.33,0-.66,0-.98-.02-.52-.42-.91-.94-.92-.64,0-1.28,0-1.92,0-.54,0-.94.41-.95.95,0,.63,0,1.27,0,1.9,0,.55.4.95.94.96.64.01,1.28,0,1.92,0,.55,0,.93-.4.95-.95,0-.32,0-.64,0-.96ZM75.28,48.4c-1.05,0-1.91.85-1.91,1.9,0,1.04.86,1.91,1.9,1.92,1.06,0,1.92-.85,1.92-1.91,0-1.04-.86-1.9-1.91-1.9Z"/><path class="cls-3" d="M99.92,120.44c.46-.82,1.09-1.45,1.88-1.91.8-.46,1.68-.69,2.65-.69,1.14,0,2.13.27,2.98.82.85.55,1.47,1.33,1.86,2.34h-1.63c-.29-.63-.71-1.12-1.25-1.46s-1.2-.51-1.96-.51-1.39.17-1.97.51-1.03.82-1.36,1.45-.5,1.36-.5,2.2.17,1.56.5,2.18.78,1.11,1.36,1.45,1.23.51,1.97.51,1.41-.17,1.96-.5.96-.82,1.25-1.45h1.63c-.39,1-1.01,1.77-1.86,2.32-.85.54-1.85.82-2.98.82-.97,0-1.85-.23-2.65-.68-.79-.46-1.42-1.09-1.88-1.9s-.69-1.72-.69-2.75.23-1.94.69-2.75Z"/><path class="cls-3" d="M118.61,120.2v8.22h-1.36v-1.21c-.26.42-.62.75-1.09.98-.47.23-.98.35-1.54.35-.64,0-1.21-.13-1.73-.4-.51-.27-.91-.66-1.21-1.19-.29-.53-.44-1.17-.44-1.93v-4.82h1.35v4.64c0,.81.2,1.43.61,1.87s.97.65,1.68.65,1.3-.22,1.73-.67c.42-.45.63-1.1.63-1.96v-4.52h1.36Z"/><path class="cls-3" d="M122.14,128.24c-.5-.21-.9-.52-1.19-.9s-.45-.83-.48-1.33h1.41c.04.41.23.75.58,1,.35.26.8.39,1.36.39.52,0,.93-.11,1.23-.34.3-.23.45-.52.45-.87s-.16-.63-.48-.8c-.32-.17-.81-.35-1.48-.52-.61-.16-1.11-.32-1.49-.49-.39-.17-.71-.41-.99-.73-.28-.33-.41-.75-.41-1.28,0-.42.12-.8.38-1.15.25-.35.6-.63,1.06-.83s.98-.31,1.57-.31c.91,0,1.65.23,2.21.69s.86,1.09.9,1.89h-1.37c-.03-.43-.2-.77-.52-1.04-.31-.26-.74-.39-1.27-.39-.49,0-.88.1-1.17.32-.29.21-.44.48-.44.82,0,.27.09.49.26.67.17.17.4.31.66.42.26.1.63.22,1.1.35.59.16,1.07.32,1.44.47.37.16.69.39.95.7s.4.71.41,1.21c0,.45-.12.86-.38,1.21-.25.36-.6.64-1.06.85s-.98.31-1.57.31c-.63,0-1.19-.11-1.69-.32Z"/><path class="cls-3" d="M130.42,121.33v4.85c0,.4.08.68.26.85.17.17.46.25.88.25h1v1.16h-1.23c-.76,0-1.33-.17-1.71-.53-.38-.35-.57-.92-.57-1.72v-4.85h-1.06v-1.12h1.06v-2.07h1.36v2.07h2.15v1.12h-2.15Z"/><path class="cls-3" d="M135.71,128.03c-.62-.35-1.12-.85-1.47-1.49-.36-.64-.53-1.39-.53-2.24s.18-1.58.55-2.23c.37-.65.86-1.14,1.49-1.49s1.33-.52,2.11-.52,1.49.17,2.12.52,1.13.84,1.49,1.48c.36.64.55,1.39.55,2.24s-.19,1.6-.56,2.24c-.38.65-.88,1.14-1.52,1.49-.64.35-1.35.53-2.13.53s-1.47-.17-2.09-.53ZM139.18,127.01c.43-.23.78-.58,1.04-1.04.26-.46.4-1.02.4-1.68s-.13-1.22-.39-1.68c-.26-.46-.6-.8-1.02-1.03-.42-.22-.88-.34-1.36-.34s-.96.11-1.37.34c-.42.23-.75.57-1,1.03-.25.46-.38,1.02-.38,1.68s.12,1.24.37,1.69c.24.46.57.8.98,1.03.41.22.86.34,1.35.34s.95-.11,1.38-.34Z"/><path class="cls-3" d="M155.41,120.45c.5.26.9.66,1.19,1.19s.44,1.17.44,1.93v4.85h-1.35v-4.65c0-.82-.2-1.45-.61-1.88-.41-.43-.95-.65-1.64-.65s-1.27.23-1.69.68c-.42.46-.63,1.11-.63,1.97v4.53h-1.35v-4.65c0-.82-.2-1.45-.61-1.88-.4-.43-.95-.65-1.64-.65s-1.28.23-1.7.68-.63,1.11-.63,1.97v4.53h-1.37v-8.22h1.37v1.19c.27-.43.63-.76,1.09-.99.46-.23.96-.34,1.51-.34.69,0,1.3.16,1.83.46.53.31.92.76,1.19,1.37.23-.58.61-1.03,1.14-1.35.53-.32,1.12-.48,1.77-.48s1.21.13,1.71.4Z"/><path class="cls-3" d="M159.31,118.6c-.18-.18-.27-.4-.27-.66s.09-.48.27-.66c.18-.18.4-.27.66-.27s.46.09.64.27c.17.18.26.4.26.66s-.09.48-.26.66c-.18.18-.39.27-.64.27s-.48-.09-.66-.27ZM160.63,120.2v8.22h-1.37v-8.22h1.37Z"/><path class="cls-3" d="M163.97,127.3h4.04v1.12h-5.59v-1.12l3.99-5.99h-3.96v-1.11h5.54v1.11l-4.01,5.99Z"/><path class="cls-3" d="M177.23,124.82h-6.57c.05.81.33,1.44.83,1.9.5.46,1.12.68,1.84.68.59,0,1.08-.14,1.48-.41s.67-.64.83-1.1h1.47c-.22.79-.66,1.43-1.32,1.93s-1.48.74-2.46.74c-.78,0-1.48-.17-2.09-.53-.62-.35-1.1-.85-1.45-1.49-.35-.64-.52-1.39-.52-2.24s.17-1.59.51-2.24c.34-.64.82-1.13,1.43-1.48.62-.34,1.32-.52,2.12-.52s1.47.17,2.07.51c.6.34,1.06.81,1.39,1.4.32.59.49,1.27.49,2.02,0,.26-.01.53-.04.82ZM175.52,122.37c-.23-.38-.54-.66-.94-.86-.4-.19-.83-.29-1.31-.29-.69,0-1.28.22-1.76.66-.49.44-.76,1.05-.83,1.83h5.19c0-.52-.12-.97-.35-1.34Z"/><path class="cls-3" d="M190.54,124.82h-6.57c.05.81.33,1.44.83,1.9.5.46,1.12.68,1.84.68.59,0,1.08-.14,1.48-.41s.67-.64.83-1.1h1.47c-.22.79-.66,1.43-1.32,1.93s-1.48.74-2.46.74c-.78,0-1.48-.17-2.09-.53-.62-.35-1.1-.85-1.45-1.49-.35-.64-.52-1.39-.52-2.24s.17-1.59.51-2.24c.34-.64.82-1.13,1.43-1.48.62-.34,1.32-.52,2.12-.52s1.47.17,2.07.51c.6.34,1.06.81,1.39,1.4.32.59.49,1.27.49,2.02,0,.26-.01.53-.04.82ZM188.83,122.37c-.23-.38-.54-.66-.94-.86-.4-.19-.83-.29-1.31-.29-.69,0-1.28.22-1.76.66-.49.44-.76,1.05-.83,1.83h5.19c0-.52-.12-.97-.35-1.34Z"/><path class="cls-3" d="M192.38,122.07c.34-.63.81-1.13,1.4-1.48.59-.35,1.26-.53,2-.53.64,0,1.23.15,1.79.44.55.3.97.68,1.26,1.16v-4.35h1.38v11.1h-1.38v-1.54c-.27.49-.67.89-1.2,1.21-.53.32-1.15.47-1.86.47s-1.39-.18-1.99-.54c-.6-.36-1.06-.87-1.4-1.51-.34-.65-.51-1.39-.51-2.22s.17-1.58.51-2.21ZM198.46,122.68c-.25-.46-.59-.81-1.01-1.06-.42-.25-.89-.37-1.4-.37s-.98.12-1.4.36c-.42.24-.75.59-1,1.05s-.38,1-.38,1.62.12,1.18.38,1.64.58.82,1,1.07.89.37,1.4.37.98-.12,1.4-.37c.43-.25.76-.6,1.01-1.07s.38-1.01.38-1.63-.12-1.16-.38-1.62Z"/><path class="cls-3" d="M202.57,118.6c-.18-.18-.27-.4-.27-.66s.09-.48.27-.66c.18-.18.4-.27.66-.27s.46.09.64.27c.17.18.26.4.26.66s-.09.48-.26.66c-.18.18-.39.27-.64.27s-.48-.09-.66-.27ZM203.89,120.2v8.22h-1.37v-8.22h1.37Z"/><path class="cls-3" d="M207.88,121.33v4.85c0,.4.08.68.26.85.17.17.46.25.88.25h1v1.16h-1.23c-.76,0-1.33-.17-1.71-.53-.38-.35-.57-.92-.57-1.72v-4.85h-1.06v-1.12h1.06v-2.07h1.36v2.07h2.15v1.12h-2.15Z"/><path class="cls-3" d="M219.13,124.82h-6.57c.05.81.33,1.44.83,1.9.5.46,1.12.68,1.84.68.59,0,1.08-.14,1.48-.41s.67-.64.83-1.1h1.47c-.22.79-.66,1.43-1.32,1.93s-1.48.74-2.46.74c-.78,0-1.48-.17-2.09-.53-.62-.35-1.1-.85-1.45-1.49-.35-.64-.52-1.39-.52-2.24s.17-1.59.51-2.24c.34-.64.82-1.13,1.43-1.48.62-.34,1.32-.52,2.12-.52s1.47.17,2.07.51c.6.34,1.06.81,1.39,1.4.32.59.49,1.27.49,2.02,0,.26-.01.53-.04.82ZM217.42,122.37c-.23-.38-.54-.66-.94-.86-.4-.19-.83-.29-1.31-.29-.69,0-1.28.22-1.76.66-.49.44-.76,1.05-.83,1.83h5.19c0-.52-.12-.97-.35-1.34Z"/><path class="cls-3" d="M106.18,180.97v1.11h-2.85v9.35h-1.37v-9.35h-2.87v-1.11h7.08Z"/><path class="cls-3" d="M115.31,187.82h-6.57c.05.81.33,1.44.83,1.9.5.46,1.12.68,1.84.68.59,0,1.08-.14,1.48-.41s.67-.64.83-1.1h1.47c-.22.79-.66,1.43-1.32,1.93s-1.48.74-2.46.74c-.78,0-1.48-.17-2.09-.53-.62-.35-1.1-.85-1.45-1.49-.35-.64-.52-1.39-.52-2.24s.17-1.59.51-2.24c.34-.64.82-1.13,1.43-1.48.62-.34,1.32-.52,2.12-.52s1.47.17,2.07.51c.6.34,1.06.81,1.39,1.4.32.59.49,1.27.49,2.02,0,.26-.01.53-.04.82ZM113.6,185.37c-.23-.38-.54-.66-.94-.86-.4-.19-.83-.29-1.31-.29-.69,0-1.28.22-1.76.66-.49.44-.76,1.05-.83,1.83h5.19c0-.52-.12-.97-.35-1.34Z"/><path class="cls-3" d="M128.75,183.45c.5.26.9.66,1.19,1.19s.44,1.17.44,1.93v4.85h-1.35v-4.65c0-.82-.2-1.45-.61-1.88-.41-.43-.95-.65-1.64-.65s-1.27.23-1.69.68c-.42.46-.63,1.11-.63,1.97v4.53h-1.35v-4.65c0-.82-.2-1.45-.61-1.88-.4-.43-.95-.65-1.64-.65s-1.28.23-1.7.68-.63,1.11-.63,1.97v4.53h-1.37v-8.22h1.37v1.19c.27-.43.63-.76,1.09-.99.46-.23.96-.34,1.51-.34.69,0,1.3.16,1.83.46.53.31.92.76,1.19,1.37.23-.58.61-1.03,1.14-1.35.53-.32,1.12-.48,1.77-.48s1.21.13,1.71.4Z"/><path class="cls-3" d="M135.18,183.54c.53-.31,1.16-.47,1.87-.47s1.39.18,1.99.53c.59.35,1.06.84,1.4,1.48s.51,1.37.51,2.21-.17,1.57-.51,2.22c-.34.65-.81,1.15-1.4,1.51-.6.36-1.26.54-1.99.54s-1.32-.16-1.85-.47c-.54-.31-.94-.71-1.22-1.18v5.42h-1.37v-12.12h1.37v1.52c.27-.47.67-.86,1.21-1.18ZM139.18,185.67c-.25-.46-.59-.81-1.01-1.05-.43-.24-.89-.36-1.4-.36s-.96.12-1.39.37c-.42.25-.76.6-1.02,1.07-.25.46-.38,1-.38,1.61s.13,1.16.38,1.63c.26.46.6.82,1.02,1.07.43.25.89.37,1.39.37s.98-.12,1.4-.37c.42-.25.76-.6,1.01-1.07.25-.46.38-1.01.38-1.64s-.13-1.16-.38-1.62Z"/><path class="cls-3" d="M144.11,180.32v11.1h-1.37v-11.1h1.37Z"/><path class="cls-3" d="M146.44,185.07c.34-.63.81-1.13,1.4-1.48.59-.35,1.26-.53,1.99-.53s1.34.16,1.88.46c.53.31.92.7,1.19,1.17v-1.5h1.38v8.22h-1.38v-1.53c-.27.48-.67.88-1.21,1.19-.54.32-1.16.47-1.87.47s-1.39-.18-1.98-.54c-.59-.36-1.06-.87-1.4-1.51-.34-.65-.51-1.39-.51-2.22s.17-1.58.51-2.21ZM152.51,185.68c-.25-.46-.59-.81-1.01-1.06-.42-.25-.89-.37-1.4-.37s-.98.12-1.4.36c-.42.24-.75.59-1,1.05s-.38,1-.38,1.62.12,1.18.38,1.64.58.82,1,1.07.89.37,1.4.37.98-.12,1.4-.37c.43-.25.76-.6,1.01-1.07s.38-1.01.38-1.63-.12-1.16-.38-1.62Z"/><path class="cls-3" d="M158.24,184.33v4.85c0,.4.08.68.26.85.17.17.46.25.88.25h1v1.16h-1.23c-.76,0-1.33-.17-1.71-.53-.38-.35-.57-.92-.57-1.72v-4.85h-1.06v-1.12h1.06v-2.07h1.36v2.07h2.15v1.12h-2.15Z"/><path class="cls-3" d="M169.49,187.82h-6.57c.05.81.33,1.44.83,1.9.5.46,1.12.68,1.84.68.59,0,1.08-.14,1.48-.41s.67-.64.83-1.1h1.47c-.22.79-.66,1.43-1.32,1.93s-1.48.74-2.46.74c-.78,0-1.48-.17-2.09-.53-.62-.35-1.1-.85-1.45-1.49-.35-.64-.52-1.39-.52-2.24s.17-1.59.51-2.24c.34-.64.82-1.13,1.43-1.48.62-.34,1.32-.52,2.12-.52s1.47.17,2.07.51c.6.34,1.06.81,1.39,1.4.32.59.49,1.27.49,2.02,0,.26-.01.53-.04.82ZM167.78,185.37c-.23-.38-.54-.66-.94-.86-.4-.19-.83-.29-1.31-.29-.69,0-1.28.22-1.76.66-.49.44-.76,1.05-.83,1.83h5.19c0-.52-.12-.97-.35-1.34Z"/><path class="cls-3" d="M172.55,191.24c-.5-.21-.9-.52-1.19-.9s-.45-.83-.48-1.33h1.41c.04.41.23.75.58,1,.35.26.8.39,1.36.39.52,0,.93-.11,1.23-.34.3-.23.45-.52.45-.87s-.16-.63-.48-.8c-.32-.17-.81-.35-1.48-.52-.61-.16-1.11-.32-1.49-.49-.39-.17-.71-.41-.99-.73-.28-.33-.41-.75-.41-1.28,0-.42.12-.8.38-1.15.25-.35.6-.63,1.06-.83s.98-.31,1.57-.31c.91,0,1.65.23,2.21.69s.86,1.09.9,1.89h-1.37c-.03-.43-.2-.77-.52-1.04-.31-.26-.74-.39-1.27-.39-.49,0-.88.1-1.17.32-.29.21-.44.48-.44.82,0,.27.09.49.26.67.17.17.4.31.66.42.26.1.63.22,1.1.35.59.16,1.07.32,1.44.47.37.16.69.39.95.7s.4.71.41,1.21c0,.45-.12.86-.38,1.21-.25.36-.6.64-1.06.85s-.98.31-1.57.31c-.63,0-1.19-.11-1.69-.32Z"/><path class="cls-3" d="M101.83,253.85c-.8-.45-1.43-1.09-1.9-1.9-.46-.82-.7-1.73-.7-2.75s.23-1.94.7-2.75c.47-.82,1.1-1.45,1.9-1.91.8-.46,1.68-.68,2.65-.68s1.87.23,2.67.68c.8.46,1.43,1.09,1.89,1.9.46.81.69,1.73.69,2.76s-.23,1.95-.69,2.76c-.46.81-1.09,1.44-1.89,1.9-.8.46-1.69.68-2.67.68s-1.85-.23-2.65-.68ZM106.46,252.83c.58-.34,1.04-.83,1.38-1.46.33-.63.5-1.36.5-2.19s-.17-1.57-.5-2.2c-.34-.62-.79-1.11-1.37-1.45s-1.24-.51-1.98-.51-1.4.17-1.98.51c-.58.34-1.04.82-1.37,1.45s-.5,1.36-.5,2.2.17,1.56.5,2.19.79,1.12,1.38,1.46,1.24.51,1.97.51,1.39-.17,1.97-.51Z"/><path class="cls-3" d="M113.93,246.44c.44-.26.99-.39,1.63-.39v1.41h-.36c-1.53,0-2.29.83-2.29,2.49v4.47h-1.37v-8.22h1.37v1.34c.24-.47.58-.83,1.03-1.1Z"/><path class="cls-3" d="M117.13,248.07c.34-.63.81-1.13,1.4-1.48.59-.35,1.26-.53,2-.53.64,0,1.23.15,1.79.44.55.3.97.68,1.26,1.16v-4.35h1.38v11.1h-1.38v-1.54c-.27.49-.67.89-1.2,1.21-.53.32-1.15.47-1.86.47s-1.39-.18-1.99-.54c-.6-.36-1.06-.87-1.4-1.51-.34-.65-.51-1.39-.51-2.22s.17-1.58.51-2.21ZM123.2,248.68c-.25-.46-.59-.81-1.01-1.06-.42-.25-.89-.37-1.4-.37s-.98.12-1.4.36c-.42.24-.75.59-1,1.05s-.38,1-.38,1.62.12,1.18.38,1.64.58.82,1,1.07.89.37,1.4.37.98-.12,1.4-.37c.43-.25.76-.6,1.01-1.07s.38-1.01.38-1.63-.12-1.16-.38-1.62Z"/><path class="cls-3" d="M134.72,250.82h-6.57c.05.81.33,1.44.83,1.9.5.46,1.12.68,1.84.68.59,0,1.08-.14,1.48-.41s.67-.64.83-1.1h1.47c-.22.79-.66,1.43-1.32,1.93s-1.48.74-2.46.74c-.78,0-1.48-.17-2.09-.53-.62-.35-1.1-.85-1.45-1.49-.35-.64-.52-1.39-.52-2.24s.17-1.59.51-2.24c.34-.64.82-1.13,1.43-1.48.62-.34,1.32-.52,2.12-.52s1.47.17,2.07.51c.6.34,1.06.81,1.39,1.4.32.59.49,1.27.49,2.02,0,.26-.01.53-.04.82ZM133.01,248.37c-.23-.38-.54-.66-.94-.86-.4-.19-.83-.29-1.31-.29-.69,0-1.28.22-1.76.66-.49.44-.76,1.05-.83,1.83h5.19c0-.52-.12-.97-.35-1.34Z"/><path class="cls-3" d="M138.96,246.44c.44-.26.99-.39,1.63-.39v1.41h-.36c-1.53,0-2.29.83-2.29,2.49v4.47h-1.37v-8.22h1.37v1.34c.24-.47.58-.83,1.03-1.1Z"/><path class="cls-3" d="M146.17,248.07c.34-.63.81-1.13,1.4-1.48.59-.35,1.26-.53,1.99-.53s1.34.16,1.88.46c.53.31.92.7,1.19,1.17v-1.5h1.38v8.22h-1.38v-1.53c-.27.48-.67.88-1.21,1.19-.54.32-1.16.47-1.87.47s-1.39-.18-1.98-.54c-.59-.36-1.06-.87-1.4-1.51-.34-.65-.51-1.39-.51-2.22s.17-1.58.51-2.21ZM152.24,248.68c-.25-.46-.59-.81-1.01-1.06-.42-.25-.89-.37-1.4-.37s-.98.12-1.4.36c-.42.24-.75.59-1,1.05s-.38,1-.38,1.62.12,1.18.38,1.64.58.82,1,1.07.89.37,1.4.37.98-.12,1.4-.37c.43-.25.76-.6,1.01-1.07s.38-1.01.38-1.63-.12-1.16-.38-1.62Z"/><path class="cls-3" d="M160.31,248.07c.34-.63.81-1.13,1.4-1.48.59-.35,1.26-.53,2-.53.64,0,1.23.15,1.79.44.55.3.97.68,1.26,1.16v-4.35h1.38v11.1h-1.38v-1.54c-.27.49-.67.89-1.2,1.21-.53.32-1.15.47-1.86.47s-1.39-.18-1.99-.54c-.6-.36-1.06-.87-1.4-1.51-.34-.65-.51-1.39-.51-2.22s.17-1.58.51-2.21ZM166.39,248.68c-.25-.46-.59-.81-1.01-1.06-.42-.25-.89-.37-1.4-.37s-.98.12-1.4.36c-.42.24-.75.59-1,1.05s-.38,1-.38,1.62.12,1.18.38,1.64.58.82,1,1.07.89.37,1.4.37.98-.12,1.4-.37c.43-.25.76-.6,1.01-1.07s.38-1.01.38-1.63-.12-1.16-.38-1.62Z"/><path class="cls-3" d="M177.91,250.82h-6.57c.05.81.33,1.44.83,1.9.5.46,1.12.68,1.84.68.59,0,1.08-.14,1.48-.41s.67-.64.83-1.1h1.47c-.22.79-.66,1.43-1.32,1.93s-1.48.74-2.46.74c-.78,0-1.48-.17-2.09-.53-.62-.35-1.1-.85-1.45-1.49-.35-.64-.52-1.39-.52-2.24s.17-1.59.51-2.24c.34-.64.82-1.13,1.43-1.48.62-.34,1.32-.52,2.12-.52s1.47.17,2.07.51c.6.34,1.06.81,1.39,1.4.32.59.49,1.27.49,2.02,0,.26-.01.53-.04.82ZM176.2,248.37c-.23-.38-.54-.66-.94-.86-.4-.19-.83-.29-1.31-.29-.69,0-1.28.22-1.76.66-.49.44-.76,1.05-.83,1.83h5.19c0-.52-.12-.97-.35-1.34Z"/><path class="cls-3" d="M180.97,254.24c-.5-.21-.9-.52-1.19-.9s-.45-.83-.48-1.33h1.41c.04.41.23.75.58,1,.35.26.8.39,1.36.39.52,0,.93-.11,1.23-.34.3-.23.45-.52.45-.87s-.16-.63-.48-.8c-.32-.17-.81-.35-1.48-.52-.61-.16-1.11-.32-1.49-.49-.39-.17-.71-.41-.99-.73-.28-.33-.41-.75-.41-1.28,0-.42.12-.8.38-1.15.25-.35.6-.63,1.06-.83s.98-.31,1.57-.31c.91,0,1.65.23,2.21.69s.86,1.09.9,1.89h-1.37c-.03-.43-.2-.77-.52-1.04-.31-.26-.74-.39-1.27-.39-.49,0-.88.1-1.17.32-.29.21-.44.48-.44.82,0,.27.09.49.26.67.17.17.4.31.66.42.26.1.63.22,1.1.35.59.16,1.07.32,1.44.47.37.16.69.39.95.7s.4.71.41,1.21c0,.45-.12.86-.38,1.21-.25.36-.6.64-1.06.85s-.98.31-1.57.31c-.63,0-1.19-.11-1.69-.32Z"/><path class="cls-3" d="M187.63,244.6c-.18-.18-.27-.4-.27-.66s.09-.48.27-.66c.18-.18.4-.27.66-.27s.46.09.64.27c.17.18.26.4.26.66s-.09.48-.26.66c-.18.18-.39.27-.64.27s-.48-.09-.66-.27ZM188.95,246.2v8.22h-1.37v-8.22h1.37Z"/><path class="cls-3" d="M196.53,246.53c.53.31.93.7,1.19,1.17v-1.5h1.38v8.4c0,.75-.16,1.42-.48,2s-.78,1.04-1.37,1.37c-.59.33-1.29.5-2.08.5-1.08,0-1.98-.25-2.7-.76-.72-.51-1.15-1.21-1.27-2.08h1.35c.15.5.46.9.93,1.21s1.04.46,1.7.46c.75,0,1.36-.24,1.84-.71.47-.47.71-1.13.71-1.98v-1.72c-.27.48-.67.88-1.2,1.2-.53.32-1.15.48-1.86.48s-1.39-.18-1.99-.54c-.6-.36-1.06-.87-1.4-1.51-.34-.65-.51-1.39-.51-2.22s.17-1.58.51-2.21.81-1.13,1.4-1.48c.59-.35,1.26-.53,1.99-.53s1.33.16,1.87.46ZM197.35,248.68c-.25-.46-.59-.81-1.01-1.06-.42-.25-.89-.37-1.4-.37s-.98.12-1.4.36c-.42.24-.75.59-1,1.05s-.38,1-.38,1.62.12,1.18.38,1.64.58.82,1,1.07.89.37,1.4.37.98-.12,1.4-.37c.43-.25.76-.6,1.01-1.07s.38-1.01.38-1.63-.12-1.16-.38-1.62Z"/><path class="cls-3" d="M207.85,246.96c.62.61.93,1.48.93,2.62v4.85h-1.35v-4.65c0-.82-.21-1.45-.61-1.88-.41-.43-.97-.65-1.68-.65s-1.29.23-1.72.68c-.43.45-.64,1.1-.64,1.96v4.54h-1.37v-8.22h1.37v1.17c.27-.42.64-.75,1.1-.98.46-.23.98-.34,1.54-.34,1,0,1.81.3,2.43.91Z"/><path class="cls-3" d="M63.16,116.9c.08-.38.14-.77.25-1.14.71-2.46,2.99-4.2,5.55-4.22,2.16-.02,4.33,0,6.49,0,.91,0,1.61.7,1.61,1.6,0,.9-.7,1.6-1.61,1.61-2.08,0-4.16,0-6.24,0-1.71,0-2.84,1.13-2.84,2.84,0,3.46,0,6.92,0,10.38,0,1.68,1.14,2.82,2.81,2.82,3.48,0,6.95,0,10.43,0,1.66,0,2.8-1.15,2.8-2.8,0-1.74,0-3.48,0-5.21,0-.68.33-1.19.95-1.46.6-.27,1.18-.17,1.69.24.36.3.56.69.56,1.16,0,1.9.04,3.79,0,5.69-.08,2.82-2.35,5.23-5.16,5.55-.07,0-.13.03-.19.05h-11.73c-.06-.01-.11-.04-.17-.04-2.38-.29-4.33-1.95-4.98-4.25-.1-.35-.15-.71-.22-1.07,0-3.91,0-7.82,0-11.73Z"/><path class="cls-3" d="M81.54,119.3c-.67-1.62-1.81-2.68-3.44-3.23.04-.06.08-.11.12-.16,2.04-2.24,4.08-4.49,6.13-6.72.69-.75,1.56-1.02,2.55-.77.99.25,1.62.91,1.87,1.9.21.86.01,1.65-.58,2.3-.47.52-.98,1-1.48,1.5-1.65,1.65-3.3,3.3-4.94,4.94-.06.06-.12.14-.21.24Z"/><path class="cls-3" d="M74.81,124.37c-.6,0-1.2,0-1.8,0-.94,0-1.49-.79-1.19-1.68.36-1.08.79-2.13,1.49-3.04.8-1.03,1.81-1.68,3.15-1.68,1.55,0,2.9,1.08,3.22,2.55.42,1.91-1.05,3.8-3.01,3.85-.62.02-1.24,0-1.85,0,0,0,0,0,0,0Z"/><path class="cls-3" d="M85,241.56c-.03.15-.06.3-.1.45-.16.66-.5,1.22-.98,1.7-3.07,3.07-6.15,6.14-9.22,9.21-.12.11-.16.23-.17.39-.17,1.78-.99,3.13-2.63,3.92-1.13.55-2.34.86-3.56,1.1-.44.09-.88.16-1.32.22-1.63.24-3.07-1.21-2.84-2.84.22-1.52.55-3.01,1.12-4.44.55-1.39,1.49-2.38,2.94-2.84.39-.12.81-.17,1.21-.23.14-.02.25-.05.35-.16,3.04-3.05,6.09-6.08,9.13-9.13.62-.62,1.32-1.05,2.21-1.16.02,0,.03-.02.05-.03.24,0,.49,0,.73,0,.04.01.07.03.11.04,1.4.2,2.52,1.2,2.87,2.57.04.16.08.33.11.49v.73ZM73.73,250.24s.07-.1.12-.14c2.57-2.57,5.13-5.13,7.7-7.7.2-.2.41-.4.6-.61.21-.22.29-.47.22-.77-.07-.32-.27-.54-.59-.64-.36-.11-.65,0-.9.26-2.76,2.76-5.53,5.53-8.29,8.29-.04.04-.07.08-.08.09.4.4.8.8,1.22,1.22ZM66.73,255.96c.21-.03.35-.05.49-.07,1.16-.2,2.3-.49,3.4-.93,1.18-.47,1.47-1.73,1.22-2.58-.25-.86-1.04-1.51-1.92-1.58-.75-.06-1.75.26-2.12,1.25-.24.65-.47,1.3-.65,1.96-.17.62-.28,1.27-.42,1.95Z"/><path class="cls-3" d="M85,257.48c-.06.14-.1.3-.17.43-.22.39-.57.65-1.01.66-.77.02-1.54.03-2.3-.03-1.05-.08-1.96-.52-2.72-1.25-.72-.69-1.42-1.4-2.12-2.11-.52-.53-.51-1.34,0-1.85.52-.51,1.32-.5,1.85.02.63.62,1.26,1.24,1.87,1.87.54.56,1.19.81,1.98.74.05-.57-.05-1.1-.39-1.57-.13-.17-.28-.33-.43-.49-.6-.6-1.2-1.2-1.8-1.8-.38-.38-.49-.84-.32-1.35.17-.51.55-.8,1.08-.87.39-.05.75.06,1.03.33.75.74,1.51,1.47,2.23,2.24.69.73,1.07,1.62,1.19,2.62,0,.05.02.1.04.16v2.24Z"/><path class="cls-3" d="M68.01,237.73c.16.04.33.07.49.12.58.15,1.09.42,1.51.84.84.83,1.68,1.66,2.51,2.51.52.52.51,1.32,0,1.83-.51.51-1.32.52-1.85,0-.8-.79-1.6-1.59-2.39-2.39-.23-.23-.49-.34-.81-.28-.33.06-.57.25-.68.58-.11.34-.04.65.21.9.41.42.83.84,1.25,1.25.38.38.76.76,1.14,1.14.54.55.56,1.35.05,1.88-.52.53-1.33.52-1.88-.02-.83-.82-1.67-1.64-2.47-2.48-1.84-1.93-.91-5.1,1.67-5.76.16-.04.31-.07.47-.11.26,0,.52,0,.77,0Z"/><path class="cls-3" d="M87.1,188.71v7.59c-.03.09-.06.19-.09.28-.22.66-.67,1.11-1.34,1.32-.09.03-.17.06-.26.09h-11.62s-.04-.03-.06-.04c-1.07-.27-1.63-1-1.63-2.1,0-2.25,0-4.5,0-6.75,0-.22.02-.44.08-.65.24-.92,1.03-1.47,2.06-1.47,3.55,0,7.1,0,10.66,0,1.18,0,1.85.52,2.17,1.66,0,.02.02.04.03.06Z"/><path class="cls-3" d="M87.1,183.28c-.06.19-.11.39-.2.57-.37.75-.99,1.13-1.82,1.15-.99.02-1.98.02-2.97,0-1.16-.02-2-.87-2-2.03,0-2.31,0-4.62,0-6.93,0-1.18.86-2.03,2.05-2.03.96,0,1.92,0,2.88,0,1.02,0,1.78.6,2.02,1.61,0,.03.03.05.04.08v7.59Z"/><path class="cls-3" d="M64.8,197.99c-.19-.07-.4-.13-.58-.22-.7-.36-1.09-.94-1.1-1.73-.02-2.37-.01-4.73,0-7.1,0-1,.76-1.86,1.76-1.92,1.14-.06,2.28-.07,3.42,0,1.08.06,1.81.92,1.81,2.01,0,2.03,0,4.06,0,6.09,0,.3,0,.59,0,.89-.03.97-.64,1.72-1.59,1.94-.04,0-.07.03-.1.04h-3.61Z"/><path class="cls-3" d="M70.62,174c1.79,0,3.58,0,5.36,0,1.28,0,2.12.84,2.12,2.13,0,2.25,0,4.5,0,6.75,0,1.27-.84,2.12-2.11,2.12-3.59,0-7.18,0-10.77,0-1.26,0-2.11-.86-2.11-2.12,0-2.25,0-4.5,0-6.75,0-1.3.84-2.13,2.14-2.13,1.79,0,3.58,0,5.36,0Z"/></g></svg>