<?xml version="1.0" encoding="UTF-8"?><svg id="Layer_2" xmlns="http://www.w3.org/2000/svg" viewBox="0 0 27.11 25.54"><defs><style>.cls-1{fill:#4d4d4d;stroke-width:0px;}</style></defs><g id="Layer_1-2"><path class="cls-1" d="M27.11,15.26c-.07.25-.12.51-.21.76-.48,1.43-1.79,2.41-3.3,2.48-.41.02-.81.01-1.22,0-.55,0-.88-.34-.88-.9,0-2.25,0-4.5,0-6.75,0-.96.03-1.92-.17-2.87-.7-3.32-3.48-5.85-6.85-6.23-3.97-.45-7.61,2.02-8.61,5.89-.18.68-.25,1.41-.25,2.12-.03,2.58-.01,5.15-.01,7.73,0,.67-.2.95-.85,1.02-1.55.16-2.96-.13-3.99-1.44C.26,16.42.01,15.67,0,14.84c0-.76,0-1.52,0-2.28.01-2.03,1.6-3.64,3.63-3.7.1,0,.19,0,.3,0,.32-2.98,1.65-5.36,4.07-7.1C9.82.46,11.88-.1,14.11.01c4.96.26,8.81,4.33,9.07,8.82.3.03.61.04.91.1,1.57.31,2.71,1.49,2.97,3.05,0,.05.03.1.05.15v3.12Z"/><path class="cls-1" d="M13.56,25.54c-.35,0-.71,0-1.06,0-.94-.02-1.68-.76-1.68-1.69,0-.91.72-1.67,1.65-1.69.72-.02,1.45-.02,2.17,0,.93.02,1.65.78,1.65,1.69,0,.93-.73,1.67-1.68,1.69-.35,0-.71,0-1.06,0Z"/><path class="cls-1" d="M9.88,23.38v.9c-3.01.4-5.87-1.85-6.28-4.77h.91c.8,2.69,2.6,3.95,5.37,3.87Z"/></g></svg>