<?xml version="1.0" encoding="UTF-8"?><svg id="Layer_2" xmlns="http://www.w3.org/2000/svg" viewBox="0 0 50 50"><defs><style>.cls-1{fill:#ededed;stroke-width:0px;}</style></defs><g id="Layer_1-2"><path class="cls-1" d="M42.58,50H10.45c-.11-.03-.22-.07-.33-.08-4.74-.58-8.58-3.93-9.77-8.56C.21,40.76.12,40.15,0,39.55,0,28.85,0,18.14,0,7.44c.03-.07.07-.15.08-.22C.72,2.99,4.15.03,8.43.02c2.07,0,4.13-.04,6.2,0,3.3.08,5.76,1.62,7.35,4.51.68,1.24.94,2.59.94,3.99,0,.74,0,1.48,0,2.22.04.02.08.04.12.06.7-.71,1.39-1.44,2.11-2.14,3.15-3.07,8.43-3.12,11.6-.08,1.61,1.54,3.21,3.1,4.72,4.73,2.16,2.31,2.76,5.05,1.92,8.1-.38,1.38-1.13,2.55-2.15,3.55-.68.67-1.36,1.33-2.04,2,.02.04.04.08.06.12.79,0,1.58,0,2.37,0,3.92.05,7.19,2.61,8.12,6.36.09.34.16.69.24,1.03v8.1c-.03.07-.07.14-.08.22-.53,3.24-2.34,5.46-5.38,6.68-.62.25-1.31.35-1.96.52ZM22.95,37.34c.14-.13.2-.18.26-.24,5.03-5.03,10.06-10.05,15.08-15.08,1.74-1.75,1.74-4.26,0-6.02-1.38-1.4-2.78-2.79-4.17-4.18-1.84-1.83-4.41-1.83-6.26,0-1.53,1.53-3.06,3.06-4.6,4.58-.25.25-.36.49-.35.85.01,6.51,0,13.01,0,19.52,0,.16.01.31.02.56ZM20.45,45.67l.07.13c.09,0,.19.02.28.02,6.95,0,13.9.01,20.84,0,2.4,0,4.15-1.77,4.18-4.17.03-2.03.02-4.07,0-6.1-.02-2.53-1.79-4.28-4.32-4.29-2.02,0-4.04,0-6.05,0-.35,0-.6.1-.85.35-4.58,4.6-9.18,9.18-13.77,13.77-.11.11-.26.2-.39.3ZM4.21,29.21c-.01.09-.03.15-.03.21,0,3.22-.06,6.44.03,9.66.12,4.12,4.25,7.38,8.32,6.68,3.72-.64,6.21-3.59,6.22-7.37,0-2.89,0-5.79,0-8.68,0-.16,0-.32,0-.49H4.21ZM18.72,25v-8.27H4.21v8.27h14.51ZM18.74,12.49c0-1.51.05-2.98-.01-4.44-.09-2.1-1.84-3.8-3.95-3.84-2.21-.04-4.42-.04-6.64,0-1.85.03-3.46,1.36-3.84,3.16-.14.66-.11,1.36-.13,2.04-.02,1.02,0,2.04,0,3.08h14.57Z"/><path class="cls-1" d="M14.57,38.56c0,1.73-1.43,3.14-3.14,3.11-1.7-.02-3.09-1.42-3.1-3.12,0-1.72,1.4-3.12,3.13-3.12,1.74,0,3.12,1.39,3.11,3.13Z"/></g></svg>