<?xml version="1.0" encoding="UTF-8"?><svg id="Layer_2" xmlns="http://www.w3.org/2000/svg" viewBox="0 0 50 50"><defs><style>.cls-1{fill:#ededed;stroke-width:0px;}</style></defs><g id="Layer_1-2"><path class="cls-1" d="M0,31.25C0,30.08,0,28.9,0,27.73c.03-.13.07-.25.09-.38.63-5.23,3.17-9.27,7.67-12,2.97-1.8,6.28-2.61,9.74-2.82.38-.02.61-.17.84-.45C24.93,4.13,33.4.1,43.73,0c2.82-.03,5.24,1.83,6.02,4.53.09.31.17.62.25.93v2.73c-.03.17-.06.34-.09.52-.25,1.69-.38,3.4-.77,5.05-1.7,7.28-5.5,13.27-11.32,17.97-.23.19-.34.38-.36.69-.11,2.07-.49,4.09-1.14,6.06-1.91,5.76-5.72,9.53-11.63,11.07-.8.21-1.62.3-2.43.44h-3.52c0-3.74,0-7.49,0-11.23,0-4.33-3.19-7.52-7.52-7.52-3.74,0-7.49,0-11.23,0ZM22.73,36.42c.12-.04.18-.06.24-.09,3.98-1.93,7.76-4.18,11.2-6.97,3-2.44,5.67-5.17,7.7-8.49,2.74-4.5,3.84-9.45,3.95-14.66.02-1.16-.92-2.07-2.1-2.02-1.3.05-2.6.14-3.89.3-5.89.71-10.99,3.12-15.32,7.18-3.85,3.61-6.84,7.87-9.35,12.49-.55,1.01-1.05,2.04-1.61,3.12,2.37.48,4.36,1.51,6.01,3.17,1.66,1.65,2.69,3.65,3.17,5.98ZM14.38,17.22c-2.86.43-5.99,2.26-7.73,4.52-1.2,1.57-1.99,3.31-2.29,5.33,1.54,0,3,.01,4.46-.02.14,0,.33-.21.41-.37.74-1.45,1.41-2.93,2.19-4.35.94-1.72,1.96-3.4,2.96-5.11ZM22.93,45.6c4.3-.07,9.67-5.57,9.83-10.03-.42.27-.83.53-1.25.79-2.62,1.64-5.34,3.1-8.14,4.39-.18.08-.42.28-.42.43-.03,1.46-.02,2.92-.02,4.43Z"/><path class="cls-1" d="M0,49.41c.19-1,.39-2,.59-3,.48-2.44,1.09-4.84,2.04-7.16,1.7-4.15,6.92-4.84,9.91-2.21,3.05,2.68,2.59,7.85-.93,9.87-1.78,1.02-3.75,1.56-5.73,2-1.65.37-3.31.66-4.97.98-.11.02-.21.07-.32.1H0C0,49.8,0,49.61,0,49.41ZM5.22,44.76c.24-.04.4-.04.55-.09,1.18-.41,2.37-.8,3.52-1.27.94-.39,1.32-1.26,1.05-2.24-.22-.82-.76-1.35-1.61-1.52-.74-.15-1.48-.01-1.88.63-.84,1.35-1.33,2.85-1.63,4.5Z"/><path class="cls-1" d="M37.5,17.72c0,2.87-2.38,5.23-5.23,5.2-2.86-.03-5.18-2.35-5.19-5.2-.01-2.86,2.34-5.22,5.21-5.22,2.87,0,5.21,2.35,5.21,5.22Z"/></g></svg>