<?xml version="1.0" encoding="UTF-8"?><svg id="Layer_2" xmlns="http://www.w3.org/2000/svg" viewBox="0 0 41.3 55.09"><defs><style>.cls-1{fill:#ccf2c2;stroke-width:0px;}</style></defs><g id="Layer_1-2"><path class="cls-1" d="M21.83,0c1.08.24,2.19.4,3.23.75,5.92,1.97,9.81,7.82,9.33,13.94-.5,6.45-5.19,11.61-11.47,12.65-7.64,1.27-14.81-3.98-15.91-11.64C5.91,8.04,11.38.99,19.11.09c.12-.01.24-.06.36-.09.79,0,1.58,0,2.37,0ZM29.81,13.78c.02-5.06-4.04-9.14-9.15-9.17-5.03-.04-9.16,4.04-9.19,9.08-.03,5.09,4.02,9.23,9.07,9.25,5.16.02,9.25-4.02,9.27-9.16Z"/><path class="cls-1" d="M20.97,36.71c-8.32.05-15.05,5.86-16.21,13.71-.12.79-.11,1.61-.17,2.41-.09,1.19-.86,2.06-1.97,2.22-1.03.16-2.08-.44-2.45-1.43-.1-.28-.16-.59-.16-.89-.1-9.79,7.29-18.61,16.97-20.26,10.33-1.76,20.01,4.02,23.32,13.94.67,2.02.99,4.1,1.01,6.23.01,1.36-.93,2.39-2.21,2.43-1.31.04-2.34-.92-2.38-2.31-.04-1.57-.19-3.12-.69-4.61-2.15-6.36-6.52-10.15-13.16-11.27-.74-.12-1.5-.14-1.89-.18Z"/></g></svg>