<?xml version="1.0" encoding="UTF-8"?><svg id="Layer_2" xmlns="http://www.w3.org/2000/svg" viewBox="0 0 50 41.66"><defs><style>.cls-1{fill:#ededed;stroke-width:0px;}</style></defs><g id="Layer_1-2"><path class="cls-1" d="M0,32.25c0-7.62,0-15.23,0-22.85.12-.55.21-1.12.35-1.66C1.6,3.08,5.67,0,10.61,0c12.32,0,24.64,0,36.96,0,.18,0,.36,0,.54.01,1.25.09,2.14,1.33,1.83,2.54-.26,1.04-1.05,1.59-2.26,1.6-8.89,0-17.77,0-26.66,0-3.48,0-6.97,0-10.45,0-1.89,0-3.49.68-4.8,2.08.12.13.23.25.34.36,1.26,1.18,2.76,1.73,4.48,1.73,11.02,0,22.04,0,33.05,0,3.6,0,6.35,2.74,6.35,6.33,0,6.88,0,13.77,0,20.65,0,.48-.04.98-.15,1.45-.67,2.95-3.13,4.89-6.22,4.89-5.83,0-11.65,0-17.48,0-5.32,0-10.64.04-15.96-.02-4.78-.05-8.82-3.4-9.9-8.05-.1-.44-.18-.89-.27-1.33ZM4.2,10.54c0,.13-.02.28-.02.44,0,6.69,0,13.38,0,20.06,0,3.73,2.71,6.45,6.42,6.45,10.97,0,21.93,0,32.9,0,1.49,0,2.32-.84,2.32-2.33,0-2.18,0-4.36,0-6.54,0-4.6,0-9.21,0-13.81,0-.65-.14-1.22-.6-1.7-.49-.5-1.11-.62-1.78-.62-10.92,0-21.84,0-32.75,0-1.38,0-2.73-.18-4.01-.72-.84-.36-1.65-.82-2.49-1.24Z"/><path class="cls-1" d="M39.58,27.07c-1.14,0-2.07-.93-2.08-2.08,0-1.14.92-2.08,2.06-2.09,1.14-.01,2.12.96,2.11,2.1-.01,1.14-.96,2.07-2.09,2.07Z"/></g></svg>