<?xml version="1.0" encoding="UTF-8"?><svg id="Layer_2" xmlns="http://www.w3.org/2000/svg" viewBox="0 0 49.98 60"><defs><style>.cls-1{fill:#c4d977;}</style></defs><g id="Layer_1-2"><path class="cls-1" d="M25.15,0l3.18.62c2.57.71,4.99,2.01,6.99,3.77,3.08,2.72,7.2,6.88,9.94,9.96,2.49,2.79,4.33,6.64,4.56,10.43.48,7.72-.37,15.92,0,23.68-.38,5.22-4.19,9.82-9.25,11.13-.65.17-1.35.2-1.99.41H11.23c-5.96-.71-10.8-5.48-11.23-11.54V11.42C.39,5.61,5.45.51,11.23,0h13.92ZM11.29,5.04c-3.62.73-6.11,3.49-6.37,7.21v35.51c.22,3.7,2.94,6.71,6.61,7.21h26.78c3.82-.59,6.36-3.47,6.61-7.32-.36-6.98.47-14.42,0-21.34-.03-.41-.15-.82-.17-1.23-.08-.12-.23-.1-.35-.11-6.04-.74-16.12,2.62-18.95-4.68-.16-.4-.53-1.56-.53-1.93V5.21l-.18-.18h-13.45ZM43.16,20.04c-.5-1.01-1.23-1.92-1.99-2.76-2.44-2.73-5.93-6.23-8.66-8.67-.76-.68-1.63-1.41-2.57-1.81v11.31c0,.05.3.7.37.8.33.5,1.32,1.13,1.91,1.13h10.94Z"/></g></svg>